<?xml version="1.0" encoding="UTF-8" standalone="no"?><!DOCTYPE svg PUBLIC "-//W3C//DTD SVG 1.1//EN" "http://www.w3.org/Graphics/SVG/1.1/DTD/svg11.dtd"><svg width="100%" height="100%" viewBox="0 0 24 25" version="1.1" xmlns="http://www.w3.org/2000/svg" xmlns:xlink="http://www.w3.org/1999/xlink" xml:space="preserve" xmlns:serif="http://www.serif.com/" style="fill-rule:evenodd;clip-rule:evenodd;stroke-linecap:square;stroke-miterlimit:1.5;"><path d="M22.56,8.723c0.465,1.181 0.69,2.439 0.69,3.75c0,1.311 -0.225,2.569 -0.69,3.75l-10.561,0l0,-7.5l10.561,0Z" style="fill:#fff;"/><path d="M11.999,1.223l0.001,0c4.898,0 9.07,3.138 10.56,7.5l-10.561,0l0,-7.5Z" style="fill:#008357;"/><path d="M22.56,16.223c-1.49,4.362 -5.662,7.5 -10.56,7.5l-0.001,0l0,-7.5l10.561,0Z" style="fill:#231f20;"/><path d="M11.999,1.223l0,22.5c-6.253,-0.045 -11.249,-5.069 -11.249,-11.25c0,-6.181 4.996,-11.205 11.249,-11.25Z" style="fill:#f15d2f;"/><circle cx="12" cy="12.473" r="11.25" style="fill:none;stroke:#515151;stroke-width:0.75px;"/></svg>