<?xml version="1.0" encoding="UTF-8" standalone="no"?><!DOCTYPE svg PUBLIC "-//W3C//DTD SVG 1.1//EN" "http://www.w3.org/Graphics/SVG/1.1/DTD/svg11.dtd"><svg width="100%" height="100%" viewBox="0 0 24 25" version="1.1" xmlns="http://www.w3.org/2000/svg" xmlns:xlink="http://www.w3.org/1999/xlink" xml:space="preserve" xmlns:serif="http://www.serif.com/" style="fill-rule:evenodd;clip-rule:evenodd;stroke-linecap:square;stroke-miterlimit:1.5;"><circle cx="12" cy="12.473" r="11.25" style="fill:#ed1b2d;"/><path d="M11.999,8.589c-0.339,-0.056 0.039,-0.182 -0.084,-0.248c-0.467,-0.249 -0.07,-0.169 -0.157,-0.314c-0.053,-0.089 -0.442,-0.034 -0.418,-0.252c0.007,-0.063 0.278,-0.084 0.221,-0.162c-0.079,-0.106 -0.421,-0.078 -0.421,-0.276c0,-0.088 0.454,-0.161 0.368,-0.326c0.068,0.132 -1.337,-0.169 -1.365,-0.17c-0.253,-0.012 -1.051,0.144 -0.984,0.519c-0.048,0.004 0.645,-0.253 0.419,0.021c-0.134,0.158 -0.624,-0.026 -0.703,-0.177c-0.161,-0.319 -0.401,0.006 0.003,0.212c0.418,0.213 0.755,0.297 1.227,0.424c0.477,0.129 1.559,1.613 0.575,1.613c-0.476,0 -0.251,-0.556 -0.348,-0.829c-0.146,-0.411 -0.803,-0.491 -1.155,-0.638c-0.335,-0.139 -0.14,0.257 -0.525,0.136c-0.491,-0.153 -1.01,-0.42 -1.26,-0.894c-0.257,-0.49 -0.696,0.139 -0.328,0.527c0.343,0.36 0.873,0.571 1.349,0.679c0.141,0.032 0.735,0.344 0.232,0.417c-0.283,0.039 -0.585,0.062 -0.863,-0.027c-0.255,-0.081 -0.387,-0.385 -0.622,-0.446c-0.497,-0.126 0.089,0.741 0.335,0.833c0.216,0.081 1.424,-0.11 1.428,-0.101c0.119,0.304 -0.623,0.598 -0.818,0.602c-0.211,0.003 -1.001,-0.45 -1.106,-0.265c-0.281,0.476 0.708,0.671 0.997,0.648c0.067,-0.005 0.911,-0.32 0.885,-0.157c-0.056,0.35 -0.562,0.564 -0.857,0.619c-0.291,0.054 -0.724,-0.255 -0.951,-0.113c-0.416,0.262 0.359,0.592 0.564,0.573c0.285,-0.026 0.957,-0.578 1.174,-0.458c0.224,0.124 -0.647,0.78 -0.757,0.825c-0.27,0.113 -1.155,-0.268 -1.037,0.27c0.073,0.339 0.55,0.349 0.808,0.275c0.132,-0.037 1.161,-0.73 1.164,-0.701c0.039,0.377 -0.743,1.066 -1.063,1.182c-0.17,0.061 -1.013,-0.121 -0.914,0.219c0.339,1.167 1.832,-0.643 1.968,-0.575c0.26,0.129 -0.68,1.209 -0.832,1.305c-0.187,0.119 -1.356,0.053 -0.887,0.461c0.82,0.718 2.351,-1.382 2.335,-1.402c0.315,0.382 -0.443,0.893 -0.603,1.095c-0.187,0.237 0.253,0.338 0.402,0.239c0.267,-0.178 0.423,-0.539 0.545,-0.82c0.351,-0.807 0.438,-0.002 0.096,0.309c-0.285,0.263 0.231,0.218 0.37,0.107c0.05,-0.039 0.396,-0.525 0.408,-0.502c0.104,0.204 -0.28,0.673 -0.404,0.803c-0.346,0.362 -1.057,0.404 -0.613,0.853c-0.541,0.277 -0.963,0.552 -1.48,0.171c-0.157,-0.115 -1.034,-0.824 -1.08,-0.162c0.397,-0.068 0.913,0.256 1.235,0.474c-0.391,-0.011 -1.487,-0.396 -1.647,0.13c0.277,-0.031 0.471,0.141 0.698,0.103c0.313,-0.053 0.608,-0.084 0.938,-0.084c-0.175,0.105 -1.524,0.47 -0.913,0.973c0.068,-0.318 0.699,-0.645 0.99,-0.842c0.232,-0.15 1.202,0.338 1.289,0.502c0.257,-0.454 -0.608,-0.564 -0.841,-0.663c0.291,-0.104 0.58,-0.213 0.867,-0.326c0.394,-0.155 0.584,0.469 0.814,-0.027c0.135,-0.291 1.139,-1.847 0.931,-0.676c-0.099,0.561 -0.487,1.347 -1.144,1.38c-0.98,0.058 0.929,0.595 0.737,0.184c0.224,0.479 -0.753,0.36 -0.836,0.579c-0.26,0.692 1.217,-0.141 1.099,-0.143c0.184,0.003 -0.104,0.536 -0.161,0.583c-0.077,0.064 -0.586,0.143 -0.511,0.295c0.275,0.573 0.982,-0.294 1.002,-0.275c0.142,0.135 -0.103,0.397 -0.171,0.494c-0.22,0.314 0.205,0.73 0.386,0.934c0.177,-0.2 0.442,-0.459 0.442,-0.752c0,-0.175 -0.403,-0.509 -0.227,-0.676c0.022,-0.02 0.726,0.849 1.002,0.275c0.075,-0.152 -0.434,-0.231 -0.51,-0.295c-0.057,-0.047 -0.347,-0.58 -0.161,-0.583c-0.118,0.002 1.357,0.835 1.098,0.143c-0.082,-0.22 -1.059,-0.099 -0.835,-0.579c-0.157,0.336 1.425,0.024 0.92,-0.155c-0.667,-0.238 -1.048,-0.421 -1.273,-1.177c-0.034,-0.113 -0.212,-0.738 0.078,-0.724c0.282,0.013 0.575,0.715 0.671,0.912c0.23,0.469 0.269,0.598 0.776,0.216c0.338,0.144 0.686,0.269 1.032,0.393c-0.232,0.099 -1.098,0.209 -0.841,0.663c0.061,-0.114 0.972,-0.612 1.177,-0.562c0.274,0.067 0.431,0.318 0.594,0.496c0.209,0.228 0.42,-0.008 0.508,0.406c0.611,-0.503 -0.737,-0.867 -0.912,-0.973c0.256,0 0.513,0.005 0.769,0.012c0.229,0.172 0.585,-0.062 0.866,-0.031c-0.159,-0.526 -1.255,-0.141 -1.647,-0.13c0.323,-0.218 0.839,-0.542 1.235,-0.474c-0.026,-0.379 -0.885,-0.288 -0.94,0.026c-0.439,0.626 -1.081,0.24 -1.62,-0.035c0.083,-0.09 0.167,-0.18 0.251,-0.269c-0.308,-0.154 -1.529,-0.87 -1.267,-1.387c-0.048,0.094 0.814,0.962 0.836,0.529c0.012,-0.218 -0.308,-0.429 -0.315,-0.699c-0.014,-0.509 0.416,0.401 0.353,0.256c0.056,0.129 0.732,1.389 0.978,0.719c0.094,-0.258 -1.018,-0.767 -0.635,-1.233c-0.015,0.019 1.515,2.12 2.335,1.402c0.491,-0.427 -0.54,-0.311 -0.686,-0.362c-0.221,-0.077 -1.346,-1.247 -1.032,-1.404c0.291,-0.146 1.287,1.639 1.923,0.668c0.274,-0.417 -0.48,-0.252 -0.637,-0.263c-0.414,-0.03 -1.344,-0.77 -1.295,-1.231c0.007,-0.07 0.912,0.581 0.993,0.63c0.264,0.158 0.892,0.195 0.979,-0.204c0.112,-0.521 -0.54,-0.197 -0.774,-0.209c-0.201,-0.009 -1.286,-0.74 -1.021,-0.886c0.155,-0.086 1.933,1.093 1.827,0.024c-0.039,-0.389 -0.641,-0.005 -0.832,-0.005c-0.343,-0.001 -0.743,-0.159 -0.955,-0.438c-0.377,-0.499 0.343,-0.14 0.484,-0.099c0.325,0.095 1.27,0.082 1.343,-0.408c0.077,-0.523 -0.776,0.02 -0.931,0.055c-0.226,0.049 -1.212,-0.162 -1.048,-0.578c0.03,-0.075 1,0.19 1.166,0.167c0.245,-0.034 1.174,-0.512 0.738,-0.868c-0.142,-0.116 -0.782,0.445 -1.034,0.469c-0.258,0.023 -1.177,-0.326 -0.58,-0.403c0.296,-0.039 2.544,-1.006 1.564,-1.417c-0.208,-0.088 -0.828,0.731 -1.069,0.856c-0.193,0.1 -0.486,0.258 -0.714,0.25c-0.087,-0.003 -0.103,-0.302 -0.193,-0.238c-0.292,0.162 -0.636,0.249 -0.949,0.363c-0.536,0.195 -0.225,0.65 -0.403,1.014c-0.201,0.406 -0.662,0.022 -0.657,-0.295c0.008,-0.456 0.272,-0.844 0.668,-1.054c0.255,-0.136 1.023,-0.066 1.072,-0.448c0.228,-0.051 0.41,-0.031 0.594,-0.194c0.064,-0.056 0.198,-0.395 -0.043,-0.235c-0.256,0.17 -0.343,0.403 -0.721,0.342c-0.145,-0.023 -0.134,-0.134 -0.009,-0.179c0.208,-0.076 0.162,0.104 0.334,0.12c0.067,-0.375 -0.73,-0.531 -0.984,-0.519c-0.028,0.001 -1.433,0.303 -1.364,0.17c-0.086,0.167 0.368,0.237 0.367,0.326c-0.001,0.199 -0.342,0.169 -0.42,0.276c-0.056,0.077 0.214,0.099 0.22,0.162c0.023,0.219 -0.363,0.163 -0.418,0.252c-0.086,0.142 0.309,0.066 -0.156,0.314c-0.124,0.067 0.255,0.192 -0.085,0.248" style="fill-rule:nonzero;"/><circle cx="12" cy="12.473" r="11.25" style="fill:none;stroke:#515151;stroke-width:0.75px;"/></svg>