<?xml version="1.0" encoding="UTF-8" standalone="no"?><!DOCTYPE svg PUBLIC "-//W3C//DTD SVG 1.1//EN" "http://www.w3.org/Graphics/SVG/1.1/DTD/svg11.dtd"><svg width="100%" height="100%" viewBox="0 0 24 25" version="1.1" xmlns="http://www.w3.org/2000/svg" xmlns:xlink="http://www.w3.org/1999/xlink" xml:space="preserve" xmlns:serif="http://www.serif.com/" style="fill-rule:evenodd;clip-rule:evenodd;stroke-linecap:square;stroke-miterlimit:1.5;"><path d="M22.56,16.223c-1.49,4.362 -5.662,7.5 -10.56,7.5c-4.898,0 -9.07,-3.138 -10.56,-7.5l21.12,0Z" style="fill:#ed1b2d;"/><path d="M1.44,8.723c1.49,-4.362 5.662,-7.5 10.56,-7.5c4.898,0 9.07,3.138 10.56,7.5l-21.12,0Z" style="fill:#ed1b2d;"/><path d="M22.56,8.723c0.465,1.181 0.69,2.439 0.69,3.75c0,1.311 -0.225,2.569 -0.69,3.75l-21.12,0c-0.465,-1.181 -0.69,-2.439 -0.69,-3.75c0,-1.311 0.225,-2.569 0.69,-3.75l21.12,0Z" style="fill:#fff;"/><path d="M7.539,10.991l1.703,3.983l0.797,-2.246l1.421,-0.904l0.594,-0.642l-0.053,-3.098l-0.775,2.907l-0.604,-1.084l-0.297,-0.548l0.413,-0.79l-1.428,-0.593l-1.771,3.015Z" style="fill-rule:nonzero;"/><path d="M13.261,8.569l0.413,0.79l-0.298,0.548l-0.604,1.084l-0.774,-2.907l-0.053,3.098l0.593,0.642l1.422,0.904l0.797,2.246l1.704,-3.983l-1.772,-3.015l-1.428,0.593Z" style="fill-rule:nonzero;"/><path d="M12.643,8.746c0,0.386 -0.313,0.699 -0.699,0.699c-0.385,0 -0.327,-0.2 -0.327,-0.586l-0.371,-0.386c0,-0.386 0.313,-0.426 0.698,-0.426c0.386,0 0.699,0.313 0.699,0.699" style="fill-rule:nonzero;"/><path d="M11.59,8.265l-0.178,-0.792l1.101,0.057l-0.114,0.776l-0.809,-0.041Z" style="fill:#fce017;fill-rule:nonzero;"/><path d="M11.722,8.657l-0.779,-0.302l0.545,0.53l-0.419,0.41l0.72,-0.207l-0.067,-0.431Z" style="fill:#fce017;fill-rule:nonzero;"/><path d="M11.722,13.031l-0.132,1.197l-1.445,1.453l2.113,2.079l1.759,-2.017l-1.681,-1.53l0,-1.086l-0.614,-0.096Z" style="fill-rule:nonzero;"/><path d="M11.246,12.728l-0.875,1.174l0.649,0.454l0.444,-1.324l-0.218,-0.304Z" style="fill-rule:nonzero;"/><path d="M12.723,12.728l0.875,1.174l-0.649,0.454l-0.444,-1.324l0.218,-0.304Z" style="fill-rule:nonzero;"/><path d="M11.047,10.812l1.93,0l0.075,1.627c0,0 -0.019,1 -1,1c-0.982,0 -1.005,-1 -1.005,-1l0,-1.627Z" style="fill:#ed1e2f;fill-rule:nonzero;"/><path d="M10.825,9.066l0.686,-0.099l-0.007,-0.231l-0.679,0.33Z" style="fill:#ed1e2f;fill-rule:nonzero;"/><path d="M9.389,12.924l-0.863,0.168l-0.18,0.44l0.751,0.63l0.079,0.623l1.505,-0.781l0.122,0.352l-1.446,0.722l-0.214,0.905l-0.591,-0.895l0.124,-0.739l-0.74,-0.584l0.088,-0.841l0.652,-0.234l0.713,0.234Z" style="fill:#fce017;fill-rule:nonzero;"/><path d="M15.807,13.127l-1.174,-0.24l-0.172,0.521l0.534,0.133l-0.261,1.125l-1.412,-0.705l-0.296,0.35l1.542,0.705l0.223,0.864l0.613,-0.839l-0.234,-0.623l0.213,-0.886l0.424,0l0,-0.405Z" style="fill:#fce017;fill-rule:nonzero;"/><path d="M9.369,14.437l0.069,1.138l0.045,0.853l0.8,0.85l0.209,-0.316l-0.833,-0.923l-0.091,-1.602l-0.199,0Z" style="fill:#abd4f1;fill-rule:nonzero;"/><path d="M14.444,14.437l-0.069,1.138l-0.045,0.853l-0.8,0.85l-0.209,-0.316l0.833,-0.923l0.091,-1.602l0.199,0Z" style="fill:#abd4f1;fill-rule:nonzero;"/><rect x="11.047" y="11.559" width="1.979" height="0.914" style="fill:#fff;"/><circle cx="12" cy="12.473" r="11.25" style="fill:none;stroke:#515151;stroke-width:0.75px;"/></svg>