<?xml version="1.0" encoding="UTF-8" standalone="no"?><!DOCTYPE svg PUBLIC "-//W3C//DTD SVG 1.1//EN" "http://www.w3.org/Graphics/SVG/1.1/DTD/svg11.dtd"><svg width="100%" height="100%" viewBox="0 0 24 25" version="1.1" xmlns="http://www.w3.org/2000/svg" xmlns:xlink="http://www.w3.org/1999/xlink" xml:space="preserve" xmlns:serif="http://www.serif.com/" style="fill-rule:evenodd;clip-rule:evenodd;stroke-linecap:square;stroke-miterlimit:1.5;"><circle cx="12" cy="12.135" r="11.25" style="fill:#003876;"/><path id="bandera-australia" d="M15.037,1.57l0,1.326l-4.624,2.309l4.624,0l0,3.637l-4.624,0l4.624,2.309l0,1.326l-2.656,0l-6.437,-3.209l0,3.209l-3.624,0l0,-3.209l-1.356,0.676c0.603,-3.054 2.445,-5.666 4.98,-7.289l0,2.124l6.437,-3.209l2.656,0Z" style="fill:#fff;"/><path d="M13.324,1.57l-7.272,3.637l1.741,0l7.244,-3.637l-1.713,0Z" style="fill:#e1393e;fill-rule:nonzero;"/><path d="M15.037,12.477l-7.252,-3.635l1.749,0l5.503,2.768l0,0.867Z" style="fill:#e1393e;fill-rule:nonzero;"/><path id="bandera-australia1" serif:id="bandera-australia" d="M1.24,8.842l1.022,0l-1.185,0.592c0.049,-0.199 0.104,-0.397 0.163,-0.592Z" style="fill:#e1393e;"/><path id="bandera-australia2" serif:id="bandera-australia" d="M5.222,3.158l0,2.801l9.815,0l0,2.13l-9.815,0l0,4.388l-2.13,0l0,-4.388l-1.591,0c0.29,-0.752 0.659,-1.466 1.097,-2.13l0.494,0l0,-0.692c0.613,-0.794 1.33,-1.504 2.13,-2.109Z" style="fill:#e1393e;"/><path id="bandera-australia3" serif:id="bandera-australia" d="M2.309,17.849l0.423,-0.253l-1.125,-1.709l1.92,0.732l0.632,-1.955l0.632,1.955l1.928,-0.732l-1.133,1.709l1.753,1.043l-2.039,0.181l0.283,2.03l-1.424,-1.488l-0.404,0.424c-0.264,-0.285 -0.514,-0.583 -0.748,-0.894l0.01,-0.072l-0.068,-0.006c-0.229,-0.31 -0.443,-0.632 -0.64,-0.965Z" style="fill:#fff;"/><path d="M20.815,10.485l0.915,-0.347l-0.538,0.811l0.832,0.495l-0.967,0.085l0.134,0.963l-0.675,-0.706l-0.672,0.706l0.13,-0.963l-0.962,-0.085l0.827,-0.495l-0.533,-0.811l0.91,0.347l0.3,-0.926l0.299,0.926Z" style="fill:#fff;fill-rule:nonzero;"/><circle cx="12" cy="12.135" r="11.25" style="fill:none;stroke:#515151;stroke-width:0.75px;"/></svg>