<?xml version="1.0" encoding="UTF-8" standalone="no"?><!DOCTYPE svg PUBLIC "-//W3C//DTD SVG 1.1//EN" "http://www.w3.org/Graphics/SVG/1.1/DTD/svg11.dtd"><svg width="100%" height="100%" viewBox="0 0 24 25" version="1.1" xmlns="http://www.w3.org/2000/svg" xmlns:xlink="http://www.w3.org/1999/xlink" xml:space="preserve" xmlns:serif="http://www.serif.com/" style="fill-rule:evenodd;clip-rule:evenodd;stroke-linecap:square;stroke-miterlimit:1.5;"><path d="M12,0.885c4.911,0.035 9.046,3.14 10.56,7.5l-21.12,0c1.481,-4.337 5.612,-7.463 10.56,-7.5Z" style="fill:#0093c2;"/><path d="M22.56,15.885c-1.49,4.362 -5.662,7.5 -10.56,7.5c-4.898,0 -9.07,-3.138 -10.56,-7.5l21.12,0Z" style="fill:#2cb457;"/><path d="M22.56,8.385c0.465,1.181 0.69,2.439 0.69,3.75c0,1.311 -0.225,2.569 -0.69,3.75l-21.12,0c-0.465,-1.181 -0.69,-2.439 -0.69,-3.75c0,-1.311 0.225,-2.569 0.69,-3.75l21.12,0Z" style="fill:#ed174c;"/><path d="M15.379,10.265l0.352,1.008l0.971,-0.462l-0.456,0.965l1.002,0.359l-0.999,0.347l0.453,0.976l-0.96,-0.466l-0.363,1.012l-0.361,-1.012l-0.963,0.466l0.456,-0.976l-1.002,-0.347l1.006,-0.359l-0.46,-0.965l0.974,0.462l0.35,-1.008Z" style="fill:#fff;fill-rule:nonzero;"/><path d="M8.255,12.135c0,1.861 1.509,3.369 3.37,3.369c1.09,0 2.06,-0.517 2.676,-1.32c-0.501,0.468 -1.174,0.755 -1.914,0.755c-1.548,0 -2.804,-1.256 -2.804,-2.804c0,-1.548 1.256,-2.804 2.804,-2.804c0.74,0 1.413,0.287 1.914,0.755c-0.616,-0.803 -1.586,-1.32 -2.676,-1.32c-1.861,0 -3.37,1.508 -3.37,3.369" style="fill:#fff;fill-rule:nonzero;"/><circle cx="12" cy="12.135" r="11.25" style="fill:none;stroke:#515151;stroke-width:0.75px;"/></svg>