<?xml version="1.0" encoding="UTF-8" standalone="no"?><!DOCTYPE svg PUBLIC "-//W3C//DTD SVG 1.1//EN" "http://www.w3.org/Graphics/SVG/1.1/DTD/svg11.dtd"><svg width="100%" height="100%" viewBox="0 0 24 25" version="1.1" xmlns="http://www.w3.org/2000/svg" xmlns:xlink="http://www.w3.org/1999/xlink" xml:space="preserve" xmlns:serif="http://www.serif.com/" style="fill-rule:evenodd;clip-rule:evenodd;stroke-linecap:square;stroke-miterlimit:1.5;"><path id="bandera-bosnia-herzegovina" d="M12,1.135c6.209,0 11.25,5.041 11.25,11.25c0,6.209 -5.041,11.25 -11.25,11.25c-6.209,0 -11.25,-5.041 -11.25,-11.25c0,-6.209 5.041,-11.25 11.25,-11.25Z" style="fill:#fff;"/><path d="M18.12,4.903l0,5.932c0,4.627 -2.797,7.919 -6.12,9.059c-3.322,-1.14 -6.118,-4.432 -6.118,-9.059l0,-5.932l12.238,0Z" style="fill:#0060a9;fill-rule:nonzero;"/><path d="M16.816,15.881l-9.678,-10.978l-1.257,0l0,1.438l9.798,11.106c0.433,-0.465 0.898,-1.133 1.137,-1.566" style="fill:#fff;fill-rule:nonzero;"/><path d="M12.001,17.546l0.248,-0.197c-0.079,-0.063 -0.124,-0.17 -0.124,-0.287c0,-0.532 0.861,-0.377 0.562,0.041c0.299,0.03 0.471,-0.2 0.398,-0.458c-0.089,-0.318 -0.567,-0.497 -1,-0.104c0.379,-0.572 0.254,-1.04 -0.084,-1.344c-0.339,0.304 -0.463,0.772 -0.085,1.344c-0.433,-0.393 -0.91,-0.214 -1,0.104c-0.073,0.258 0.1,0.488 0.398,0.458c-0.298,-0.418 0.562,-0.573 0.562,-0.041c0,0.117 -0.045,0.224 -0.124,0.287l0.249,0.197Zm-2.249,-2.542l0.249,-0.197c-0.08,-0.063 -0.124,-0.171 -0.124,-0.287c0,-0.533 0.86,-0.377 0.562,0.041c0.298,0.03 0.47,-0.2 0.398,-0.458c-0.09,-0.318 -0.568,-0.497 -1.001,-0.104c0.379,-0.573 0.254,-1.04 -0.084,-1.344c-0.338,0.304 -0.463,0.771 -0.084,1.344c-0.433,-0.393 -0.911,-0.214 -1.001,0.104c-0.072,0.258 0.1,0.488 0.398,0.458c-0.298,-0.418 0.562,-0.574 0.562,-0.041c0,0.116 -0.044,0.224 -0.124,0.287l0.249,0.197Zm-2.249,-2.542l0.249,-0.197c-0.079,-0.063 -0.124,-0.171 -0.124,-0.288c0,-0.532 0.861,-0.376 0.562,0.042c0.299,0.03 0.471,-0.2 0.398,-0.458c-0.089,-0.319 -0.567,-0.498 -1,-0.105c0.379,-0.572 0.254,-1.04 -0.085,-1.343c-0.338,0.303 -0.463,0.771 -0.084,1.343c-0.433,-0.393 -0.911,-0.214 -1,0.105c-0.073,0.258 0.099,0.488 0.398,0.458c-0.299,-0.418 0.562,-0.574 0.562,-0.042c0,0.117 -0.045,0.225 -0.124,0.288l0.248,0.197Zm8.376,0l0.249,-0.197c-0.08,-0.063 -0.125,-0.171 -0.125,-0.288c0,-0.532 0.861,-0.376 0.562,0.042c0.299,0.03 0.471,-0.2 0.398,-0.458c-0.089,-0.319 -0.567,-0.498 -1,-0.105c0.379,-0.572 0.254,-1.04 -0.084,-1.343c-0.339,0.303 -0.464,0.771 -0.085,1.343c-0.433,-0.393 -0.91,-0.214 -1,0.105c-0.072,0.258 0.1,0.488 0.398,0.458c-0.298,-0.418 0.562,-0.574 0.562,-0.042c0,0.117 -0.045,0.225 -0.124,0.288l0.249,0.197Zm0,-4.334l0.249,-0.198c-0.08,-0.062 -0.125,-0.17 -0.125,-0.287c0,-0.532 0.861,-0.377 0.562,0.041c0.299,0.03 0.471,-0.2 0.398,-0.457c-0.089,-0.319 -0.567,-0.498 -1,-0.105c0.379,-0.572 0.254,-1.04 -0.084,-1.343c-0.339,0.303 -0.464,0.771 -0.085,1.343c-0.433,-0.393 -0.91,-0.214 -1,0.105c-0.072,0.257 0.1,0.487 0.398,0.457c-0.298,-0.418 0.562,-0.573 0.562,-0.041c0,0.117 -0.045,0.225 -0.124,0.287l0.249,0.198Zm-4.127,-0.198c0.079,-0.062 0.124,-0.17 0.124,-0.287c0,-0.532 -0.86,-0.377 -0.562,0.041c-0.298,0.03 -0.471,-0.2 -0.398,-0.457c0.09,-0.319 0.567,-0.498 1,-0.105c-0.378,-0.572 -0.254,-1.04 0.085,-1.343c0.338,0.303 0.463,0.771 0.084,1.343c0.433,-0.393 0.911,-0.214 1,0.105c0.073,0.257 -0.099,0.487 -0.398,0.457c0.299,-0.418 -0.562,-0.573 -0.562,-0.041c0,0.117 0.045,0.225 0.125,0.287l-0.249,0.198l-0.249,-0.198Z" style="fill:#ffd51f;fill-rule:nonzero;"/><circle cx="12" cy="12.385" r="11.25" style="fill:none;stroke:#515151;stroke-width:0.75px;"/></svg>