<?xml version="1.0" encoding="UTF-8" standalone="no"?><!DOCTYPE svg PUBLIC "-//W3C//DTD SVG 1.1//EN" "http://www.w3.org/Graphics/SVG/1.1/DTD/svg11.dtd"><svg width="100%" height="100%" viewBox="0 0 24 25" version="1.1" xmlns="http://www.w3.org/2000/svg" xmlns:xlink="http://www.w3.org/1999/xlink" xml:space="preserve" xmlns:serif="http://www.serif.com/" style="fill-rule:evenodd;clip-rule:evenodd;stroke-linecap:square;stroke-miterlimit:1.5;"><path d="M18.265,3.045c2.997,2.003 4.985,5.441 4.985,9.34c0,3.899 -1.988,7.337 -4.985,9.34l0,-18.68Z" style="fill:#ed1c24;"/><path d="M12,1.135c2.327,0.017 4.48,0.723 6.265,1.91l0,18.68c-1.806,1.212 -3.955,1.91 -6.265,1.91c-2.156,0 -4.17,-0.608 -5.867,-1.694l0,-19.112c1.673,-1.071 3.655,-1.677 5.867,-1.694Z" style="fill:#fff200;"/><path d="M6.133,2.829l0,19.112c-3.235,-1.947 -5.383,-5.503 -5.383,-9.556c0,-4.053 2.148,-7.609 5.383,-9.556Z" style="fill:#231f20;"/><circle cx="12" cy="12.385" r="11.25" style="fill:none;stroke:#515151;stroke-width:0.75px;"/></svg>