<?xml version="1.0" encoding="UTF-8" standalone="no"?><!DOCTYPE svg PUBLIC "-//W3C//DTD SVG 1.1//EN" "http://www.w3.org/Graphics/SVG/1.1/DTD/svg11.dtd"><svg width="100%" height="100%" viewBox="0 0 24 25" version="1.1" xmlns="http://www.w3.org/2000/svg" xmlns:xlink="http://www.w3.org/1999/xlink" xml:space="preserve" xmlns:serif="http://www.serif.com/" style="fill-rule:evenodd;clip-rule:evenodd;stroke-linecap:square;stroke-miterlimit:1.5;"><path d="M14.875,1.641c3.745,0.959 6.719,3.814 7.815,7.5l-21.38,0c1.103,-3.685 4.071,-6.553 7.815,-7.5l5.75,0Z" style="fill:#fff;"/><path d="M22.43,16.641c-1.662,4.167 -5.708,7.082 -10.43,7.082c-4.722,0 -8.768,-2.915 -10.43,-7.082l20.86,0Z" style="fill:#e1393e;"/><path d="M22.69,9.141c0.382,1.04 0.56,2.166 0.56,3.332c0,1.487 -0.289,2.907 -0.82,4.168l-20.86,0c-0.531,-1.261 -0.82,-2.681 -0.82,-4.168c0,-1.166 0.178,-2.292 0.56,-3.332l21.38,0Z" style="fill:#007f61;"/><circle cx="12" cy="12.473" r="11.25" style="fill:none;stroke:#515151;stroke-width:0.75px;"/></svg>