<?xml version="1.0" encoding="UTF-8" standalone="no"?><!DOCTYPE svg PUBLIC "-//W3C//DTD SVG 1.1//EN" "http://www.w3.org/Graphics/SVG/1.1/DTD/svg11.dtd"><svg width="100%" height="100%" viewBox="0 0 24 25" version="1.1" xmlns="http://www.w3.org/2000/svg" xmlns:xlink="http://www.w3.org/1999/xlink" xml:space="preserve" xmlns:serif="http://www.serif.com/" style="fill-rule:evenodd;clip-rule:evenodd;stroke-linecap:square;stroke-miterlimit:1.5;"><path d="M12,1.135c6.254,0.045 11.25,5.069 11.25,11.25c0,6.209 -5.041,11.25 -11.25,11.25c-0.952,0 -1.876,-0.118 -2.722,-0.37l2.87,-1.036l-3.897,-1.407l3.897,-1.406l-3.897,-1.407l3.897,-1.406l-3.897,-1.407l3.897,-1.406l-3.897,-1.407l3.897,-1.406l-3.897,-1.407l3.897,-1.406l-3.897,-1.407l3.897,-1.406l-3.897,-1.407l3.897,-1.406l-2.869,-1.033l0.455,-0.141l2.266,-0.229Z" style="fill:#ed1b2d;"/><path d="M12.148,2.538l-3.897,1.406l3.897,1.407l-3.897,1.406l3.897,1.407l-3.897,1.406l3.897,1.407l-3.897,1.406l3.897,1.407l-3.897,1.406l3.897,1.407l-3.897,1.406l3.897,1.407l-3.897,1.406l3.897,1.407l-2.87,1.036c-4.885,-1.195 -8.485,-5.57 -8.528,-10.88c0.038,-5.295 3.646,-9.689 8.529,-10.88l2.869,1.033Z" style="fill:#fff;"/><circle cx="12" cy="12.385" r="11.25" style="fill:none;stroke:#515151;stroke-width:0.75px;"/></svg>