<?xml version="1.0" encoding="UTF-8" standalone="no"?><!DOCTYPE svg PUBLIC "-//W3C//DTD SVG 1.1//EN" "http://www.w3.org/Graphics/SVG/1.1/DTD/svg11.dtd"><svg width="100%" height="100%" viewBox="0 0 24 25" version="1.1" xmlns="http://www.w3.org/2000/svg" xmlns:xlink="http://www.w3.org/1999/xlink" xml:space="preserve" xmlns:serif="http://www.serif.com/" style="fill-rule:evenodd;clip-rule:evenodd;stroke-linecap:square;stroke-miterlimit:1.5;"><g><circle cx="12" cy="12.5" r="11.25" style="fill:#cb313f;"/><path d="M5.092,19.597l2.133,3.028l0,-6.053l-2.133,3.025Zm-2.682,-1.215l1.105,-1.958l1.206,2.14l-0.001,1.625l-0.333,0.591c-0.764,-0.703 -1.43,-1.51 -1.977,-2.398Zm3.901,-2.703l-2.439,0l1.22,-2.133l1.219,2.133Zm-3.386,0l-1.719,0c-0.084,-0.287 -0.158,-0.579 -0.22,-0.876l0.719,-1.257l1.22,2.133Zm-0.618,-2.498l0,-1.624l1.207,-2.141l1.206,2.141l-0.001,1.624l-1.205,2.141l-1.207,-2.141Zm2.785,-1.013l2.133,3.028l0,-6.053l-2.133,3.025Zm-3.294,0.004l-0.996,1.413c-0.034,-0.357 -0.052,-0.719 -0.052,-1.085c0,-0.559 0.041,-1.108 0.12,-1.645l0.928,1.317Zm-0.376,-3.509l1.501,0l-1.22,2.133l-0.609,-1.065c0.092,-0.364 0.202,-0.72 0.328,-1.068Zm4.888,0l-1.22,2.133l-1.219,-2.133l2.439,0Zm0.915,-6.351l0,5.875l-2.133,-3.027l1.943,-2.756c0.063,-0.031 0.126,-0.062 0.19,-0.092Zm-2.581,1.679l0.077,0.136l-0.001,1.624l-1.205,2.141l-0.9,-1.595c0.569,-0.858 1.253,-1.634 2.029,-2.306Z" style="fill:#fff;"/><path d="M5.811,21.888c1.695,1.121 3.711,1.787 5.88,1.847l0.618,0c4.754,-0.13 8.767,-3.209 10.283,-7.477l-16.781,0l0,5.63Z" style="fill:#49a85d;fill-rule:nonzero;"/><path d="M5.808,3.139l-0.001,0l0,0.66l0.001,0l0,0.436l-0.001,0l0,1.033l0.001,0l0,0.443l-0.001,0l0,1.025l0.001,-0.001l0,0.459c0,0 -0.001,0 -0.001,-0.001l0,0.655l0.001,0l0,0.805l-0.001,0l0,0.643l0.001,-0.001l0,0.481c0,0 -0.001,0 -0.001,-0.001l0,0.284l0.001,0l0,1.17l-0.001,0l0,2.525l0.001,0l0,1.188l-0.001,-0.001l0,0.254l0.001,-0.001l0,0.496l-0.001,-0.001l0,0.569l16.785,0c0.418,-1.177 0.658,-2.438 0.658,-3.758c0,-6.209 -5.041,-11.25 -11.25,-11.25c-2.288,0 -4.415,0.689 -6.192,1.865l0,0.024Z" style="fill:#cb313f;fill-rule:nonzero;"/></g><circle cx="12" cy="12.473" r="11.25" style="fill:none;stroke:#515151;stroke-width:0.75px;"/></svg>