<?xml version="1.0" encoding="UTF-8" standalone="no"?><!DOCTYPE svg PUBLIC "-//W3C//DTD SVG 1.1//EN" "http://www.w3.org/Graphics/SVG/1.1/DTD/svg11.dtd"><svg width="100%" height="100%" viewBox="0 0 24 25" version="1.1" xmlns="http://www.w3.org/2000/svg" xmlns:xlink="http://www.w3.org/1999/xlink" xml:space="preserve" xmlns:serif="http://www.serif.com/" style="fill-rule:evenodd;clip-rule:evenodd;stroke-linecap:square;stroke-miterlimit:1.5;"><path d="M19.5,3.807c2.312,2.028 3.75,5.011 3.75,8.328c0,3.317 -1.438,6.3 -3.75,8.328l0,-16.656Z" style="fill:#ed174c;"/><path d="M4.5,3.807l0,16.656c-2.312,-2.028 -3.75,-5.011 -3.75,-8.328c0,-3.317 1.438,-6.3 3.75,-8.328Z" style="fill:#ed174c;"/><path d="M4.5,3.807c1.969,-1.828 4.608,-2.922 7.5,-2.922c2.892,0 5.531,1.094 7.5,2.922l0,16.656c-1.969,1.828 -4.608,2.922 -7.5,2.922c-2.892,0 -5.531,-1.094 -7.5,-2.922l0,-16.656Z" style="fill:#fff;"/><path d="M12.284,18.403c-0.074,-1.22 -0.105,-2.009 -0.137,-2.771c-0.013,-0.326 0.272,-0.296 0.484,-0.263c1.756,0.273 2.587,0.4 2.587,0.4c-0.631,-1.189 -0.188,-1.258 0.158,-1.546c1.977,-1.651 2.397,-2.009 2.397,-2.009c-0.915,-0.31 -0.788,-0.194 -0.2,-2.387c-1.908,0.605 -1.75,0.426 -2.155,-0.515c0,0 -0.148,0.168 -1.341,1.514c-0.168,0.19 -0.454,0.063 -0.394,-0.231c0.62,-3.071 0.652,-3.197 0.652,-3.197c-1.21,0.731 -1.164,0.772 -1.357,0.394c-0.662,-1.293 -0.978,-1.929 -0.978,-1.929c0,0 -0.315,0.636 -0.978,1.929c-0.193,0.378 -0.147,0.337 -1.356,-0.394c0,0 0.031,0.126 0.652,3.197c0.059,0.294 -0.226,0.421 -0.395,0.231c-1.193,-1.346 -1.341,-1.514 -1.341,-1.514c-0.404,0.941 -0.247,1.12 -2.155,0.515c0.589,2.193 0.715,2.077 -0.2,2.387c0,0 0.421,0.358 2.398,2.009c0.345,0.288 0.788,0.357 0.157,1.546c0,0 0.831,-0.127 2.587,-0.4c0.212,-0.033 0.497,-0.063 0.484,0.263c-0.032,0.762 -0.063,1.551 -0.137,2.771l0.568,0Z" style="fill:#ed174c;fill-rule:nonzero;"/><circle cx="12" cy="12.135" r="11.25" style="fill:none;stroke:#515151;stroke-width:0.75px;"/></svg>