<?xml version="1.0" encoding="UTF-8" standalone="no"?><!DOCTYPE svg PUBLIC "-//W3C//DTD SVG 1.1//EN" "http://www.w3.org/Graphics/SVG/1.1/DTD/svg11.dtd"><svg width="100%" height="100%" viewBox="0 0 24 25" version="1.1" xmlns="http://www.w3.org/2000/svg" xmlns:xlink="http://www.w3.org/1999/xlink" xml:space="preserve" xmlns:serif="http://www.serif.com/" style="fill-rule:evenodd;clip-rule:evenodd;stroke-linecap:square;stroke-miterlimit:1.5;"><path d="M23.25,12.134l0,0.001c0,6.209 -5.041,11.25 -11.25,11.25c-6.209,0 -11.25,-5.041 -11.25,-11.25l0,-0.001l22.5,0Z" style="fill:#ed1b2d;"/><path d="M12,0.885c6.226,0.045 11.205,5.024 11.25,11.249l-11.252,0l0,-11.249l0.002,0Z" style="fill:#fff;"/><path d="M11.998,12.134l-11.248,0c0.045,-6.225 5.024,-11.204 11.248,-11.249l0,11.249Z" style="fill:#00529b;"/><path d="M6.379,3.692l-0.627,1.948l-2.061,0l1.674,1.211l-0.643,1.946l1.657,-1.209l1.656,1.209l-0.634,-1.962l1.665,-1.187l-2.053,0l-0.634,-1.956Z" style="fill:#fff;fill-rule:nonzero;"/><circle cx="12" cy="12.135" r="11.25" style="fill:none;stroke:#515151;stroke-width:0.75px;"/></svg>