<?xml version="1.0" encoding="UTF-8" standalone="no"?><!DOCTYPE svg PUBLIC "-//W3C//DTD SVG 1.1//EN" "http://www.w3.org/Graphics/SVG/1.1/DTD/svg11.dtd"><svg width="100%" height="100%" viewBox="0 0 24 25" version="1.1" xmlns="http://www.w3.org/2000/svg" xmlns:xlink="http://www.w3.org/1999/xlink" xml:space="preserve" xmlns:serif="http://www.serif.com/" style="fill-rule:evenodd;clip-rule:evenodd;stroke-linecap:square;stroke-miterlimit:1.5;"><circle cx="12" cy="12.223" r="11.25" style="fill:#ed1b2d;"/><path d="M11.129,10.389l0.446,0.678l-0.513,0.638l0.791,-0.216l0.442,0.683l0.039,-0.813l0.786,-0.212l-0.765,-0.292l0.047,-0.811l-0.511,0.635l-0.762,-0.29Zm2.064,-1.844l0.671,0.459l-0.233,0.784l0.65,-0.5l0.668,0.464l-0.273,-0.767l0.647,-0.494l-0.818,0.02l-0.264,-0.768l-0.232,0.781l-0.816,0.021Zm0.583,-4.086l0.115,0.804l-0.736,0.358l0.808,0.142l0.109,0.807l0.381,-0.72l0.802,0.144l-0.568,-0.59l0.388,-0.713l-0.732,0.356l-0.567,-0.588Zm-2.615,-1.96l0.415,0.698l-0.54,0.614l0.8,-0.181l0.411,0.702l0.074,-0.811l0.795,-0.176l-0.751,-0.326l0.083,-0.807l-0.538,0.611l-0.749,-0.324Zm-4.037,3.082l2.424,0l-1.966,1.401l0.749,2.317l-1.956,-1.428l-1.956,1.428l0.759,-2.297l-1.976,-1.431l2.433,0l0.74,-2.298l0.749,2.308Z" style="fill:#ffe153;fill-rule:nonzero;"/><circle cx="12" cy="12.223" r="11.25" style="fill:none;stroke:#515151;stroke-width:0.75px;"/></svg>