<?xml version="1.0" encoding="UTF-8" standalone="no"?><!DOCTYPE svg PUBLIC "-//W3C//DTD SVG 1.1//EN" "http://www.w3.org/Graphics/SVG/1.1/DTD/svg11.dtd"><svg width="100%" height="100%" viewBox="0 0 24 25" version="1.1" xmlns="http://www.w3.org/2000/svg" xmlns:xlink="http://www.w3.org/1999/xlink" xml:space="preserve" xmlns:serif="http://www.serif.com/" style="fill-rule:evenodd;clip-rule:evenodd;stroke-linecap:square;stroke-miterlimit:1.5;"><path d="M23.25,12.385c-0.045,6.254 -5.069,11.25 -11.25,11.25c-3.371,0 -6.398,-1.486 -8.433,-3.878l11.058,-7.372l8.625,0Z" style="fill:#ef3d42;"/><path d="M12,1.135c6.226,0.045 11.205,5.024 11.25,11.25l-8.625,0l-11.058,-7.372c2.019,-2.373 5.014,-3.854 8.433,-3.878Z" style="fill:#fff;"/><path d="M11.511,14.461l-7.944,5.296c-1.764,-1.941 -2.817,-4.534 -2.817,-7.372l13.875,0l-3.114,2.076Z" style="fill:#0067a6;"/><path d="M3.567,5.013l11.058,7.372l-13.875,0c0,-2.808 1.031,-5.377 2.817,-7.372Z" style="fill:#0067a6;"/><circle cx="12" cy="12.385" r="11.25" style="fill:none;stroke:#515151;stroke-width:0.75px;"/></svg>