<?xml version="1.0" encoding="UTF-8" standalone="no"?><!DOCTYPE svg PUBLIC "-//W3C//DTD SVG 1.1//EN" "http://www.w3.org/Graphics/SVG/1.1/DTD/svg11.dtd"><svg width="100%" height="100%" viewBox="0 0 24 24" version="1.1" xmlns="http://www.w3.org/2000/svg" xmlns:xlink="http://www.w3.org/1999/xlink" xml:space="preserve" xmlns:serif="http://www.serif.com/" style="fill-rule:evenodd;clip-rule:evenodd;stroke-linecap:square;stroke-miterlimit:1.5;"><path d="M1.44,8.304c1.49,-4.362 5.662,-7.5 10.56,-7.5c4.898,0 9.07,3.138 10.56,7.5l-21.12,0Z" style="fill:#231f20;"/><path d="M22.56,15.804c-1.49,4.362 -5.662,7.5 -10.56,7.5c-4.898,0 -9.07,-3.138 -10.56,-7.5l21.12,0Z" style="fill:#fcb131;"/><path d="M22.56,8.304c0.465,1.181 0.69,2.439 0.69,3.75c0,1.311 -0.225,2.569 -0.69,3.75l-21.12,0c-0.465,-1.181 -0.69,-2.439 -0.69,-3.75c0,-1.311 0.225,-2.569 0.69,-3.75l21.12,0Z" style="fill:#ed1b2d;"/><path d="M16.563,7.034l0,6.388c0,2.015 -1.88,3.654 -4.187,3.654c-2.307,0 -4.186,-1.639 -4.186,-3.654l0,-6.388l8.373,0Z" style="fill:#fcb131;fill-rule:nonzero;"/><path d="M11.737,8.755c-0.071,0.201 -0.154,0.45 -0.107,0.746c-0.154,-0.036 -0.556,-0.071 -0.722,0.012c-0.059,-0.19 -0.248,-0.486 -0.379,-0.604c0.379,-0.32 0.379,-0.415 0.178,-0.533c-0.201,-0.118 -0.509,-0.225 -0.722,-0.237c-0.213,-0.011 -0.284,0.036 -0.391,0.131c-0.106,0.094 -0.355,0.236 -0.604,0.236c0.012,1.03 -0.059,2.108 -0.189,2.771c-0.035,0.18 -0.077,0.444 -0.053,0.586c0.183,-0.048 0.29,-0.178 0.473,-0.243c0.077,-0.438 0.175,-1.104 0.234,-1.53c0.055,0.059 0.151,0.154 0.189,0.182c0.027,0.525 -0.381,2.704 -0.417,3.153c0.19,-0.011 0.379,-0.201 0.521,-0.213c0.096,-0.71 0.367,-2.196 0.354,-2.7c0.05,0.022 0.136,0.059 0.183,0.076c-0.009,0.838 -0.294,2.18 -0.306,2.796c0.142,-0.024 0.26,-0.136 0.438,-0.16c0.101,-0.621 0.287,-2.095 0.318,-2.477c0.065,0.02 0.166,0.055 0.215,0.071c0.006,0.447 -0.166,1.394 -0.136,1.785c0.118,-0.071 0.266,-0.089 0.355,-0.19c0.112,-0.45 0.089,-1.204 0.177,-1.449c0.045,0.02 0.104,0.046 0.148,0.074c0.006,0.245 -0.059,0.825 -0.035,1.038c0.112,-0.015 0.174,-0.101 0.343,-0.125c0,-0.153 -0.009,-0.47 0.031,-0.575c0.11,0.203 0.188,0.386 0.194,0.688c-0.438,0.266 -0.604,0.758 -1.237,0.787c0.077,0.16 0.254,0.267 0.485,0.326c0.036,0.177 0.048,0.432 0.125,0.556c0.201,-0.16 0.254,-0.604 0.598,-0.609c-0.054,0.224 -0.065,0.338 -0.083,0.426c-0.054,0.254 -0.249,0.266 -0.361,0.45c0.183,0.177 0.378,0.189 0.526,0.136c-0.136,0.337 -0.657,0.402 -0.882,0.331c-0.047,0.071 -0.041,0.166 0,0.213c-0.242,0.083 -0.473,0.432 -0.136,0.687c0.03,-0.184 0.118,-0.284 0.272,-0.266c0.018,0.047 0.042,0.136 0.03,0.201c0.296,0.012 0.74,-0.308 0.823,-0.45c0.118,0.207 -0.13,0.479 -0.332,0.621c0.113,0.095 0.202,0.131 0.338,0.113c-0.071,0.326 0.248,0.367 0.148,0.681c0.177,-0.142 0.296,-0.48 0.195,-0.681c0.136,0.018 0.249,-0.018 0.361,-0.113c-0.201,-0.142 -0.45,-0.414 -0.331,-0.621c0.083,0.142 0.527,0.462 0.823,0.45c-0.012,-0.065 0.011,-0.154 0.029,-0.201c0.154,-0.018 0.243,0.082 0.272,0.266c0.338,-0.255 0.107,-0.604 -0.136,-0.687c0.042,-0.047 0.048,-0.142 0,-0.213c-0.225,0.071 -0.746,0.006 -0.882,-0.331c0.148,0.053 0.344,0.041 0.527,-0.136c-0.112,-0.184 -0.308,-0.196 -0.361,-0.45c-0.018,-0.088 -0.03,-0.202 -0.083,-0.426c0.343,0.005 0.397,0.449 0.598,0.609c0.077,-0.124 0.089,-0.379 0.124,-0.556c0.231,-0.059 0.409,-0.166 0.486,-0.326c-0.634,-0.029 -0.8,-0.521 -1.238,-0.787c0.006,-0.302 0.085,-0.485 0.194,-0.688c0.04,0.105 0.031,0.422 0.031,0.575c0.169,0.024 0.231,0.11 0.344,0.125c0.023,-0.213 -0.042,-0.793 -0.036,-1.038c0.045,-0.028 0.104,-0.054 0.148,-0.074c0.089,0.245 0.065,0.999 0.178,1.449c0.089,0.101 0.237,0.119 0.355,0.19c0.03,-0.391 -0.142,-1.338 -0.136,-1.785c0.049,-0.016 0.149,-0.051 0.214,-0.071c0.031,0.382 0.218,1.856 0.319,2.477c0.177,0.024 0.296,0.136 0.438,0.16c-0.012,-0.616 -0.298,-1.958 -0.307,-2.796c0.048,-0.017 0.133,-0.054 0.184,-0.076c-0.013,0.504 0.257,1.99 0.353,2.7c0.142,0.012 0.332,0.202 0.521,0.213c-0.035,-0.449 -0.444,-2.628 -0.417,-3.153c0.038,-0.028 0.135,-0.123 0.189,-0.182c0.06,0.426 0.157,1.092 0.234,1.53c0.184,0.065 0.29,0.195 0.474,0.243c0.024,-0.142 -0.018,-0.406 -0.053,-0.586c-0.131,-0.663 -0.202,-1.741 -0.19,-2.771c-0.248,0 -0.497,-0.142 -0.604,-0.236c-0.106,-0.095 -0.177,-0.142 -0.39,-0.131c-0.213,0.012 -0.521,0.119 -0.722,0.237c-0.202,0.118 -0.202,0.213 0.177,0.533c-0.13,0.118 -0.32,0.414 -0.379,0.604c-0.165,-0.083 -0.568,-0.048 -0.722,-0.012c0.048,-0.296 -0.047,-1.066 -0.189,-1.433c0.047,-0.035 0.112,-0.074 0.16,-0.168c0.047,-0.095 -0.054,-0.042 -0.166,-0.08c-0.271,-0.093 -0.728,-0.409 -1.036,-0.409c-0.024,0.071 -0.077,0.16 -0.19,0.255c-0.112,0.095 0.154,0.367 0.35,0.621c0.195,0.255 -0.249,0.225 -0.314,0.468" style="fill:#231f20;fill-rule:nonzero;"/><path d="M9.286,13.75c0.013,-0.016 0.029,-0.03 0.048,-0.041c0.118,-0.065 0.473,0.072 0.568,0.16c0.095,0.089 0.189,0.101 0.237,0.077c0.251,-0.125 0.651,-0.615 0.916,-0.849c0.065,0.033 0.14,0.059 0.22,0.08c0.01,0.047 0.017,0.099 0.025,0.153c-0.099,0.101 -0.38,0.374 -0.528,0.522c0.101,0.035 0.255,0.142 0.249,0.296c0,0.012 -0.002,0.022 -0.004,0.033c0.01,0.007 0.019,0.016 0.027,0.026c0.077,0.1 -0.011,0.331 -0.153,0.39c0.053,-0.13 -0.095,-0.148 -0.101,-0.29c0,-0.002 0,-0.003 0,-0.005c-0.017,-0.004 -0.033,-0.01 -0.048,-0.018c-0.112,-0.059 -0.011,-0.231 -0.23,-0.308c-0.036,0.089 -0.148,0.018 -0.231,0.172c-0.084,0.155 0.154,0.26 0.071,0.467c-0.005,0.012 -0.011,0.023 -0.018,0.033c0.057,0.081 -0.029,0.207 0.166,0.251c-0.219,0.166 -0.519,-0.016 -0.468,-0.183c0,-0.001 0.001,-0.003 0.001,-0.004c-0.006,-0.004 -0.013,-0.009 -0.019,-0.014c-0.108,-0.09 0.089,-0.237 -0.059,-0.462c-0.266,0.243 -0.177,0.456 -0.408,0.474c-0.022,0.002 -0.043,0.001 -0.064,-0.001c-0.041,0.056 -0.101,0.112 -0.055,0.303c-0.219,-0.048 -0.319,-0.45 -0.171,-0.545c0.013,-0.008 0.026,-0.015 0.038,-0.02c0.003,-0.007 0.006,-0.014 0.009,-0.021c0.051,-0.109 0.207,-0.065 0.403,-0.184c0.131,-0.079 0.041,-0.106 -0.048,-0.106c-0.088,0 -0.195,-0.012 -0.314,-0.095c-0.01,-0.007 -0.02,-0.015 -0.028,-0.024c-0.079,0.054 -0.256,-0.005 -0.309,0.208c-0.065,-0.202 0.012,-0.409 0.19,-0.468c0.035,-0.012 0.064,-0.013 0.088,-0.007Z" style="fill:#ed1b2d;fill-rule:nonzero;"/><path d="M13.452,13.33c0.008,-0.054 0.016,-0.106 0.025,-0.153c0.081,-0.021 0.155,-0.047 0.221,-0.08c0.265,0.234 0.665,0.724 0.916,0.849c0.047,0.024 0.142,0.012 0.237,-0.077c0.094,-0.088 0.45,-0.225 0.568,-0.16c0.019,0.011 0.035,0.025 0.048,0.041c0.023,-0.006 0.053,-0.005 0.088,0.007c0.178,0.059 0.255,0.266 0.189,0.468c-0.053,-0.213 -0.23,-0.154 -0.309,-0.208c-0.008,0.009 -0.018,0.017 -0.028,0.024c-0.118,0.083 -0.225,0.095 -0.314,0.095c-0.088,0 -0.178,0.027 -0.047,0.106c0.195,0.119 0.352,0.075 0.402,0.184c0.003,0.007 0.006,0.014 0.009,0.021c0.012,0.005 0.026,0.011 0.039,0.02c0.148,0.095 0.047,0.497 -0.172,0.545c0.046,-0.191 -0.014,-0.247 -0.055,-0.303c-0.02,0.002 -0.041,0.003 -0.063,0.001c-0.231,-0.018 -0.142,-0.231 -0.409,-0.474c-0.148,0.225 0.05,0.372 -0.059,0.462c-0.006,0.005 -0.013,0.01 -0.019,0.014c0,0.001 0.001,0.003 0.001,0.004c0.051,0.167 -0.248,0.349 -0.467,0.183c0.195,-0.044 0.109,-0.17 0.165,-0.252c-0.007,-0.01 -0.012,-0.021 -0.017,-0.032c-0.083,-0.207 0.155,-0.312 0.071,-0.467c-0.083,-0.154 -0.196,-0.083 -0.231,-0.172c-0.219,0.077 -0.119,0.249 -0.231,0.308c-0.015,0.008 -0.031,0.014 -0.047,0.018c0,0.002 0,0.003 0,0.005c-0.006,0.142 -0.154,0.16 -0.101,0.29c-0.142,-0.059 -0.231,-0.29 -0.154,-0.39c0.008,-0.011 0.018,-0.02 0.028,-0.027c-0.002,-0.01 -0.004,-0.021 -0.004,-0.032c-0.006,-0.154 0.148,-0.261 0.248,-0.296c-0.148,-0.148 -0.428,-0.421 -0.528,-0.522Z" style="fill:#ed1b2d;fill-rule:nonzero;"/><path d="M11.914,8.357c-0.012,-0.05 -0.035,-0.097 -0.088,-0.134c-0.154,-0.107 -0.379,-0.131 -0.48,0.082c-0.065,-0.266 -0.023,-0.52 0.178,-0.609c0.201,-0.089 0.278,0.011 0.408,0.148c0.237,0.248 0.305,0.512 0.311,0.719c0.004,0.136 0.056,0.257 0.133,0.329c-0.343,-0.107 -0.757,0.213 -0.97,-0.196c0.123,0.043 0.208,0.014 0.284,-0.025c-0.307,-0.024 -0.572,-0.219 -0.663,-0.384c0.52,0.188 0.671,0.045 0.887,0.07Z" style="fill:#ed1b2d;fill-rule:nonzero;"/><circle cx="12" cy="12.054" r="11.25" style="fill:none;stroke:#515151;stroke-width:0.75px;"/></svg>