<?xml version="1.0" encoding="utf-8"?>
<!-- Svg Vector Icons : http://www.onlinewebfonts.com/icon -->
<!DOCTYPE svg PUBLIC "-//W3C//DTD SVG 1.1//EN" "http://www.w3.org/Graphics/SVG/1.1/DTD/svg11.dtd">
<svg version="1.1" xmlns="http://www.w3.org/2000/svg" xmlns:xlink="http://www.w3.org/1999/xlink" x="0px" y="0px" viewBox="0 0 1250 1250" enable-background="new 0 0 1250 1250" xml:space="preserve">
<g><path d="M500,10C229.4,10,10,229.4,10,500s219.4,490,490,490s490-219.4,490-490S770.6,10,500,10z M500,955C248.7,955,45,751.3,45,500C45,248.7,248.7,45,500,45c251.3,0,455,203.7,455,455C955,751.3,751.3,955,500,955z"/><path d="M270.1,411.3l243.1,243.1c7.3,7.4,7.3,19.3,0,26.6c-7.4,7.4-19.3,7.4-26.7,0L243.4,437.9c-7.4-7.4-7.4-19.3,0-26.6C250.8,403.9,262.7,403.9,270.1,411.3z"/><path d="M729.9,411.3L486.8,654.4c-7.4,7.4-7.4,19.3,0,26.6c7.4,7.4,19.3,7.4,26.7,0l243.1-243.1c7.4-7.4,7.4-19.3,0-26.6C749.2,403.9,737.3,403.9,729.9,411.3z"/></g>
</svg>
