<?xml version="1.0" encoding="UTF-8" standalone="no"?><!DOCTYPE svg PUBLIC "-//W3C//DTD SVG 1.1//EN" "http://www.w3.org/Graphics/SVG/1.1/DTD/svg11.dtd"><svg width="100%" height="100%" viewBox="0 0 24 25" version="1.1" xmlns="http://www.w3.org/2000/svg" xmlns:xlink="http://www.w3.org/1999/xlink" xml:space="preserve" xmlns:serif="http://www.serif.com/" style="fill-rule:evenodd;clip-rule:evenodd;stroke-linecap:square;stroke-miterlimit:1.5;"><path d="M12.273,1.163c6.077,0.114 10.977,5.1 10.977,11.222c0,6.122 -4.9,11.108 -10.977,11.222l0,-22.444Z" style="fill:#fff;"/><path d="M12,1.135l0.272,0.027l0,22.446l-0.272,0.027c-6.209,0 -11.25,-5.041 -11.25,-11.25c0,-6.181 4.996,-11.205 11.25,-11.25Z" style="fill:#6ea295;"/><path d="M17.032,15.348c-0.989,1.581 -2.747,2.63 -4.748,2.63c-3.089,0 -5.593,-2.504 -5.593,-5.593c0,-3.088 2.504,-5.592 5.593,-5.592c2.001,0 3.759,1.049 4.748,2.63c-0.779,-0.809 -1.87,-1.314 -3.08,-1.314c-2.362,0 -4.277,1.914 -4.277,4.276c0,2.362 1.915,4.277 4.277,4.277c1.21,0 2.301,-0.505 3.08,-1.314Zm-1.603,-5.579l-1.162,1.622l-1.914,-0.614l1.194,1.624l-1.177,1.616l1.899,-0.63l1.179,1.617l-0.005,-2.011l1.9,-0.607l-1.907,-0.612l-0.007,-2.005Z" style="fill:#ce1041;fill-rule:nonzero;"/><circle cx="12" cy="12.385" r="11.25" style="fill:none;stroke:#515151;stroke-width:0.75px;"/></svg>