<?xml version="1.0" encoding="UTF-8" standalone="no"?><!DOCTYPE svg PUBLIC "-//W3C//DTD SVG 1.1//EN" "http://www.w3.org/Graphics/SVG/1.1/DTD/svg11.dtd"><svg width="100%" height="100%" viewBox="0 0 24 25" version="1.1" xmlns="http://www.w3.org/2000/svg" xmlns:xlink="http://www.w3.org/1999/xlink" xml:space="preserve" xmlns:serif="http://www.serif.com/" style="fill-rule:evenodd;clip-rule:evenodd;stroke-linecap:square;stroke-miterlimit:1.5;"><path d="M21.688,17.76c-1.9,3.367 -5.532,5.625 -9.688,5.625c-4.156,0 -7.788,-2.258 -9.688,-5.625l19.376,0Z" style="fill:#ed174c;"/><path d="M23.25,12.135c-0.015,2.068 -0.574,3.999 -1.562,5.625l-19.376,0c-1.011,-1.646 -1.562,-3.572 -1.562,-5.625l22.5,0Z" style="fill:#007ac2;"/><path d="M12,0.885c6.226,0.045 11.205,5.024 11.25,11.25l-22.5,0c0,-6.181 4.996,-11.205 11.25,-11.25Z" style="fill:#ffe766;"/><circle cx="12" cy="12.135" r="11.25" style="fill:none;stroke:#515151;stroke-width:0.75px;"/><g id="Layer-1" serif:id="Layer 1"></g><g id="Layer-11" serif:id="Layer 1"><path d="M10.217,7.731l-1.76,0.83l2.966,0.764l-0.442,0.986l0.894,-0.313l0.239,-0.424l0.074,0.479l0.184,-0.028l0,-0.433l0.129,-0.248l1.419,-0.562l1.612,-0.258l-1.502,-0.636l-1.252,-0.074l-0.212,0.406l-0.378,0.064l-0.369,-0.018l-0.377,0.055l-0.175,-0.055l-0.166,-0.47l-0.884,-0.065Z" style="fill:#452c25;fill-rule:nonzero;"/><path d="M8.273,10.537l0.195,0.161l-0.223,0l0.056,0.249l0.313,0.073l-0.056,-0.248l0.29,0l0,-0.378l-0.299,0.064l0,-0.221l-0.46,-0.184l0.184,0.484Z" style="fill:#a6a8ab;fill-rule:nonzero;"/><path d="M8.982,9.279l0.338,0.135l0,0.162l0.219,-0.047l0,0.277l-0.212,0l0.04,0.182l-0.229,-0.054l-0.041,-0.182l0.163,0l-0.143,-0.118l-0.135,-0.355Z" style="fill:#a6a8ab;fill-rule:nonzero;"/><path d="M15.038,9.279l-0.338,0.135l0,0.162l-0.218,-0.047l0,0.277l0.212,0l-0.041,0.182l0.23,-0.054l0.04,-0.182l-0.163,0l0.143,-0.118l0.135,-0.355Z" style="fill:#a6a8ab;fill-rule:nonzero;"/><path d="M15.451,10.237l0,0.221l-0.299,-0.064l0,0.378l0.29,0l-0.056,0.248l0.313,-0.073l0.056,-0.249l-0.223,0l0.195,-0.161l0.184,-0.484l-0.46,0.184Z" style="fill:#a6a8ab;fill-rule:nonzero;"/><path d="M9.864,11.868l0.367,0.276c0,0 -0.199,2.542 1.763,2.542c1.963,0 1.695,-2.45 1.695,-2.45l0.423,-0.313c0,0 0.628,1.87 -0.137,2.487c-0.765,0.617 -1.4,0.737 -2.128,0.682c-0.728,-0.055 -1.253,0.064 -1.667,-0.498c-0.415,-0.561 -0.507,-1.538 -0.488,-2.132c0.018,-0.594 0.172,-0.594 0.172,-0.594" style="fill:#f01823;fill-rule:nonzero;"/><path d="M9.516,11.508l0.348,0.415c0,0 -0.108,2.045 0.491,2.552c0.599,0.506 0.672,0.479 0.672,0.479l0,0.294c0,0 -1.326,-0.009 -1.511,-0.608c-0.184,-0.598 0,-3.132 0,-3.132" style="fill:#004d9f;fill-rule:nonzero;"/><path d="M14.459,11.508l-0.347,0.415c0,0 0.108,2.045 -0.491,2.552c-0.599,0.506 -0.673,0.479 -0.673,0.479l0,0.294c0,0 1.327,-0.009 1.511,-0.608c0.184,-0.598 0,-3.132 0,-3.132" style="fill:#004d9f;fill-rule:nonzero;"/><rect x="10.797" y="14.686" width="2.414" height="0.949" style="fill:#754c28;"/><path d="M8.918,10.873c0,0 -0.12,2.773 -0.046,3.537c0.073,0.765 0.451,1.281 1.105,1.336c0.654,0.055 0.903,-0.369 0.903,-0.369l0,-0.211c0,0 -0.967,0.041 -1.188,-0.783c-0.231,-0.86 -0.176,-2.875 -0.176,-2.875l-0.598,-0.635Z" style="fill:#ffdd35;fill-rule:nonzero;"/><path d="M15.173,10.873c0,0 0.119,2.773 0.046,3.537c-0.074,0.765 -0.452,1.281 -1.106,1.336c-0.654,0.055 -0.903,-0.369 -0.903,-0.369l0,-0.211c0,0 0.968,0.041 1.189,-0.783c0.23,-0.86 0.175,-2.875 0.175,-2.875l0.599,-0.635Z" style="fill:#ffdd35;fill-rule:nonzero;"/><path d="M9.435,11.508l0.104,-0.792l0.208,0.194l-0.156,-0.765l0.386,0.322l0.525,-0.672l-0.175,0.571l0.553,-0.258l-0.498,0.544l-0.055,0.368l-0.359,0.277l0.009,0.921l-0.542,-0.71Z" style="fill:#008f15;fill-rule:nonzero;"/><path d="M14.562,11.508l-0.104,-0.792l-0.208,0.194l0.156,-0.765l-0.386,0.322l-0.525,-0.672l0.175,0.571l-0.553,-0.258l0.497,0.544l0.056,0.368l0.359,0.277l-0.009,0.921l0.542,-0.71Z" style="fill:#008f15;fill-rule:nonzero;"/><path d="M13.689,12.397c0,1.264 -0.767,2.289 -1.713,2.289c-0.946,0 -1.713,-1.025 -1.713,-2.289c0,-1.264 0.767,-2.289 1.713,-2.289c0.946,0 1.713,1.025 1.713,2.289" style="fill:#47d4ff;fill-rule:nonzero;"/><path d="M11.976,10.219c-0.884,0 -1.603,0.977 -1.603,2.178c0,1.202 0.719,2.179 1.603,2.179c0.884,0 1.603,-0.977 1.603,-2.179c0,-1.201 -0.719,-2.178 -1.603,-2.178m0,4.578c-1.006,0 -1.824,-1.077 -1.824,-2.4c0,-1.323 0.818,-2.399 1.824,-2.399c1.006,0 1.824,1.076 1.824,2.399c0,1.323 -0.818,2.4 -1.824,2.4" style="fill:#754c28;fill-rule:nonzero;"/><path d="M12.57,10.963c0,0.235 -0.191,0.426 -0.426,0.426c-0.235,0 -0.426,-0.191 -0.426,-0.426c0,-0.236 0.191,-0.426 0.426,-0.426c0.235,0 0.426,0.19 0.426,0.426" style="fill:#ffdd35;fill-rule:nonzero;"/><path d="M11.23,15.387l-0.553,1.004l0.783,0.055l0.258,-1.004l-0.488,-0.055Z" style="fill:#ffdd35;fill-rule:nonzero;"/><path d="M12.746,15.387l0.552,1.004l-0.783,0.055l-0.257,-1.004l0.488,-0.055Z" style="fill:#ffdd35;fill-rule:nonzero;"/><path d="M11.875,15.248l-0.277,1.861l0.378,-0.147l0.369,0.147l-0.201,-1.686l-0.269,-0.175Z" style="fill:#f01823;fill-rule:nonzero;"/><path d="M8.398,15.853l1.253,-1.12l0.068,0.076l-1.254,1.12l-0.067,-0.076Z" style="fill:#929497;"/><path d="M9.203,16.628l1.254,-1.12l0.067,0.076l-1.253,1.12l-0.068,-0.076Z" style="fill:#929497;"/><path d="M15.533,15.929l-1.254,-1.12l0.068,-0.076l1.253,1.12l-0.067,0.076Z" style="fill:#929497;"/><path d="M14.727,16.704l-1.253,-1.12l0.067,-0.076l1.254,1.12l-0.068,0.076Z" style="fill:#929497;"/></g></svg>