<?xml version="1.0" encoding="UTF-8" standalone="no"?><!DOCTYPE svg PUBLIC "-//W3C//DTD SVG 1.1//EN" "http://www.w3.org/Graphics/SVG/1.1/DTD/svg11.dtd"><svg width="100%" height="100%" viewBox="0 0 24 25" version="1.1" xmlns="http://www.w3.org/2000/svg" xmlns:xlink="http://www.w3.org/1999/xlink" xml:space="preserve" xmlns:serif="http://www.serif.com/" style="fill-rule:evenodd;clip-rule:evenodd;stroke-linecap:square;stroke-miterlimit:1.5;"><path d="M12,1.135c4.911,0.035 9.046,3.14 10.56,7.5l-21.12,0c1.481,-4.337 5.612,-7.463 10.56,-7.5Z" style="fill:#ed1c24;"/><path d="M22.56,8.635c0.465,1.181 0.69,2.439 0.69,3.75c0,1.311 -0.225,2.569 -0.69,3.75l-21.12,0c-0.465,-1.181 -0.69,-2.439 -0.69,-3.75c0,-1.311 0.225,-2.569 0.69,-3.75l21.12,0Z" style="fill:#fff;"/><path d="M22.56,16.135c-1.49,4.362 -5.662,7.5 -10.56,7.5c-4.898,0 -9.07,-3.138 -10.56,-7.5l21.12,0Z" style="fill:#231f20;"/><circle cx="12" cy="12.385" r="11.25" style="fill:none;stroke:#515151;stroke-width:0.75px;"/><g><path d="M11.325,9.889l0.205,-0.28l0.245,0.087l0.231,-0.087l0.448,0.315l0.094,0.886l1.284,-0.406l0.312,2.999l-1.294,-0.846l0.297,1.343l-1.016,0.269l-1.126,-0.208l0.24,-1.45l-1.176,0.719l0.36,-2.889l1.076,0.469l0.22,-0.549l-0.026,-0.226l-0.374,-0.146Z" style="fill:#ffd047;"/><path d="M11.945,11.003l-0.862,0.256c0,0 -0.004,0.908 0.215,1.193c0.219,0.284 0.708,0.484 0.708,0.484c0,0 0.591,-0.137 0.751,-0.664c0.161,-0.528 0.16,-1.05 0.16,-1.05l-0.972,-0.219Z" style="fill:#fff;"/><path d="M12.212,11.222l0.01,1.443c0,0 0.307,-0.377 0.379,-0.812c0.071,-0.436 -0.389,-0.631 -0.389,-0.631Z"/><path d="M9.324,14.264l0.662,-0.199c0,0 1.148,0.379 2.008,0.379c0.861,0 2.107,-0.326 2.107,-0.326l0.574,0.163l-0.236,0.677c0,0 -1.473,0.433 -2.419,0.433c-0.945,0 -2.346,-0.442 -2.346,-0.442l-0.35,-0.685Z" style="fill:#ffd047;"/></g></svg>