<?xml version="1.0" encoding="UTF-8" standalone="no"?><!DOCTYPE svg PUBLIC "-//W3C//DTD SVG 1.1//EN" "http://www.w3.org/Graphics/SVG/1.1/DTD/svg11.dtd"><svg width="100%" height="100%" viewBox="0 0 24 24" version="1.1" xmlns="http://www.w3.org/2000/svg" xmlns:xlink="http://www.w3.org/1999/xlink" xml:space="preserve" xmlns:serif="http://www.serif.com/" style="fill-rule:evenodd;clip-rule:evenodd;stroke-linecap:square;stroke-miterlimit:1.5;"><path d="M21.688,17.679c-1.885,3.34 -5.475,5.589 -9.688,5.625c-4.165,-0.03 -7.772,-2.268 -9.688,-5.625l19.376,0Z" style="fill:#ed1b2d;"/><path d="M2.312,6.429c1.9,-3.367 5.532,-5.625 9.688,-5.625c4.156,0 7.788,2.258 9.688,5.625l-19.376,0Z" style="fill:#ed1b2d;"/><path d="M21.688,17.679l-19.376,0c-1.011,-1.646 -1.562,-3.572 -1.562,-5.625c0,-2.053 0.551,-3.979 1.562,-5.625l19.376,0c1.011,1.646 1.562,3.572 1.562,5.625c0,2.024 -0.536,3.925 -1.562,5.625Z" style="fill:#ecb800;"/><ellipse cx="12.4" cy="9.811" rx="2.326" ry="0.845" style="fill:#ed1b2d;"/><path d="M13.985,10.168c0.275,0.036 0.259,0.666 0.014,0.72c-1.065,0.14 -2.148,0.049 -3.221,0.002c-0.275,-0.036 -0.259,-0.665 -0.014,-0.72c1.065,-0.14 2.148,-0.049 3.221,-0.002Zm-3.032,0.321l2.858,0c-0.953,0 -1.906,0 -2.858,0Z" style="fill:#ffd047;fill-rule:nonzero;"/><path d="M12.223,8.257c-0.046,-0.068 -0.075,-0.164 -0.075,-0.27c0,-0.206 0.109,-0.374 0.243,-0.374c0.133,0 0.242,0.168 0.242,0.374c0,0.084 -0.018,0.16 -0.048,0.223c0.111,-0.032 0.23,-0.047 0.351,-0.045c0.277,0.017 0.561,0.156 0.724,0.365c0.112,-0.033 0.233,-0.048 0.356,-0.046c0.51,0.031 1.046,0.479 0.798,1.012c-0.261,0.56 -1.353,0.517 -1.692,0.077c-0.26,0.042 -0.55,0.007 -0.777,-0.095c-0.227,0.113 -0.527,0.138 -0.797,0.087c-0.453,0.699 -2.349,0.274 -1.567,-0.738c0.181,-0.234 0.487,-0.349 0.807,-0.343c0.082,0.005 0.164,0.021 0.244,0.046c0.006,-0.008 0.011,-0.015 0.017,-0.022c0.18,-0.234 0.487,-0.349 0.807,-0.343c0.125,0.007 0.251,0.04 0.367,0.092Zm1.255,1.192c0.37,0.331 1.714,-0.143 0.809,-0.576c-0.107,-0.051 -0.155,-0.072 -0.348,-0.068c-0.049,0.003 -0.099,0.01 -0.148,0.022c0.016,0.109 0,0.227 -0.057,0.35c-0.054,0.116 -0.144,0.206 -0.256,0.272Zm-2.593,-0.637c-0.044,-0.007 -0.097,-0.009 -0.174,-0.007c-0.247,0.014 -0.516,0.142 -0.547,0.383c-0.059,0.455 0.648,0.437 1.005,0.241c-0.228,-0.133 -0.364,-0.344 -0.284,-0.617Zm2.5,-0.152c-0.045,-0.035 -0.104,-0.071 -0.178,-0.106c-0.107,-0.051 -0.155,-0.072 -0.348,-0.068c-0.09,0.005 -0.183,0.025 -0.267,0.061c0.128,0.174 0.172,0.393 0.062,0.63c-0.008,0.018 -0.018,0.035 -0.028,0.052c0.123,0.021 0.266,0.014 0.401,-0.015c0.016,-0.117 0.073,-0.246 0.182,-0.387c0.05,-0.065 0.109,-0.12 0.176,-0.167Zm-1.282,-0.117c-0.092,-0.043 -0.146,-0.061 -0.324,-0.057c-0.168,0.01 -0.347,0.072 -0.454,0.187c0.194,0.137 0.329,0.337 0.324,0.567c0.115,0.006 0.241,-0.01 0.357,-0.04c-0.1,-0.171 -0.093,-0.394 0.097,-0.657Zm-0.87,0.432c0.014,0.085 0.063,0.148 0.133,0.19c-0.007,-0.06 -0.048,-0.125 -0.133,-0.19Zm1.136,-0.256c-0.03,0.044 -0.05,0.094 -0.057,0.15c-0.009,0.069 -0.001,0.127 0.022,0.175c0.108,-0.091 0.143,-0.206 0.035,-0.325Z" style="fill:#8d5e07;fill-rule:nonzero;"/><circle cx="12" cy="12.054" r="11.25" style="fill:none;stroke:#515151;stroke-width:0.75px;"/><path d="M14.652,10.963l-4.555,0c0,0 0,2.266 0,3.915c0,0.446 0.177,0.874 0.493,1.19c0.316,0.316 0.744,0.493 1.19,0.493c0.465,0 0.966,0 1.417,0c0.804,0 1.455,-0.651 1.455,-1.455c0,-1.659 0,-4.143 0,-4.143Z" style="fill:#ed1b2d;"/><rect x="12.738" y="11.062" width="1.792" height="1.878" style="fill:#ebebeb;"/><rect x="10.749" y="11.344" width="0.749" height="1.497" style="fill:#ecb800;"/><path d="M13.805,11.221l-0.233,0.405l-0.429,-0.209l0.196,0.283l-0.393,0.073l0.503,0.319l-0.392,0.7l0.282,-0.025l0.294,-0.343l0,0.331l0.27,0.086l0.025,-0.442l0.417,-0.307l-0.491,0.123l0.049,-0.405l0.172,-0.515l-0.27,-0.074Z" style="fill:#d31145;"/><path d="M14.198,13.602c0.363,0.038 0.183,1.731 0.064,1.892c-0.248,0.29 -0.519,0.716 -0.729,0.653c-1.082,-0.411 -0.789,-1.286 -0.746,-2.02c0.034,-0.264 0.842,-0.543 1.411,-0.525Zm-1.085,0.657l0.074,1.394l0.356,0.15l0.435,-0.474l0.042,-1.348c-0.303,0.093 -0.605,0.185 -0.907,0.278Z" style="fill:#ecb800;fill-rule:nonzero;"/><path d="M10.674,13.762c0.483,0.048 -0.096,2.684 -0.171,1.926c-0.026,-0.809 -0.173,-1.937 0.171,-1.926Z" style="fill:#ecb800;fill-rule:nonzero;"/><path d="M11.226,13.762c0.458,0.045 -0.086,2.778 -0.17,1.926c-0.027,-0.809 -0.174,-1.937 0.17,-1.926Z" style="fill:#ecb800;fill-rule:nonzero;"/><path d="M12.036,13.762c0.483,0.048 -0.096,2.684 -0.17,1.926c-0.027,-0.809 -0.174,-1.937 0.17,-1.926Z" style="fill:#ecb800;fill-rule:nonzero;"/><rect x="8.499" y="10.963" width="0.933" height="5.528" style="fill:#908a9f;"/><rect x="15.357" y="10.963" width="0.933" height="5.528" style="fill:#908a9f;"/><ellipse cx="8.966" cy="10.658" rx="0.608" ry="0.563" style="fill:#333;"/><ellipse cx="15.823" cy="10.658" rx="0.608" ry="0.563" style="fill:#333;"/><path d="M10.255,12.51c0.205,0.021 0.003,0.32 0.003,0.32l-1.569,0.127c0.512,0.252 1.276,0.533 1.056,0.76c-0.808,0.721 -2.201,1.267 -1.752,0.864l1.33,-0.954c-0.723,-0.356 -1.649,-0.836 -1.263,-0.939c0.72,-0.138 1.462,-0.199 2.195,-0.178Z" style="fill:#ed1b2d;fill-rule:nonzero;"/><path d="M14.631,12.51c1.141,0.092 2.738,0.192 2.207,0.478l-1.298,0.639c0.808,0.579 1.628,1.486 1.144,1.214c-0.795,-0.527 -1.914,-1.176 -1.526,-1.384l1.016,-0.5c-0.714,-0.058 -1.558,-0.012 -1.687,-0.195c-0.075,-0.106 0.007,-0.258 0.144,-0.252Z" style="fill:#ed1b2d;fill-rule:nonzero;"/></svg>