<?xml version="1.0" encoding="UTF-8" standalone="no"?><!DOCTYPE svg PUBLIC "-//W3C//DTD SVG 1.1//EN" "http://www.w3.org/Graphics/SVG/1.1/DTD/svg11.dtd"><svg width="100%" height="100%" viewBox="0 0 24 24" version="1.1" xmlns="http://www.w3.org/2000/svg" xmlns:xlink="http://www.w3.org/1999/xlink" xml:space="preserve" xmlns:serif="http://www.serif.com/" style="fill-rule:evenodd;clip-rule:evenodd;stroke-linecap:square;stroke-miterlimit:1.5;"><path d="M7.692,1.667c1.323,-0.558 2.78,-0.863 4.308,-0.863c2.053,0 3.979,0.551 5.634,1.567l0,19.366c-1.632,1.001 -3.527,1.551 -5.634,1.567l-2.266,-0.229l-2.042,-0.634l0,-20.774Z" style="fill:#fff;"/><path d="M7.692,1.667l0,20.774c-4.077,-1.689 -6.942,-5.706 -6.942,-10.387c0,-4.681 2.865,-8.698 6.942,-10.387Z" style="fill:#303996;"/><path d="M17.634,2.371c3.358,1.895 5.616,5.527 5.616,9.683c0,4.156 -2.258,7.788 -5.616,9.683l0,-19.366Z" style="fill:#ed1c24;"/><circle cx="12" cy="12.054" r="11.25" style="fill:none;stroke:#515151;stroke-width:0.75px;"/></svg>