<?xml version="1.0" encoding="UTF-8" standalone="no"?><!DOCTYPE svg PUBLIC "-//W3C//DTD SVG 1.1//EN" "http://www.w3.org/Graphics/SVG/1.1/DTD/svg11.dtd"><svg width="100%" height="100%" viewBox="0 0 24 25" version="1.1" xmlns="http://www.w3.org/2000/svg" xmlns:xlink="http://www.w3.org/1999/xlink" xml:space="preserve" xmlns:serif="http://www.serif.com/" style="fill-rule:evenodd;clip-rule:evenodd;stroke-linecap:square;stroke-miterlimit:1.5;"><circle cx="12" cy="12.473" r="11.25" style="fill:#fff;"/><path d="M8.461,23.099c-2.008,-0.642 -3.765,-1.845 -5.071,-3.468l5.071,-2.528l0,5.996Z" style="fill:#003876;"/><path d="M20.726,19.49c-1.234,1.572 -2.872,2.788 -4.787,3.484l0,-5.871l4.787,2.387Z" style="fill:#003876;"/><path d="M15.939,1.972c1.905,0.699 3.563,1.903 4.787,3.484l-4.787,2.386l0,-5.87Z" style="fill:#003876;"/><path d="M8.461,7.842l-5.071,-2.527c1.312,-1.624 3.071,-2.857 5.071,-3.468l0,5.995Z" style="fill:#003876;"/><path d="M10.054,1.419l1.946,-0.196c0.836,0 1.652,0.091 2.448,0.285l0,8.769l8.58,0l0.222,2.196l-0.222,2.198l-8.58,0l0,8.767c-0.796,0.194 -1.612,0.285 -2.448,0.285l-1.946,-0.196l0,-8.856l-9.082,0l-0.222,-2.198l0.222,-2.196l9.082,0l0,-8.858Z" style="fill:#e1393e;"/><path d="M2.032,17.583l2.718,-1.359l3.592,0l-5.496,2.747l-0.174,-0.21l-0.64,-1.178Z" style="fill:#e1393e;"/><path d="M22.365,16.85l-0.295,0.544l-2.333,-1.17l2.823,0l-0.195,0.626Z" style="fill:#e1393e;"/><path d="M21.328,6.185l0.746,1.375l-2.322,1.166l-3.591,0l5.142,-2.571l0.025,0.03Z" style="fill:#e1393e;"/><path d="M4.781,8.726l-3.342,0l0.196,-0.63l0.401,-0.74l2.745,1.37Z" style="fill:#e1393e;"/><circle cx="12" cy="12.473" r="11.25" style="fill:none;stroke:#515151;stroke-width:0.75px;"/></svg>