<?xml version="1.0" encoding="utf-8"?>
<!-- Generator: Adobe Illustrator 16.0.0, SVG Export Plug-In . SVG Version: 6.00 Build 0)  -->
<!DOCTYPE svg PUBLIC "-//W3C//DTD SVG 1.1//EN" "http://www.w3.org/Graphics/SVG/1.1/DTD/svg11.dtd">
<svg version="1.1" id="Layer_1" xmlns="http://www.w3.org/2000/svg" xmlns:xlink="http://www.w3.org/1999/xlink" x="0px" y="0px"
	 width="120px" height="120px" viewBox="300 0 120 120" enable-background="new 300 0 120 120" xml:space="preserve">
<g>
	<circle fill="#FFFFFF" cx="360" cy="60" r="60"/>
	<path d="M420,60c0-12.038-3.545-23.248-9.648-32.643c0,0-3.422,5-2.779,8.214s4.419,3.459,4.031,5.817s-3.174-0.675-6.604,5.539
		c-3.428,6.214-1.713,14.789,3.215,15.429C413.143,63,420,60,420,60z"/>
	<path d="M375.757,2.091c6.983,1.896,13.462,5.021,19.186,9.129c0,0-6.958-1.147-9.593,1.209c-2.635,2.357-6.479,7.929-9.593,0
		C372.644,4.5,375.757,2.091,375.757,2.091z"/>
	<path d="M314.887,20.442C325.884,7.911,342.018,0,360,0c0,0-4.071,2.465,3.644,6.643c7.714,4.179,4.179,6.107,2.571,7.393
		c-1.607,1.286-4.395-2.571-6.215-5.143c-1.821-2.572-9.64-6.536-15.641-4.392c-6,2.143-11.142,3.727-10.286,5.721
		c0.856,1.994,11.142-1.862,14.999-1.649c3.857,0.214,2.571,2.57-1.071,5.356c-3.643,2.786-4.072,6.214-0.215,8.357
		c3.857,2.144,8.57,2.358,9.643,1.072c1.072-1.286-1.929-9.643,5.357-6c7.286,3.643,13.287,5.787,7.286,11.144
		c-6.001,5.356-12.857,11.358-13.072,14.785c-0.214,3.428,2.144,6.216,0.858,6.429c-1.286,0.213-2.466-1.393-3.322-2.572
		c-0.856-1.179-4.821-1.607-6.75-0.857c-1.929,0.749-5.572,3.642-3.536,6.428c2.037,2.787,4.82,1.499,7.606,2.785
		c2.786,1.286,5.384,6.179,4.851,7.285c-0.534,1.105-2.908-0.294-4.851-4.07c-1.943-3.777-5.586-1.286-8.15-1.929
		c-2.564-0.643-4.493-1.071-7.064-5.571c-2.572-4.5-7.896-5.759-10.071-8.357c-6.231-7.441-5.786-13.071-7.071-15.643
		C318.216,24.644,314.887,20.442,314.887,20.442z"/>
	<path d="M365.785,60.857c0,0,6.43,0.642,9.643,3.428c3.215,2.787,3.645,3.858,8.572,4.93c4.928,1.07,7.072,3.855,3.857,9.213
		s-9.001,13.93-11.786,16.501c-2.784,2.571-6.214,4.714-7.499,9c-1.286,4.285-1.715,6.854,1.07,8.571c0,0-1.498,3.643-4.928-1.072
		s-0.643-10.285,0-13.5c0.643-3.213,2.357-12.855,1.285-15.214c-1.07-2.357-6-3.858-7.286-8.786
		C357.428,69,359.679,59.41,365.785,60.857z"/>
	<path display="none" opacity="0.6" fill="#253744" enable-background="new    " d="M317.573,17.574
		c23.432-23.432,61.421-23.432,84.853,0c23.433,23.431,23.433,61.421,0,84.853c0,0,27.223-35.998-11.318-74.539
		C352.566-10.653,317.573,17.574,317.573,17.574z"/>
</g>
</svg>
