<?xml version="1.0" encoding="UTF-8" standalone="no"?><!DOCTYPE svg PUBLIC "-//W3C//DTD SVG 1.1//EN" "http://www.w3.org/Graphics/SVG/1.1/DTD/svg11.dtd"><svg width="100%" height="100%" viewBox="0 0 24 25" version="1.1" xmlns="http://www.w3.org/2000/svg" xmlns:xlink="http://www.w3.org/1999/xlink" xml:space="preserve" xmlns:serif="http://www.serif.com/" style="fill-rule:evenodd;clip-rule:evenodd;stroke-linecap:square;stroke-miterlimit:1.5;"><circle cx="12" cy="12.473" r="11.25" style="fill:#007cc2;"/><path id="bandera-grecia" d="M21.353,18.723c-0.632,0.944 -1.404,1.787 -2.285,2.5l-14.136,0c-0.881,-0.713 -1.653,-1.556 -2.285,-2.5l18.706,0Zm1.256,-10c0.282,0.796 0.476,1.633 0.572,2.5l-9.941,0l0,-2.5l9.369,0Zm-9.369,-2.5l0,2.5l-5.029,0l0,4.994l14.971,0c-0.096,0.869 -0.291,1.708 -0.573,2.506l-21.218,0c-0.282,-0.798 -0.477,-1.637 -0.573,-2.506l4.893,0l0,-4.994l-4.32,0c0.315,-0.89 0.739,-1.729 1.256,-2.5l3.064,0l0,-3.077c0.771,-0.521 1.609,-0.949 2.5,-1.268l0,4.345l5.029,0l0,-2.5l5.828,0c0.881,0.713 1.653,1.556 2.285,2.5l-8.113,0Z" style="fill:#fff;"/><circle cx="12" cy="12.473" r="11.25" style="fill:none;stroke:#515151;stroke-width:0.75px;"/></svg>