<?xml version="1.0" encoding="UTF-8" standalone="no"?><!DOCTYPE svg PUBLIC "-//W3C//DTD SVG 1.1//EN" "http://www.w3.org/Graphics/SVG/1.1/DTD/svg11.dtd"><svg width="100%" height="100%" viewBox="0 0 24 25" version="1.1" xmlns="http://www.w3.org/2000/svg" xmlns:xlink="http://www.w3.org/1999/xlink" xml:space="preserve" xmlns:serif="http://www.serif.com/" style="fill-rule:evenodd;clip-rule:evenodd;stroke-linecap:square;stroke-miterlimit:1.5;"><path d="M22.552,8.61c0.465,1.162 0.698,2.441 0.698,3.775c0,1.364 -0.243,2.672 -0.726,3.866l-21.048,0c-0.483,-1.194 -0.726,-2.502 -0.726,-3.866c0,-1.334 0.233,-2.613 0.698,-3.775l21.104,0Z" style="fill:#fff;"/><path d="M22.524,16.252c-1.546,4.314 -5.679,7.383 -10.524,7.383c-4.845,0 -8.978,-3.069 -10.524,-7.383l21.048,0Z" style="fill:#0073bd;"/><path d="M12,1.135c4.911,0.035 9.046,3.14 10.552,7.475l-21.104,0c1.512,-4.341 5.627,-7.438 10.552,-7.475Z" style="fill:#ed1c24;"/><path d="M7.842,14.092l0.141,1.196l0.25,0.457l0.124,0.166l1.205,0l0,-1.819l-1.72,0Z" style="fill:#fff;fill-rule:nonzero;"/><path d="M14.723,17.282l0,-1.367l1.317,-0.004l-0.665,0.831l-0.652,0.54Zm-5.161,-3.19l1.719,0l0,1.819l-1.719,0l0,1.364l-0.499,-0.326l-0.374,-0.415l-0.332,-0.623l1.205,0l0,-1.819Zm1.719,3.97l0,-2.151l1.719,0l0,-1.819l1.719,0l0,1.819l-1.719,0l0,2.151l-1.719,0Zm0,-5.789l1.719,0l0,1.819l-1.719,0l0,-1.819Zm3.438,0l1.719,0l0,1.819l-1.719,0l0,-1.819Zm-6.877,0l1.719,0l0,1.819l-1.719,0l0,-1.819Zm3.439,-1.819l0,1.819l-1.719,0l0,-1.819l1.719,0Zm3.438,0l0,1.819l-1.719,0l0,-1.819l1.719,0Zm-3.438,-1.819l1.719,0l0,1.819l-1.719,0l0,-1.819Zm3.438,0l1.719,0l0,1.819l-1.719,0l0,-1.819Zm-6.877,0l1.719,0l0,1.819l-1.719,0l0,-1.819Z" style="fill:#ed1c24;"/><path d="M14.723,7.971l0.486,-2.317l1.682,-0.561l0.436,1.682l-1.087,1.663l-0.295,-0.052l-1.222,-0.415Z" style="fill:#2a77bd;fill-rule:nonzero;"/><path d="M14.483,4.096l-1.458,0.972l-0.112,2.168l1.868,0.411l0.748,-2.168l-1.046,-1.383Z" style="fill:#231f20;fill-rule:nonzero;"/><path d="M12.132,4.013l-1.159,1.159l0.208,2.143l1.736,0.025l0.374,-2.168l-1.159,-1.159Z" style="fill:#2a77bd;fill-rule:nonzero;"/><path d="M9.777,4.2l-1.121,1.42l0.785,2.168l1.869,-0.448l-0.038,-2.318l-1.495,-0.822Z" style="fill:#231f20;fill-rule:nonzero;"/><path d="M7.983,8.386l-1.204,-1.985l0.756,-1.453l1.445,0.581l0.498,2.222l-1.495,0.635Z" style="fill:#2a77bd;fill-rule:nonzero;"/><path d="M7.734,8.519c0,0 4.73,-3.123 8.825,0l-8.825,0Z" style="fill:#ed1c24;fill-rule:nonzero;"/><path d="M14.719,17.282l-0.963,0.539l-0.756,0.2l0,-2.11l-1.719,0l0.01,2.112l-0.706,-0.216l-1.038,-0.532l0.015,-1.364l1.719,0l0,-1.819l1.719,0l0,1.819l1.719,0l0,-1.819l1.719,0l-0.606,1.819l-1.113,0l0,1.371Zm-5.157,-5.009l1.719,0l0,1.819l-1.719,0l0,-1.819Zm3.438,0l1.719,0l0,1.819l-1.719,0l0,-1.819Zm-5.158,-1.819l1.719,0l0,1.819l-1.719,0l0,-1.819Zm5.158,0l0,1.819l-1.719,0l0,-1.819l1.719,0Zm3.438,0l0,1.819l-1.719,0l0,-1.819l1.719,0Zm-6.876,-1.819l1.719,0l0,1.819l-1.719,0l0,-1.819Zm3.438,0l1.719,0l0,1.819l-1.719,0l0,-1.819Z" style="fill:#fff;"/><path d="M13.465,5.757c0.125,0.333 1.163,0.603 1.412,0.312l-0.27,0.644c0,0 -0.353,0.062 -0.727,-0.021c-0.373,-0.083 -0.498,-0.395 -0.498,-0.395l0.083,-0.54Zm-5.855,-0.103l0.664,0.332l-0.145,0.685l-0.644,-0.311l0.125,-0.706Zm4.504,0.992l0.327,-0.38l-0.276,-0.418l-0.332,0.361l0.281,0.437Zm4.163,-0.326l-0.097,-0.511l0.444,-0.21l0.099,0.491l-0.446,0.23Zm-3.733,-0.483l0.327,-0.381l-0.276,-0.417l-0.332,0.36l0.281,0.438Zm-0.785,-0.022l0.328,-0.38l-0.276,-0.418l-0.333,0.361l0.281,0.437Z" style="fill:#fff200;fill-rule:nonzero;"/><circle cx="12" cy="12.385" r="11.25" style="fill:none;stroke:#515151;stroke-width:0.75px;"/></svg>