<?xml version="1.0" encoding="UTF-8" standalone="no"?><!DOCTYPE svg PUBLIC "-//W3C//DTD SVG 1.1//EN" "http://www.w3.org/Graphics/SVG/1.1/DTD/svg11.dtd"><svg width="100%" height="100%" viewBox="0 0 24 25" version="1.1" xmlns="http://www.w3.org/2000/svg" xmlns:xlink="http://www.w3.org/1999/xlink" xml:space="preserve" xmlns:serif="http://www.serif.com/" style="fill-rule:evenodd;clip-rule:evenodd;stroke-linecap:square;stroke-miterlimit:1.5;"><path d="M18.988,21.135c-1.896,1.58 -4.335,2.5 -6.988,2.5c-2.653,0 -5.092,-0.92 -6.988,-2.5l13.976,0Z" style="fill:#fff;"/><path d="M2.652,6.135l18.696,0c1.204,1.791 1.902,3.94 1.902,6.25c0,2.278 -0.678,4.398 -1.902,6.25l-18.696,0c-1.204,-1.791 -1.902,-3.94 -1.902,-6.25c0,-2.278 0.678,-4.398 1.902,-6.25Z" style="fill:#fff;"/><path d="M12,1.135c2.635,0.019 5.046,0.921 6.988,2.5l-13.976,0c1.856,-1.547 4.233,-2.461 6.988,-2.5Z" style="fill:#fff;"/><path d="M21.348,6.135l-18.696,0c0.642,-0.962 1.43,-1.819 2.36,-2.5l13.976,0c0.872,0.675 1.637,1.479 2.36,2.5Z" style="fill:#007dc5;"/><path d="M18.988,21.135l-13.976,0c-0.917,-0.71 -1.716,-1.563 -2.36,-2.5l18.696,0c-0.61,0.914 -1.352,1.734 -2.36,2.5Z" style="fill:#007dc5;"/><path d="M10.114,10.144l-1.846,0l0.923,1.584l0.923,-1.584Zm-0.923,2.769l-0.954,1.6l1.907,0l-0.953,-1.6Zm1.984,2.138l0.908,1.662l1,-1.662l-1.908,0Zm2.877,-0.538l1.831,0l-0.908,-1.6l-0.923,1.6Zm0.923,-2.785l0.923,-1.584l-1.877,0l0.954,1.584Zm-3.877,-2.138l1.939,0l-0.954,-1.707l-0.985,1.707Zm-1.569,2.738l1.262,2.185l2.584,0l1.262,-2.185l-1.262,-2.184l-2.584,0l-1.262,2.184Zm4.169,-2.738l3.169,0l-1.569,2.738l1.569,2.723l-3.169,0l-1.615,2.816l-1.631,-2.816l-3.153,0l1.553,-2.723l-1.553,-2.738l3.153,0l1.631,-2.784l1.615,2.784Z" style="fill:#007dc5;fill-rule:nonzero;"/><circle cx="12" cy="12.385" r="11.25" style="fill:none;stroke:#515151;stroke-width:0.75px;"/></svg>