<?xml version="1.0" encoding="UTF-8" standalone="no"?><!DOCTYPE svg PUBLIC "-//W3C//DTD SVG 1.1//EN" "http://www.w3.org/Graphics/SVG/1.1/DTD/svg11.dtd"><svg width="100%" height="100%" viewBox="0 0 24 25" version="1.1" xmlns="http://www.w3.org/2000/svg" xmlns:xlink="http://www.w3.org/1999/xlink" xml:space="preserve" xmlns:serif="http://www.serif.com/" style="fill-rule:evenodd;clip-rule:evenodd;stroke-linecap:square;stroke-miterlimit:1.5;"><path d="M22.56,8.635c0.465,1.181 0.69,2.439 0.69,3.75c0,1.311 -0.225,2.569 -0.69,3.75l-21.12,0c-0.465,-1.181 -0.69,-2.439 -0.69,-3.75c0,-1.311 0.225,-2.569 0.69,-3.75l21.12,0Z" style="fill:#fff;"/><path d="M12,1.135c4.911,0.035 9.046,3.14 10.56,7.5l-21.12,0c1.481,-4.337 5.612,-7.463 10.56,-7.5Z" style="fill:#ed1b2d;"/><path d="M22.56,16.135c-1.49,4.362 -5.662,7.5 -10.56,7.5c-4.898,0 -9.07,-3.138 -10.56,-7.5l21.12,0Z" style="fill:#231f20;"/><path d="M11.625,10.483l-0.501,1.558l-1.649,0l1.339,0.97l-0.515,1.556l1.326,-0.967l1.325,0.967l-0.507,-1.569l1.332,-0.95l-1.642,0l-0.508,-1.565Z" style="fill:#009b67;fill-rule:nonzero;"/><path d="M3.188,10.483l-0.502,1.558l-1.649,0l1.339,0.97l-0.514,1.556l1.326,-0.967l1.325,0.967l-0.508,-1.569l1.333,-0.95l-1.643,0l-0.507,-1.565Z" style="fill:#009b67;fill-rule:nonzero;"/><path d="M20.063,10.483l-0.502,1.558l-1.649,0l1.339,0.97l-0.514,1.556l1.326,-0.967l1.325,0.967l-0.508,-1.569l1.333,-0.95l-1.643,0l-0.507,-1.565Z" style="fill:#009b67;fill-rule:nonzero;"/><circle cx="12" cy="12.385" r="11.25" style="fill:none;stroke:#515151;stroke-width:0.75px;"/></svg>