<?xml version="1.0" encoding="UTF-8" standalone="no"?><!DOCTYPE svg PUBLIC "-//W3C//DTD SVG 1.1//EN" "http://www.w3.org/Graphics/SVG/1.1/DTD/svg11.dtd"><svg width="100%" height="100%" viewBox="0 0 24 25" version="1.1" xmlns="http://www.w3.org/2000/svg" xmlns:xlink="http://www.w3.org/1999/xlink" xml:space="preserve" xmlns:serif="http://www.serif.com/" style="fill-rule:evenodd;clip-rule:evenodd;stroke-linecap:square;stroke-miterlimit:1.5;"><path d="M22.56,8.635c0.465,1.181 0.69,2.439 0.69,3.75c0,1.311 -0.225,2.569 -0.69,3.75l-9.776,0l7.213,-3.75l-7.213,-3.75l9.776,0Z" style="fill:#fff;"/><path d="M12,1.135c4.911,0.035 9.046,3.14 10.56,7.5l-9.776,0l-8.485,-4.412c1.972,-1.899 4.654,-3.063 7.701,-3.088Z" style="fill:#231f20;"/><path d="M22.56,16.135c-1.49,4.362 -5.662,7.5 -10.56,7.5c-2.989,0 -5.708,-1.168 -7.701,-3.088l8.485,-4.412l9.776,0Z" style="fill:#008348;"/><path d="M19.997,12.385l-15.698,8.162c-1.302,-1.229 -2.297,-2.727 -2.848,-4.412c-0.469,-1.138 -0.701,-2.417 -0.701,-3.75c0,-1.333 0.232,-2.612 0.701,-3.75l0.006,-0.02c0.567,-1.719 1.562,-3.203 2.842,-4.392l15.698,8.162Z" style="fill:#ed1b2d;"/><path d="M6.924,11.592l0.865,-0.182l-0.369,0.799l0.683,0.563l-0.857,0.209l-0.015,0.884l-0.696,-0.543l-0.703,0.543l-0.01,-0.886l-0.863,-0.207l0.689,-0.561l-0.378,-0.801l0.865,0.186l0.396,-0.795l0.393,0.791Z" style="fill:#fff;fill-rule:nonzero;"/><circle cx="12" cy="12.385" r="11.25" style="fill:none;stroke:#515151;stroke-width:0.75px;"/></svg>