<?xml version="1.0" encoding="UTF-8" standalone="no"?><!DOCTYPE svg PUBLIC "-//W3C//DTD SVG 1.1//EN" "http://www.w3.org/Graphics/SVG/1.1/DTD/svg11.dtd"><svg width="100%" height="100%" viewBox="0 0 24 25" version="1.1" xmlns="http://www.w3.org/2000/svg" xmlns:xlink="http://www.w3.org/1999/xlink" xml:space="preserve" xmlns:serif="http://www.serif.com/" style="fill-rule:evenodd;clip-rule:evenodd;stroke-linecap:square;stroke-miterlimit:1.5;"><circle id="bandera-corea-sur" cx="12" cy="12.223" r="11.25" style="fill:#fff;"/><path d="M15.696,14.58c-1.254,2.035 -3.985,2.572 -5.988,1.268c-2.004,-1.303 -2.57,-3.984 -1.266,-5.987c-1.248,2.022 1.438,4.607 3.626,2.36c2.189,-2.247 4.874,0.336 3.628,2.359" style="fill:#0060a9;fill-rule:nonzero;"/><path d="M8.441,9.862c1.254,-2.034 3.985,-2.572 5.988,-1.268c2.003,1.303 2.569,3.984 1.266,5.987c1.248,-2.022 -1.438,-4.607 -3.627,-2.36c-2.188,2.248 -4.873,-0.336 -3.627,-2.359" style="fill:#ed1b2d;fill-rule:nonzero;"/><path d="M18.672,10.422l0.6,-0.4l-1.1,-1.65l-0.6,0.4l1.1,1.65Zm-1.3,-1.95l0.6,-0.4l-1.1,-1.651l-0.6,0.4l1.1,1.651Zm3.1,0.75l0.6,-0.4l-1.1,-1.651l-0.6,0.401l1.1,1.65Zm-1.3,-1.95l0.6,-0.401l-1.1,-1.65l-0.6,0.4l1.1,1.651Zm0.4,2.55l0.6,-0.4l-2.4,-3.601l-0.6,0.4l2.4,3.601Zm-14.104,9.398l0.6,-0.4l-2.4,-3.6l-0.6,0.4l2.4,3.6Zm1.8,-1.2l0.6,-0.4l-2.4,-3.6l-0.6,0.4l2.4,3.6Zm-0.9,0.6l0.6,-0.4l-1.1,-1.65l-0.6,0.4l1.1,1.65Zm-1.3,-1.95l0.6,-0.4l-1.1,-1.65l-0.6,0.4l1.1,1.65Zm2.802,-9.85l-0.6,-0.4l-2.4,3.6l0.6,0.401l2.4,-3.601Zm-0.9,-0.6l-0.6,-0.4l-2.4,3.6l0.6,0.4l2.4,-3.6Zm-0.9,-0.6l-0.6,-0.4l-2.4,3.6l0.6,0.4l2.4,-3.6Zm14.999,9.999l-0.6,-0.4l-1.1,1.65l0.6,0.4l1.1,-1.65Zm-1.3,1.95l-0.6,-0.4l-1.1,1.65l0.6,0.4l1.1,-1.65Zm0.4,-2.55l-0.6,-0.4l-1.1,1.65l0.6,0.4l1.1,-1.65Zm-1.3,1.95l-0.6,-0.4l-1.1,1.65l0.6,0.4l1.1,-1.65Zm0.4,-2.55l-0.6,-0.4l-1.1,1.65l0.6,0.4l1.1,-1.65Zm-2.4,3.6l-0.6,-0.4l1.1,-1.65l0.6,0.4l-1.1,1.65Z" style="fill:#231f20;fill-rule:nonzero;"/><circle cx="12" cy="12.223" r="11.25" style="fill:none;stroke:#515151;stroke-width:0.75px;"/></svg>