<?xml version="1.0" encoding="UTF-8" standalone="no"?><!DOCTYPE svg PUBLIC "-//W3C//DTD SVG 1.1//EN" "http://www.w3.org/Graphics/SVG/1.1/DTD/svg11.dtd"><svg width="100%" height="100%" viewBox="0 0 24 25" version="1.1" xmlns="http://www.w3.org/2000/svg" xmlns:xlink="http://www.w3.org/1999/xlink" xml:space="preserve" xmlns:serif="http://www.serif.com/" style="fill-rule:evenodd;clip-rule:evenodd;stroke-linecap:square;stroke-miterlimit:1.5;"><circle cx="12" cy="12.135" r="11.25" style="fill:#0093c2;"/><path d="M12,13.571c2.114,0 3.828,-1.714 3.828,-3.829c0,-2.114 -1.714,-3.828 -3.828,-3.828c-2.114,0 -3.828,1.714 -3.828,3.828c0,2.115 1.714,3.829 3.828,3.829" style="fill:#fff200;fill-rule:nonzero;"/><path d="M11.717,16.127l-4.173,-1.828l-1.654,-2.692l-1.387,-1.716l0.188,3.68l1.611,2.623l3.173,0.692l-3.089,-2.202l-0.685,-1.943l2.471,2.524l3.545,0.862Z" style="fill:#fff200;"/><path d="M15.828,16.497l2.027,-0.257l1.508,-2.669l0.606,-2.09l-0.724,-2.217l-3.338,5.525l-3.436,1.371l-2.725,1.611l1.695,0.27l-0.756,0.785l3.299,-0.211l2.746,-0.904l-2.316,-0.454l-1.546,0.837l-1.443,-0.714l1.649,-1.058l1.758,-0.137l2.154,-1.756l1.234,-1.631l0.133,1.319l-1.442,1.701l-1.083,0.679Z" style="fill:#fff200;"/><circle cx="12" cy="12.135" r="11.25" style="fill:none;stroke:#515151;stroke-width:0.75px;"/></svg>