<?xml version="1.0" encoding="UTF-8" standalone="no"?><!DOCTYPE svg PUBLIC "-//W3C//DTD SVG 1.1//EN" "http://www.w3.org/Graphics/SVG/1.1/DTD/svg11.dtd"><svg width="100%" height="100%" viewBox="0 0 24 24" version="1.1" xmlns="http://www.w3.org/2000/svg" xmlns:xlink="http://www.w3.org/1999/xlink" xml:space="preserve" xmlns:serif="http://www.serif.com/" style="fill-rule:evenodd;clip-rule:evenodd;stroke-linecap:square;stroke-miterlimit:1.5;"><path d="M21.688,17.679c-1.885,3.34 -5.475,5.589 -9.688,5.625c-4.165,-0.03 -7.772,-2.268 -9.688,-5.625l19.376,0Z" style="fill:#f15d2f;"/><path d="M2.312,6.429c1.9,-3.367 5.532,-5.625 9.688,-5.625c4.156,0 7.788,2.258 9.688,5.625l-19.376,0Z" style="fill:#f15d2f;"/><path d="M21.688,17.679l-19.376,0c-1.011,-1.646 -1.562,-3.572 -1.562,-5.625c0,-2.053 0.551,-3.979 1.562,-5.625l19.376,0c1.011,1.646 1.562,3.572 1.562,5.625c0,2.024 -0.536,3.925 -1.562,5.625Z" style="fill:#fff;"/><path d="M11.774,6.925l6.833,7.906l-4.824,-0.68l-0.57,1.729l1.3,1.356l-4.745,-0.005l0.592,-1.05l-0.023,-1.529l-3.176,1.018l4.613,-8.745Z" style="fill:#009d57;"/><circle cx="12" cy="12.054" r="11.25" style="fill:none;stroke:#515151;stroke-width:0.75px;"/></svg>