<?xml version="1.0" encoding="UTF-8" standalone="no"?><!DOCTYPE svg PUBLIC "-//W3C//DTD SVG 1.1//EN" "http://www.w3.org/Graphics/SVG/1.1/DTD/svg11.dtd"><svg width="100%" height="100%" viewBox="0 0 24 24" version="1.1" xmlns="http://www.w3.org/2000/svg" xmlns:xlink="http://www.w3.org/1999/xlink" xml:space="preserve" xmlns:serif="http://www.serif.com/" style="fill-rule:evenodd;clip-rule:evenodd;stroke-linecap:square;stroke-miterlimit:1.5;"><path d="M12,23.304c-6.254,-0.045 -11.25,-5.069 -11.25,-11.25c0,-6.209 5.041,-11.25 11.25,-11.25c6.209,0 11.25,5.041 11.25,11.25c0,6.181 -4.996,11.205 -11.25,11.25Z" style="fill:#ed1c24;"/><path d="M14.712,15.279l-1.839,-1.335l1.136,-0.826l0.703,2.161Zm-2.329,-1.691l-1.442,-1.046l0.549,-1.691l1.781,0l0.551,1.692l-1.439,1.045Zm-2.331,1.694l0.702,-2.164l1.139,0.826l-1.841,1.338Zm-1.441,-4.431l2.274,0l-0.434,1.335l-1.84,-1.335Zm3.768,-2.741l0.705,2.165l-1.408,0l0.703,-2.165Zm3.771,2.741l-1.839,1.336l-0.435,-1.336l2.274,0Zm1.771,-0.576l-4.232,0l-1.311,-4.028l-1.307,4.028l-4.233,0l3.426,2.487l-1.306,4.026l3.425,-2.488l3.425,2.486l-1.309,-4.024l3.422,-2.487Z" style="fill:#00a650;fill-rule:nonzero;"/><circle cx="12" cy="12.054" r="11.25" style="fill:none;stroke:#515151;stroke-width:0.75px;"/></svg>