<?xml version="1.0" encoding="UTF-8" standalone="no"?><!DOCTYPE svg PUBLIC "-//W3C//DTD SVG 1.1//EN" "http://www.w3.org/Graphics/SVG/1.1/DTD/svg11.dtd"><svg width="100%" height="100%" viewBox="0 0 24 25" version="1.1" xmlns="http://www.w3.org/2000/svg" xmlns:xlink="http://www.w3.org/1999/xlink" xml:space="preserve" xmlns:serif="http://www.serif.com/" style="fill-rule:evenodd;clip-rule:evenodd;stroke-linecap:square;stroke-miterlimit:1.5;"><path d="M8.25,1.994l0,21.12c-4.362,-1.49 -7.5,-5.662 -7.5,-10.56c0,-4.898 3.138,-9.07 7.5,-10.56Z" style="fill:#f4793e;"/><path d="M18.75,3.608c2.743,2.022 4.5,5.281 4.5,8.946c0,3.665 -1.757,6.924 -4.5,8.946l0,-17.892Z" style="fill:#f4793e;"/><path d="M8.25,1.994c1.181,-0.465 2.439,-0.69 3.75,-0.69c2.544,0 4.891,0.846 6.75,2.304l0,17.892c-1.859,1.458 -4.206,2.304 -6.75,2.304c-1.311,0 -2.569,-0.225 -3.75,-0.69l0,-21.12Z" style="fill:#3677bc;"/><path d="M3.691,14.151c0.228,0.663 -0.18,0.9 -0.587,1.013c-0.407,0.114 -0.929,0.474 -0.474,1.033c0.482,0.593 2.464,-0.606 1.061,-2.046" style="fill:#ffd046;fill-rule:nonzero;"/><path d="M2.327,16.112c-0.227,-0.663 0.199,-0.957 0.606,-1.071c0.408,-0.114 0.926,-0.407 0.455,-0.947c-0.578,-0.663 -2.634,0.597 -1.061,2.018" style="fill:#ffd046;fill-rule:nonzero;"/><path id="bandera-mongolia" d="M0.758,12.123l0.707,0l0,4.383c-0.462,-1.229 -0.715,-2.561 -0.715,-3.952c0,-0.144 0.003,-0.288 0.008,-0.431Z" style="fill:#ffd046;"/><path d="M3,11.356c-0.441,0 -0.938,-0.114 -1.279,-0.668c0.17,0.682 0.668,1.151 1.279,1.151" style="fill:#ffd046;fill-rule:nonzero;"/><path d="M4.123,17.339l-1.123,0.725l-1.123,-0.725l2.246,0Z" style="fill:#ffd046;fill-rule:nonzero;"/><rect x="1.792" y="16.571" width="2.416" height="0.455" style="fill:#ffd046;"/><rect x="1.792" y="13.104" width="2.416" height="0.455" style="fill:#ffd046;"/><rect x="4.535" y="12.123" width="1.151" height="5.87" style="fill:#ffd046;"/><path d="M4.051,12.109l-1.051,0.71l-1.052,-0.71l2.103,0Z" style="fill:#ffd046;fill-rule:nonzero;"/><path d="M3,11.356c0.44,0 0.938,-0.114 1.279,-0.668c-0.171,0.682 -0.668,1.151 -1.279,1.151" style="fill:#ffd046;fill-rule:nonzero;"/><path d="M3,11.106c0.521,0 0.944,-0.422 0.944,-0.944c0,-0.522 -0.423,-0.945 -0.944,-0.945c-0.522,0 -0.945,0.423 -0.945,0.945c0,0.522 0.423,0.944 0.945,0.944" style="fill:#ffd046;fill-rule:nonzero;"/><path d="M3.025,7.016c-0.092,0.137 -0.076,0.291 -0.05,0.385c0.025,0.095 0.031,0.146 -0.07,0.266c-0.101,0.12 -0.12,0.265 -0.025,0.372c0.095,0.108 0.069,0.285 -0.044,0.297c-0.114,0.013 -0.246,-0.115 -0.177,-0.252c0.038,-0.076 0.025,-0.184 0.006,-0.228c-0.019,-0.044 0.006,-0.113 0.025,-0.158c0.019,-0.044 0.019,-0.101 0.013,-0.139c-0.006,-0.037 -0.025,-0.037 -0.057,0.013c-0.057,0.089 -0.069,0.139 -0.051,0.189c0.02,0.051 -0.008,0.113 -0.069,0.196c-0.208,0.285 -0.05,0.846 0.474,0.846c0.524,0 0.682,-0.457 0.594,-0.644c-0.064,-0.132 -0.114,-0.259 -0.108,-0.372c0.006,-0.114 -0.05,-0.19 -0.095,-0.253c-0.044,-0.063 -0.063,-0.038 -0.038,0.051c0.026,0.088 0.032,0.164 0,0.214c-0.031,0.051 -0.025,0.146 0.026,0.215c0.05,0.07 0,0.221 -0.127,0.228c-0.126,0.006 -0.227,-0.127 -0.145,-0.323c0.082,-0.195 0.107,-0.448 0.032,-0.562c-0.076,-0.113 -0.114,-0.233 -0.089,-0.297c0.026,-0.063 0,-0.081 -0.025,-0.044" style="fill:#ffd046;fill-rule:nonzero;"/><path d="M3,14.235c-0.338,0 -0.332,0.468 0,0.468c0.333,0 0.346,-0.468 0,-0.468" style="fill:#f4793e;fill-rule:nonzero;"/><path d="M3,15.505c-0.338,0 -0.332,0.468 0,0.468c0.333,0 0.346,-0.468 0,-0.468" style="fill:#f4793e;fill-rule:nonzero;"/><circle cx="12" cy="12.554" r="11.25" style="fill:none;stroke:#515151;stroke-width:0.75px;"/></svg>