<?xml version="1.0" encoding="UTF-8" standalone="no"?><!DOCTYPE svg PUBLIC "-//W3C//DTD SVG 1.1//EN" "http://www.w3.org/Graphics/SVG/1.1/DTD/svg11.dtd"><svg width="100%" height="100%" viewBox="0 0 24 25" version="1.1" xmlns="http://www.w3.org/2000/svg" xmlns:xlink="http://www.w3.org/1999/xlink" xml:space="preserve" xmlns:serif="http://www.serif.com/" style="fill-rule:evenodd;clip-rule:evenodd;stroke-linecap:square;stroke-miterlimit:1.5;"><path d="M3.75,4.879l0,15.188c-1.874,-1.985 -3,-4.659 -3,-7.594c0,-2.935 1.126,-5.609 3,-7.594Z" style="fill:#fff;"/><path d="M3.75,4.879c2.026,-2.254 4.976,-3.656 8.25,-3.656c1.456,0 2.848,0.277 4.125,0.806l0,20.888c-1.277,0.529 -2.669,0.806 -4.125,0.806c-3.274,0 -6.224,-1.402 -8.25,-3.656l0,-15.188Z" style="fill:#fff;"/><path d="M20.625,5.303c1.651,1.938 2.625,4.441 2.625,7.17c0,2.729 -0.974,5.232 -2.625,7.17l0,-14.34Z" style="fill:#ed1b2d;"/><path d="M20.625,19.643c-1.169,1.448 -2.724,2.583 -4.5,3.274l0,-20.888c1.776,0.691 3.331,1.826 4.5,3.274l0,14.34Z" style="fill:#ed1b2d;"/><path d="M9.712,4.892l0,1.731c0.092,0.025 0.197,0.089 0.288,0.18c0.092,0.092 0.155,0.197 0.181,0.289l1.73,0l0,2.338l-1.73,0c-0.026,0.092 -0.089,0.197 -0.181,0.288c-0.092,0.092 -0.196,0.155 -0.288,0.181l0,1.731l-2.338,0l0,-1.731c-0.093,-0.026 -0.197,-0.089 -0.289,-0.181c-0.091,-0.091 -0.155,-0.196 -0.18,-0.288l-1.731,0l0,-2.338l1.731,0c0.025,-0.092 0.089,-0.197 0.18,-0.289c0.092,-0.091 0.196,-0.155 0.289,-0.18l0,-1.731l2.338,0Z" style="fill:#ed1b2d;fill-rule:nonzero;"/><path d="M11.73,7.272l-1.689,0c0.007,-0.098 -0.04,-0.246 -0.153,-0.359c-0.112,-0.112 -0.259,-0.158 -0.356,-0.153l0,-1.686l-1.978,0l0,1.688c-0.098,-0.006 -0.245,0.042 -0.358,0.155c-0.112,0.112 -0.16,0.258 -0.154,0.355l-1.686,0l0,1.978l1.688,0c-0.006,0.098 0.041,0.244 0.155,0.357c0.112,0.113 0.257,0.16 0.355,0.155l0,1.686l1.978,0l0,-1.688c0.097,0.006 0.245,-0.04 0.358,-0.154c0.112,-0.112 0.159,-0.259 0.154,-0.356l1.686,0l0,-1.978Z" style="fill:#e3e4e5;fill-rule:nonzero;"/><path d="M8.561,9.73c0.801,0 1.45,-0.65 1.45,-1.451c0,-0.801 -0.649,-1.451 -1.45,-1.451c-0.801,0 -1.451,0.65 -1.451,1.451c0,0.801 0.65,1.451 1.451,1.451" style="fill:#a7b1b7;fill-rule:nonzero;"/><circle cx="12" cy="12.473" r="11.25" style="fill:none;stroke:#515151;stroke-width:0.75px;"/></svg>