<?xml version="1.0" encoding="UTF-8" standalone="no"?><!DOCTYPE svg PUBLIC "-//W3C//DTD SVG 1.1//EN" "http://www.w3.org/Graphics/SVG/1.1/DTD/svg11.dtd"><svg width="100%" height="100%" viewBox="0 0 24 25" version="1.1" xmlns="http://www.w3.org/2000/svg" xmlns:xlink="http://www.w3.org/1999/xlink" xml:space="preserve" xmlns:serif="http://www.serif.com/" style="fill-rule:evenodd;clip-rule:evenodd;stroke-linecap:square;stroke-miterlimit:1.5;"><path d="M6.875,2.176c1.516,-0.84 3.268,-1.291 5.125,-1.291c2.01,0 3.898,0.528 5.5,1.494l0,19.512c-1.602,0.966 -3.49,1.494 -5.5,1.494c-1.857,0 -3.609,-0.451 -5.125,-1.291l0,-19.918Z" style="fill:#fff;"/><path d="M17.5,2.379c3.445,1.892 5.75,5.557 5.75,9.756c0,4.199 -2.305,7.864 -5.75,9.756l0,-19.512Z" style="fill:#ed1b2d;"/><path d="M6.875,2.176l0,19.918c-3.648,-1.828 -6.125,-5.607 -6.125,-9.959c0,-4.352 2.477,-8.131 6.125,-9.959Z" style="fill:#008348;"/><path d="M13.445,13.278c0,0.109 -0.088,0.197 -0.197,0.197l-0.378,0c-0.109,0 -0.196,-0.088 -0.196,-0.197c0,-0.108 0.087,-0.196 0.196,-0.196l0.378,0c0.109,0 0.197,0.088 0.197,0.196" style="fill:#febd0f;fill-rule:nonzero;"/><path d="M10.613,13.102c-0.088,0.116 -0.253,0.139 -0.369,0.052l-0.27,-0.204c-0.115,-0.087 -0.139,-0.253 -0.051,-0.369c0.087,-0.117 0.253,-0.139 0.37,-0.051l0.269,0.203c0.115,0.088 0.139,0.253 0.051,0.369" style="fill:#008348;fill-rule:nonzero;"/><path d="M11.467,13.463c-0.05,0.137 -0.202,0.207 -0.338,0.157l-0.317,-0.116c-0.137,-0.049 -0.207,-0.201 -0.157,-0.338c0.05,-0.137 0.202,-0.207 0.338,-0.156l0.317,0.115c0.136,0.051 0.207,0.201 0.157,0.338" style="fill:#008348;fill-rule:nonzero;"/><path d="M12.843,13.69c-0.029,0.223 -0.234,0.382 -0.458,0.352l-0.52,-0.069c-0.223,-0.028 -0.381,-0.234 -0.352,-0.459c0.03,-0.223 0.237,-0.382 0.46,-0.35l0.519,0.067c0.223,0.03 0.381,0.235 0.351,0.459" style="fill:#008348;fill-rule:nonzero;"/><path d="M14.665,13.556c0.038,0.131 -0.1,0.287 -0.307,0.347l-0.482,0.138c-0.206,0.06 -0.407,0.002 -0.444,-0.131c-0.038,-0.131 0.1,-0.289 0.308,-0.346l0.481,-0.14c0.208,-0.058 0.407,0 0.444,0.132" style="fill:#008348;fill-rule:nonzero;"/><path d="M13.315,13.337c0.127,0.051 0.166,0.255 0.085,0.455l-0.186,0.466c-0.08,0.199 -0.249,0.322 -0.377,0.269c-0.127,-0.05 -0.166,-0.255 -0.084,-0.456l0.186,-0.464c0.081,-0.201 0.25,-0.322 0.376,-0.27" style="fill:#008348;fill-rule:nonzero;"/><path d="M10.002,12.256c0,0.092 -0.074,0.166 -0.166,0.166c-0.092,0 -0.166,-0.074 -0.166,-0.166l0,-0.295c0,-0.092 0.074,-0.166 0.166,-0.166c0.092,0 0.166,0.074 0.166,0.166l0,0.295Z" style="fill:#ec1c24;fill-rule:nonzero;"/><path d="M11.344,13.219c0,0.092 -0.074,0.166 -0.166,0.166c-0.092,0 -0.166,-0.074 -0.166,-0.166l0,-0.295c0,-0.092 0.074,-0.166 0.166,-0.166c0.092,0 0.166,0.074 0.166,0.166l0,0.295Z" style="fill:#ec1c24;fill-rule:nonzero;"/><path d="M14.734,13.519c-0.085,0.034 -0.182,-0.008 -0.215,-0.094c-0.034,-0.085 0.008,-0.181 0.094,-0.215l0.274,-0.107c0.086,-0.034 0.182,0.008 0.215,0.094c0.034,0.085 -0.008,0.181 -0.094,0.215l-0.274,0.107Z" style="fill:#ec1c24;fill-rule:nonzero;"/><path d="M11.333,10.038l-0.042,1.547l0.32,0.228l-0.36,0.811l0.599,0.06c0,0 0.528,0.276 0.691,0.349c0.164,0.073 0.358,-0.268 0.358,-0.268l0.562,0.317l0.992,-0.204l-1.442,-1.47l1.947,1.434l0.468,-1.735l-1.206,-1.928l-2.253,-0.382l-0.117,0.749l-0.599,-0.205l-0.655,0.884l0.737,-0.187Z" style="fill:#ae6219;fill-rule:nonzero;"/><path d="M11.608,12.252c0,0.122 -0.1,0.222 -0.222,0.222l-0.617,0c-0.122,0 -0.222,-0.1 -0.222,-0.222c0,-0.123 0.1,-0.223 0.222,-0.223l0.617,0c0.122,0 0.222,0.1 0.222,0.223" style="fill:#febd0f;fill-rule:nonzero;"/><path d="M11.254,10.24c0,0.127 -0.103,0.229 -0.229,0.229l-0.23,0c-0.127,0 -0.23,-0.102 -0.23,-0.229c0,-0.127 0.103,-0.229 0.23,-0.229l0.23,0c0.126,0 0.229,0.102 0.229,0.229" style="fill:#febd0f;fill-rule:nonzero;"/><path d="M12.363,15.694c-3.436,0 -3.747,-3.694 -3.75,-3.731c-0.01,-0.138 0.093,-0.258 0.231,-0.268c0.143,-0.022 0.257,0.094 0.268,0.23c0.01,0.134 0.283,3.269 3.251,3.269c2.596,0 3.292,-2.074 3.589,-2.96c0.057,-0.172 0.103,-0.298 0.139,-0.361c0.069,-0.12 0.221,-0.16 0.342,-0.092c0.119,0.069 0.16,0.222 0.092,0.342c-0.028,0.047 -0.057,0.142 -0.099,0.269c-0.303,0.904 -1.108,3.302 -4.063,3.302" style="fill:#008348;fill-rule:nonzero;"/><path d="M10.527,11.989c-0.891,0 -1.926,-0.707 -2.058,-0.8c-0.113,-0.079 -0.14,-0.234 -0.061,-0.347c0.079,-0.114 0.234,-0.141 0.348,-0.062c0.359,0.252 1.426,0.86 2.029,0.674c0.054,-0.018 0.095,-0.033 0.125,-0.046c-0.103,-0.091 -0.307,-0.221 -0.466,-0.322c-0.16,-0.101 -0.332,-0.211 -0.496,-0.33c-0.28,-0.203 -0.4,-0.421 -0.357,-0.651c0.076,-0.4 0.641,-0.564 0.754,-0.594c0.133,-0.03 0.269,0.047 0.304,0.18c0.034,0.134 -0.046,0.27 -0.18,0.305c-0.168,0.044 -0.361,0.146 -0.387,0.204l0.001,0c0.003,0 0.027,0.057 0.158,0.151c0.156,0.113 0.32,0.217 0.471,0.314c0.458,0.291 0.789,0.502 0.747,0.82c-0.039,0.293 -0.391,0.404 -0.524,0.445c-0.13,0.041 -0.267,0.059 -0.408,0.059" style="fill:#008348;fill-rule:nonzero;"/><path d="M13.641,14.541c0,0.144 -0.116,0.26 -0.26,0.26l-2.34,0c-0.143,0 -0.259,-0.116 -0.259,-0.26c0,-0.144 0.116,-0.26 0.259,-0.26l2.34,0c0.144,0 0.26,0.116 0.26,0.26" style="fill:#009ad9;fill-rule:nonzero;"/><circle cx="12" cy="12.135" r="11.25" style="fill:none;stroke:#515151;stroke-width:0.75px;"/></svg>