<?xml version="1.0" encoding="UTF-8" standalone="no"?><!DOCTYPE svg PUBLIC "-//W3C//DTD SVG 1.1//EN" "http://www.w3.org/Graphics/SVG/1.1/DTD/svg11.dtd"><svg width="100%" height="100%" viewBox="0 0 24 25" version="1.1" xmlns="http://www.w3.org/2000/svg" xmlns:xlink="http://www.w3.org/1999/xlink" xml:space="preserve" xmlns:serif="http://www.serif.com/" style="fill-rule:evenodd;clip-rule:evenodd;stroke-linecap:square;stroke-miterlimit:1.5;"><circle id="bandera-malasia" cx="12" cy="12.554" r="11.25" style="fill:#fff;"/><path d="M18.288,21.882l-0.579,0.314l-11.418,0l-0.579,-0.314l-1.566,-1.293l15.708,0l-1.566,1.293Z" style="fill:#f15d2a;"/><path d="M21.328,18.842l-0.116,0.14l-18.424,0l-0.116,-0.14l-0.796,-1.467l20.248,0l-0.796,1.467Z" style="fill:#f15d2a;"/><path d="M23.021,14.82l-0.294,0.948l-21.454,0l-0.294,-0.948l-0.065,-0.642l22.172,0l-0.065,0.642Z" style="fill:#f15d2a;"/><path d="M23.25,12.554l-22.5,0l0.162,-1.607l22.176,0l0.162,1.607Z" style="fill:#f15d2a;"/><path d="M22.365,8.177l0.361,1.162l-21.452,0l0.361,-1.162l0.241,-0.445l20.248,0l0.241,0.445Z" style="fill:#f15d2a;"/><path d="M19.953,4.601l1.258,1.524l-18.422,0l1.258,-1.524l0.1,-0.083l15.706,0l0.1,0.083Z" style="fill:#f15d2a;"/><path d="M0.914,14.178l-0.164,-1.624c0,-6.209 5.041,-11.25 11.25,-11.25c2.847,0 5.448,1.06 7.419,2.856l0,10.018l-18.505,0Z" style="fill:#00275d;"/><path d="M11.509,11.829l0.36,-2.512l1.413,2.105l-0.768,-2.408l2.175,1.283l-1.735,-1.85l2.525,0.205l-2.363,-0.901l2.352,-0.896l-2.524,0.194l1.756,-1.85l-2.186,1.303l0.768,-2.429l-1.413,2.116l-0.36,-2.515l-0.36,2.515l-1.413,-2.116l0.768,2.429l-2.186,-1.303l1.756,1.85l-2.524,-0.194l2.353,0.896l-2.364,0.901l2.525,-0.205l-1.735,1.85l2.175,-1.283l-0.768,2.408l1.413,-2.105l0.36,2.512Z" style="fill:#ffe01b;fill-rule:nonzero;"/><path d="M6.266,2.925c0.959,0.006 1.852,0.301 2.672,0.847c-0.482,-0.189 -1.005,-0.297 -1.555,-0.297c-2.361,0 -4.275,1.915 -4.275,4.276c0,2.362 1.914,4.276 4.275,4.276c0.533,0 1.064,-0.11 1.533,-0.289c-0.784,0.546 -1.717,0.853 -2.745,0.853c-2.323,0 -4.264,-1.636 -4.724,-3.809c0.865,-2.484 2.581,-4.56 4.819,-5.857Z" style="fill:#ffe01b;"/><circle cx="12" cy="12.554" r="11.25" style="fill:none;stroke:#515151;stroke-width:0.75px;"/></svg>