<?xml version="1.0" encoding="UTF-8" standalone="no"?><!DOCTYPE svg PUBLIC "-//W3C//DTD SVG 1.1//EN" "http://www.w3.org/Graphics/SVG/1.1/DTD/svg11.dtd"><svg width="100%" height="100%" viewBox="0 0 24 25" version="1.1" xmlns="http://www.w3.org/2000/svg" xmlns:xlink="http://www.w3.org/1999/xlink" xml:space="preserve" xmlns:serif="http://www.serif.com/" style="fill-rule:evenodd;clip-rule:evenodd;stroke-linecap:square;stroke-miterlimit:1.5;"><circle cx="12" cy="12.554" r="11.25" style="fill:#004990;"/><path id="bandera-nueva-zalandia" d="M15.087,1.989l0,1.326l-4.624,2.309l4.624,0l0,3.637l-4.624,0l4.624,2.309l0,1.325l-2.656,0l-6.437,-3.208l0,3.208l-3.624,0l0,-3.208l-1.412,0.704c0.602,-3.087 2.468,-5.723 5.036,-7.349l0,2.156l6.437,-3.209l2.656,0Z" style="fill:#fff;"/><path d="M13.374,1.989l-7.272,3.637l1.741,0l7.244,-3.637l-1.713,0Z" style="fill:#ed1b2d;fill-rule:nonzero;"/><path d="M15.087,12.895l-7.252,-3.634l1.749,0l5.503,2.768l0,0.866Z" style="fill:#ed1b2d;fill-rule:nonzero;"/><path id="bandera-nueva-zalandia1" serif:id="bandera-nueva-zalandia" d="M5.272,3.539l0,2.839l9.815,0l0,2.13l-9.815,0l0,4.387l-2.13,0l0,-4.387l-1.641,0c0.29,-0.752 0.659,-1.466 1.097,-2.13l0.544,0l0,-0.757c0.615,-0.784 1.332,-1.485 2.13,-2.082Z" style="fill:#ed1b2d;"/><path d="M20.98,9.804l-0.393,1.22l-1.291,0l1.048,0.76l-0.402,1.219l1.038,-0.758l1.038,0.758l-0.398,-1.229l1.044,-0.744l-1.287,0l-0.397,-1.226Z" style="fill:#fff;fill-rule:nonzero;"/><path d="M20.98,10.401l-0.254,0.788l-0.834,0l0.677,0.491l-0.26,0.787l0.671,-0.489l0.67,0.489l-0.256,-0.794l0.674,-0.48l-0.831,0l-0.257,-0.792Z" style="fill:#ed1b2d;fill-rule:nonzero;"/><circle cx="12" cy="12.554" r="11.25" style="fill:none;stroke:#515151;stroke-width:0.75px;"/></svg>