<?xml version="1.0" encoding="UTF-8" standalone="no"?><!DOCTYPE svg PUBLIC "-//W3C//DTD SVG 1.1//EN" "http://www.w3.org/Graphics/SVG/1.1/DTD/svg11.dtd"><svg width="100%" height="100%" viewBox="0 0 24 24" version="1.1" xmlns="http://www.w3.org/2000/svg" xmlns:xlink="http://www.w3.org/1999/xlink" xml:space="preserve" xmlns:serif="http://www.serif.com/" style="fill-rule:evenodd;clip-rule:evenodd;stroke-linecap:square;stroke-miterlimit:1.5;"><path d="M13.817,0.987l0,7.344l8.752,0c0.456,1.154 0.681,2.412 0.681,3.723c0,1.289 -0.217,2.528 -0.667,3.677l-8.766,0l0,7.39l-1.817,0.183c-6.254,-0.045 -11.25,-5.069 -11.25,-11.25c0,-6.209 5.041,-11.25 11.25,-11.25l1.817,0.183Z" style="fill:#f15d2f;"/><path d="M22.569,8.331l-8.752,0l0,-7.344c4.07,0.644 7.398,3.473 8.752,7.344Z" style="fill:#fff;"/><path d="M22.583,15.731c-1.292,3.855 -4.655,6.759 -8.766,7.39l0,-7.39l8.766,0Z" style="fill:#009b67;"/><path id="bandera-oman" d="M7.268,1.846c0.002,0 0.004,0 0.006,0c0.102,0 0.13,0.092 0.09,0.148c0.17,0.025 0.305,0.12 0.357,0.244c0.122,0.014 0.123,0.191 0.003,0.209c-0.04,0.105 -0.141,0.191 -0.273,0.231c-0.017,0.084 -0.026,0.189 -0.026,0.323c0,0.037 0.001,0.071 0.002,0.104c0.014,0.46 0.129,0.546 0.332,0.688l0,1.039c0.05,-0.068 0.1,-0.137 0.149,-0.206c-0.017,-0.022 -0.025,-0.04 -0.019,-0.048c0.011,-0.014 0.02,-0.027 0.031,-0.04c0,-0.001 0,-0.002 0,-0.002l0.444,-0.572l0,0.001c1.787,-2.3 1.983,-2.47 2.07,-2.408c0.047,0.033 0.042,0.117 -0.208,0.561l0.003,0.002c-0.001,0.001 -0.004,0 -0.005,0.001c-0.259,0.457 -0.778,1.296 -1.77,2.853c-0.005,0.008 -0.021,0.007 -0.043,0.002c-0.007,0.01 -0.014,0.02 -0.021,0.03c0.118,0.02 0.163,0.097 0.178,0.203c0.006,-0.001 0.009,-0.001 0.015,-0.001c0.051,-0.002 0.091,-0.005 0.123,-0.006l0,-0.173c0,-0.044 0.036,-0.08 0.08,-0.08l1.22,0c0.044,0 0.08,0.036 0.08,0.08l0,0.685c0,0.044 -0.036,0.08 -0.08,0.08l-1.22,0c-0.044,0 -0.08,-0.036 -0.08,-0.08l0,-0.173c-0.032,-0.002 -0.072,-0.004 -0.123,-0.006c-0.006,0 -0.009,0 -0.015,-0.001c-0.019,0.123 -0.074,0.207 -0.242,0.207c-0.188,0 -0.236,-0.107 -0.247,-0.254c-0.006,-0.001 -0.012,-0.001 -0.018,-0.001c-0.096,0.135 -0.197,0.269 -0.302,0.404l0,0.174c0,0.056 -0.002,0.112 -0.007,0.167c0.837,0.982 1.738,1.847 2.698,2.53c0.063,-0.002 0.096,0.014 0.178,0.072c0.204,0.144 0.475,0.334 0.63,0.433c0.183,0.116 0.201,0.387 -0.211,0.313c-0.419,-0.075 -0.707,-0.302 -1.077,-0.549c-0.074,-0.049 -0.113,-0.073 -0.086,-0.1c-0.877,-0.587 -1.697,-1.31 -2.406,-2.074c-0.022,0.018 -0.045,0.035 -0.069,0.05l0.001,0.002c-0.001,0 -0.002,-0.001 -0.003,0c-0.08,0.051 -0.177,0.09 -0.294,0.116c0.001,0 0.001,0 0.002,0c-0.002,0.001 -0.008,0.002 -0.012,0.002l-0.007,0.002c-0.035,0.008 -0.096,0.018 -0.159,0.025c-0.01,0.002 -0.02,0.004 -0.03,0.005l-0.001,0.002c0,-0.001 0,-0.001 0,-0.002c-0.053,0.007 -0.11,0.011 -0.171,0.011c-0.661,0.685 -1.41,1.329 -2.205,1.861c0.027,0.027 -0.012,0.051 -0.086,0.1c-0.37,0.247 -0.658,0.474 -1.077,0.549c-0.412,0.074 -0.394,-0.197 -0.211,-0.313c0.154,-0.099 0.425,-0.289 0.629,-0.433c0.083,-0.058 0.115,-0.074 0.179,-0.072c0.71,-0.505 1.387,-1.11 2.031,-1.789c-0.025,-0.005 -0.05,-0.012 -0.074,-0.018c-0.001,0 -0.002,0 -0.002,-0.001c-0.037,-0.009 -0.074,-0.02 -0.112,-0.031c-0.002,0 -0.005,0.001 -0.008,0l0.002,-0.002c-0.03,-0.008 -0.06,-0.018 -0.09,-0.027l0.001,0.001c-0.005,0.012 -0.057,-0.004 -0.13,-0.032l0,0.001c0,0 -0.001,-0.001 -0.002,-0.001c-0.016,-0.007 -0.034,-0.014 -0.051,-0.022l0.002,0.004c-0.002,-0.001 -0.005,-0.004 -0.008,-0.006c-0.122,-0.051 -0.274,-0.123 -0.365,-0.17c-0.059,-0.031 -0.106,-0.06 -0.145,-0.088c-0.002,-0.001 -0.004,-0.002 -0.006,-0.003l0.001,-0.001c-0.078,-0.058 -0.118,-0.11 -0.125,-0.155c-0.027,-0.155 0.277,-0.244 0.553,-0.245c0.031,-0.002 0.065,-0.003 0.099,-0.005c0.035,-0.003 0.065,-0.007 0.091,-0.011c0.004,-0.001 0.008,-0.002 0.012,-0.002c0.077,-0.014 0.113,-0.027 0.126,-0.004c-0.002,0 -0.004,0.001 -0.006,0.001l-0.002,0c0.001,0 0.002,0 0.002,0c0.083,-0.007 0.167,-0.015 0.251,-0.025l0.001,0c0.055,-0.006 0.11,-0.013 0.164,-0.02c0.002,0 0.003,-0.001 0.005,-0.001l-0.001,0c0.047,-0.006 0.093,-0.013 0.137,-0.019c0.001,0 0.001,-0.001 0.001,-0.001l0,0.001c0.067,-0.011 0.13,-0.021 0.186,-0.033c0.001,0 0.003,-0.001 0.004,-0.001c0.105,-0.021 0.187,-0.043 0.229,-0.065c-0.096,-0.121 -0.189,-0.242 -0.279,-0.362c-0.009,0 -0.017,0.002 -0.027,0.002c-0.049,0 -0.095,-0.014 -0.134,-0.038c-0.028,0.089 -0.089,0.148 -0.229,0.148c-0.167,0 -0.223,-0.084 -0.241,-0.207c-0.006,0.001 -0.01,0.001 -0.016,0.001c-0.051,0.002 -0.09,0.004 -0.123,0.006l0,0.173c0,0.044 -0.035,0.08 -0.079,0.08l-1.221,0c-0.044,0 -0.079,-0.036 -0.079,-0.08l0,-0.685c0,-0.044 0.035,-0.08 0.079,-0.08l1.221,0c0.044,0 0.079,0.036 0.079,0.08l0,0.173c0.033,0.001 0.072,0.004 0.123,0.006c0.006,0 0.01,0 0.015,0.001c0.017,-0.111 0.066,-0.19 0.198,-0.205c-0.006,-0.009 -0.013,-0.019 -0.019,-0.028c-0.022,0.005 -0.038,0.006 -0.043,-0.002c-0.433,-0.679 -0.776,-1.222 -1.046,-1.656c0.128,-0.104 0.259,-0.205 0.392,-0.304c0.211,0.267 0.457,0.582 0.744,0.951l0,-0.001l0.444,0.572c0,0 -0.001,0.001 0,0.002c0.01,0.013 0.02,0.026 0.031,0.04c0.006,0.008 -0.002,0.026 -0.019,0.048c0.093,0.13 0.186,0.259 0.281,0.387l0.002,0l0,-0.315c-0.001,0 -0.001,-0.001 -0.001,-0.001l0.001,0l-0.001,-0.037l0,-0.867c0.218,-0.152 0.334,-0.24 0.334,-0.792c0,-0.135 -0.008,-0.241 -0.025,-0.324c-0.027,-0.009 -0.052,-0.02 -0.076,-0.032l-0.011,-0.006c-0.027,-0.014 -0.051,-0.031 -0.073,-0.049l-0.001,0.001l0,-0.001c-0.048,-0.04 -0.084,-0.088 -0.105,-0.142c-0.131,-0.01 -0.13,-0.205 0.003,-0.212c0.052,-0.122 0.184,-0.215 0.35,-0.241c-0.023,-0.033 -0.023,-0.078 0.001,-0.11c0.027,-0.013 0.055,-0.026 0.083,-0.039Zm-0.155,5.178c-0.001,0 -0.001,0 -0.002,0l0.002,0Zm-1.047,-1.405c0.084,0 0.112,-0.039 0.122,-0.1c-0.132,0.007 -0.087,-0.001 -0.087,-0.147c0,-0.137 -0.037,-0.153 0.066,-0.149c-0.022,-0.033 -0.043,-0.065 -0.064,-0.097c-0.011,-0.002 -0.023,-0.004 -0.037,-0.004c-0.081,0 -0.11,0.038 -0.121,0.097c0.066,0.014 0.035,0.046 0.035,0.153c0,0.105 0.031,0.138 -0.034,0.152c0.01,0.058 0.039,0.095 0.12,0.095Zm2.26,-0.497c-0.005,0 -0.009,0.001 -0.013,0.001c-0.031,0.047 -0.062,0.094 -0.094,0.141c0.044,0.009 0.026,0.035 0.026,0.109c0,0.083 0.023,0.106 -0.044,0.112c0.005,0.08 0.027,0.134 0.125,0.134c0.081,0 0.11,-0.037 0.121,-0.095c-0.066,-0.014 -0.035,-0.047 -0.035,-0.152c0,-0.107 -0.031,-0.139 0.035,-0.153c-0.01,-0.059 -0.039,-0.097 -0.121,-0.097Z" style="fill:#fff;"/><circle cx="12" cy="12.054" r="11.25" style="fill:none;stroke:#515151;stroke-width:0.75px;"/></svg>