<?xml version="1.0" encoding="UTF-8" standalone="no"?><!DOCTYPE svg PUBLIC "-//W3C//DTD SVG 1.1//EN" "http://www.w3.org/Graphics/SVG/1.1/DTD/svg11.dtd"><svg width="100%" height="100%" viewBox="0 0 24 25" version="1.1" xmlns="http://www.w3.org/2000/svg" xmlns:xlink="http://www.w3.org/1999/xlink" xml:space="preserve" xmlns:serif="http://www.serif.com/" style="fill-rule:evenodd;clip-rule:evenodd;stroke-linecap:round;stroke-linejoin:round;stroke-miterlimit:1.5;"><path d="M6.75,2.663l0,19.782c-3.581,-1.849 -6,-5.59 -6,-9.891c0,-4.301 2.419,-8.042 6,-9.891Z" style="fill:#ed1b2d;"/><path d="M18,3.07c3.157,1.967 5.25,5.483 5.25,9.484c0,4.001 -2.093,7.517 -5.25,9.484l0,-18.968Z" style="fill:#ed1b2d;"/><path d="M6.75,2.663c1.545,-0.883 3.342,-1.359 5.25,-1.359c2.208,0 4.268,0.637 6,1.766l0,18.968c-1.708,1.113 -3.734,1.748 -6,1.766c-1.901,-0.014 -3.686,-0.487 -5.25,-1.359l0,-19.782Z" style="fill:#fff;"/><ellipse cx="12.403" cy="9.164" rx="1.251" ry="0.926" style="fill:none;stroke:#20772d;stroke-width:0.32px;"/><path d="M9.784,9.396c0,0 -1.1,2.59 -0.398,4.382c0.702,1.793 0.607,2.098 1.529,2.247c0.922,0.149 3.439,0.665 3.439,0.665c0,0 -4.274,-0.476 -4.771,-0.921c-0.497,-0.444 -1.366,-2.56 -1.31,-3.808c0.056,-1.248 1.227,-2.388 1.511,-2.565Z" style="fill:#20772d;"/><path d="M11.743,12.317c-0.012,-0.02 -0.034,-0.17 -0.052,-0.271l-0.034,-0.047c-0.155,-0.003 -0.262,-0.042 -0.384,-0.153l-0.033,0.03c0.007,0.125 -0.085,0.177 -0.137,0.233c-0.018,0.019 -0.029,0.051 -0.018,0.073c0.011,0.023 0.018,0.104 0.063,0.211l0.593,0c0.01,-0.017 0.015,-0.057 0.002,-0.076" style="fill:#99bfe6;fill-rule:nonzero;"/><path d="M10.623,12.393l0.218,0c-0.007,-0.051 -0.026,-0.199 -0.07,-0.288c-0.012,-0.024 -0.017,-0.039 0.011,-0.066c0.059,-0.06 0.051,-0.212 -0.008,-0.325c-0.011,0.022 -0.045,0.045 -0.059,0.056c-0.012,-0.015 -0.04,-0.038 -0.044,-0.056c0.085,-0.414 0.395,-0.351 0.554,-0.322c0.159,0.03 0.362,0.056 0.491,0.03c0.031,-0.006 0.037,-0.055 0.03,-0.1c-0.032,-0.189 0.04,-0.435 0.103,-0.578c-0.01,-0.02 -0.007,-0.099 -0.005,-0.128c0.02,0.015 0.042,0.044 0.062,0.057c0.024,-0.003 0.061,-0.003 0.076,0.007c0.005,-0.015 0.034,-0.042 0.049,-0.066c0.003,0.022 0.008,0.064 0.008,0.086c0.059,0.074 0.123,0.11 0.196,0.147c0.024,0.012 0.03,0.04 0.02,0.059c-0.01,0.02 -0.025,0.045 -0.052,0.059c-0.033,0 -0.144,-0.011 -0.203,-0.053c-0.055,0.108 -0.003,0.307 0.034,0.495c0.035,0.181 0.065,0.398 -0.159,0.58c0.005,0.037 -0.009,0.152 -0.016,0.172c-0.007,0.02 -0.007,0.044 -0.005,0.062c0.002,0.017 0.012,0.061 0.012,0.088c0,0.027 0.02,0.04 0.059,0.084l0.481,0l0,-2.046c-0.226,0.124 -0.474,0.197 -0.74,0.216c-0.326,0.023 -0.681,-0.034 -1.057,-0.171c-0.117,0.314 -0.273,0.663 -0.569,0.936c0.17,0.174 0.31,0.363 0.411,0.554c0.094,0.179 0.153,0.349 0.172,0.511" style="fill:#99bfe6;fill-rule:nonzero;"/><path d="M11.041,12.315c-0.008,-0.025 -0.023,-0.107 -0.045,-0.166c-0.01,-0.028 -0.026,-0.04 -0.011,-0.055c0.015,-0.015 0.019,-0.048 0.011,-0.059c-0.007,-0.011 -0.008,-0.037 -0.038,-0.056c-0.018,0.041 -0.073,0.096 -0.095,0.107c-0.022,0.012 -0.011,0.048 -0.003,0.074c0.007,0.026 0.025,0.104 0.025,0.126c0,0.022 0.012,0.048 0.06,0.107l0.085,0c0.022,-0.022 0.018,-0.052 0.011,-0.078" style="fill:#99bfe6;fill-rule:nonzero;"/><ellipse cx="15.543" cy="10.05" rx="0.659" ry="0.62" style="fill:#20772d;"/><ellipse cx="16.303" cy="11.947" rx="0.494" ry="0.63" style="fill:#20772d;"/><ellipse cx="16.248" cy="13.632" rx="0.657" ry="0.589" style="fill:#20772d;"/><path d="M10.576,12.491l4.015,0l-1.856,2.82l-2.159,-2.82Z" style="fill:#ed1b2d;"/><path d="M11.698,13.043l1.956,-0.033l-0.721,1.025l-0.349,-0.494l-0.584,0.091l-0.302,-0.589Z" style="fill:#ffd047;"/><ellipse cx="12.591" cy="10.021" rx="0.493" ry="0.326" style="fill:#ed1b2d;"/><ellipse cx="15.265" cy="15.375" rx="0.674" ry="0.606" style="fill:#20772d;"/><path d="M13.605,11.999c-0.007,-0.004 -0.015,-0.007 -0.025,-0.012c-0.033,0.015 -0.062,0.015 -0.085,-0.026c-0.015,0.006 -0.035,0.007 -0.056,0.006c0.036,0.093 0.023,0.333 -0.047,0.426l0.262,0c-0.063,-0.096 -0.089,-0.275 -0.049,-0.394" style="fill:#ae6219;fill-rule:nonzero;"/><path d="M13.496,11.961c0.022,0.041 0.051,0.041 0.084,0.026c0.01,0.005 0.018,0.008 0.025,0.012c0.04,0.018 0.059,0.015 0.09,0.003c0.037,0.033 0.055,0.033 0.092,0.011c0.037,-0.023 0.107,-0.052 0.166,-0.045c0.059,0.008 0.141,-0.044 0.163,-0.085c0.022,-0.04 0.037,-0.07 0.081,-0.092c0.044,-0.022 0.081,-0.092 0.066,-0.129c0.019,-0.015 0.045,-0.055 0.034,-0.081c0.084,-0.064 0.084,-0.148 -0.058,-0.128c0.093,-0.059 0.093,-0.094 0.024,-0.153c0.055,-0.079 0.035,-0.133 0,-0.128c-0.034,0.005 -0.103,-0.044 -0.137,-0.024c0.083,-0.05 0.073,-0.094 0.054,-0.128c-0.02,-0.035 -0.089,-0.045 -0.118,-0.03c0,0 -0.05,-0.049 -0.069,-0.054c0.034,-0.089 -0.045,-0.153 -0.118,-0.143c0.014,-0.098 -0.153,-0.108 -0.207,-0.039c-0.089,-0.079 -0.185,-0.047 -0.235,0.018c-0.1,-0.051 -0.225,-0.003 -0.196,0.107c-0.133,0 -0.17,0.074 -0.148,0.122c-0.066,0.007 -0.088,0.078 -0.077,0.118c-0.096,-0.029 -0.199,0.048 -0.196,0.115c-0.066,0.018 -0.099,0.096 -0.055,0.144c-0.044,0.033 -0.037,0.17 0.052,0.122c0.088,-0.048 0.143,-0.067 0.173,0l-0.026,0.033c-0.077,-0.041 -0.14,0.044 -0.125,0.081c0.014,0.037 0.066,0.055 0.099,0.033c-0.018,0.052 0.008,0.122 0.078,0.111c-0.022,0.066 0.015,0.125 0.103,0.111c0.015,0.051 0.126,0.092 0.192,0.044c0.024,0.029 0.081,0.051 0.132,0.054c0.021,0.001 0.041,0 0.057,-0.006" style="fill:#20772d;fill-rule:nonzero;"/><path d="M10.994,16.747c0,0 2.941,-0.359 3.794,-0.896c0.853,-0.536 1.115,-1.11 1.46,-2.219c0.345,-1.109 0.426,-1.113 0.304,-1.786c-0.123,-0.673 -1.009,-2.054 -1.009,-2.054l-0.168,0.161c0,0 0.622,1.288 0.828,2.026c0.205,0.738 0.174,0.962 -0.071,1.653c-0.245,0.691 -0.583,1.519 -1.094,1.836c-0.511,0.317 -3.445,1.361 -4.044,1.279Z" style="fill:#20772d;"/><ellipse cx="12.698" cy="16.327" rx="0.493" ry="0.444" style="fill:none;stroke:#ed1b2d;stroke-width:0.32px;"/><circle cx="12" cy="12.554" r="11.25" style="fill:none;stroke:#515151;stroke-width:0.75px;stroke-linecap:square;stroke-linejoin:miter;"/></svg>