<?xml version="1.0" encoding="UTF-8" standalone="no"?><!DOCTYPE svg PUBLIC "-//W3C//DTD SVG 1.1//EN" "http://www.w3.org/Graphics/SVG/1.1/DTD/svg11.dtd"><svg width="100%" height="100%" viewBox="0 0 24 25" version="1.1" xmlns="http://www.w3.org/2000/svg" xmlns:xlink="http://www.w3.org/1999/xlink" xml:space="preserve" xmlns:serif="http://www.serif.com/" style="fill-rule:evenodd;clip-rule:evenodd;stroke-linecap:square;stroke-miterlimit:1.5;"><path d="M23.25,12.554c-0.045,6.254 -5.069,11.25 -11.25,11.25c-2.944,0 -5.625,-1.133 -7.617,-3.019l13.995,-8.231l4.872,0Z" style="fill:#d83848;"/><path d="M4.383,4.323c1.992,-1.886 4.673,-3.019 7.617,-3.019c6.181,0 11.205,4.996 11.25,11.25l-4.872,0l-13.995,-8.231Z" style="fill:#193561;"/><path d="M4.383,20.785c-2.268,-2.086 -3.633,-5 -3.633,-8.231l17.628,0l-13.995,8.231Z" style="fill:#fff;"/><path d="M18.378,12.554l-17.628,0c0,-3.231 1.365,-6.145 3.633,-8.231l13.995,8.231Z" style="fill:#fff;"/><path id="bandera-filipinas" d="M10.827,12.324l0.159,0.234l-0.159,0.235l-2.339,-0.081c-0.004,0.049 -0.014,0.14 -0.02,0.178l2.019,0.156l-0.19,0.285l-1.873,-0.232c-0.053,0.213 -0.14,0.415 -0.257,0.61l1.483,1.161l-0.067,0.335l-1.538,-1.317c-0.022,0.03 -0.079,0.103 -0.109,0.139l1.709,1.598l-0.054,0.279l-0.277,0.052l-1.598,-1.709c-0.037,0.032 -0.109,0.086 -0.139,0.109l1.318,1.539l-0.336,0.066l-1.162,-1.48c-0.187,0.112 -0.392,0.201 -0.611,0.256l0.226,1.869l-0.285,0.19l-0.155,-2.017c-0.037,0.004 -0.128,0.014 -0.176,0.019l0.079,2.338l-0.234,0.161l-0.235,-0.161l0.079,-2.338c-0.047,-0.005 -0.139,-0.015 -0.176,-0.019l-0.155,2.017l-0.285,-0.19l0.226,-1.872c-0.213,-0.052 -0.42,-0.141 -0.613,-0.257l-1.163,1.484l-0.336,-0.068l1.318,-1.537c-0.03,-0.023 -0.102,-0.08 -0.139,-0.111l-1.598,1.709l-0.278,-0.053l-0.053,-0.278l1.71,-1.598c-0.031,-0.036 -0.088,-0.107 -0.111,-0.139l-1.537,1.319l-0.067,-0.335l1.48,-1.163c-0.113,-0.188 -0.201,-0.393 -0.255,-0.61l-1.87,0.225l-0.19,-0.284l2.019,-0.157c-0.006,-0.036 -0.017,-0.126 -0.021,-0.175l-2.339,0.078l-0.158,-0.234l0.158,-0.234l2.339,0.08c0.004,-0.049 0.015,-0.139 0.021,-0.177l-2.019,-0.155l0.19,-0.284l1.872,0.23c0.054,-0.214 0.141,-0.416 0.257,-0.608l-1.483,-1.163l0.067,-0.336l1.538,1.317c0.022,-0.029 0.079,-0.101 0.111,-0.139l-1.71,-1.598l0.053,-0.277l0.277,-0.052l1.598,1.707c0.037,-0.029 0.109,-0.086 0.139,-0.109l-1.317,-1.537l0.336,-0.067l1.161,1.481c0.188,-0.114 0.392,-0.202 0.612,-0.257l-0.227,-1.87l0.285,-0.191l0.155,2.021c0.038,-0.007 0.129,-0.017 0.176,-0.021l-0.079,-2.339l0.234,-0.159l0.235,0.159l-0.079,2.339c0.048,0.004 0.139,0.014 0.176,0.021l0.156,-2.021l0.285,0.191l-0.226,1.874c0.212,0.053 0.42,0.139 0.613,0.255l1.162,-1.481l0.336,0.065l-1.317,1.539c0.029,0.023 0.101,0.078 0.139,0.109l1.598,-1.709l0.277,0.052l0.053,0.279l-1.71,1.598c0.032,0.038 0.088,0.11 0.111,0.139l1.537,-1.317l0.067,0.336l-1.48,1.161c0.113,0.187 0.201,0.392 0.255,0.612l1.871,-0.228l0.19,0.285l-2.019,0.156c0.006,0.038 0.016,0.129 0.02,0.177l2.339,-0.08Zm4.443,-0.956m0,0l-0.535,0.739l-0.86,-0.283l0.535,0.73l-0.535,0.732l0.867,-0.28l0.525,0.736l0,-0.907l0.863,-0.281l-0.86,-0.276l0,-0.91Z" style="fill:#ffd047;"/><circle cx="12" cy="12.554" r="11.25" style="fill:none;stroke:#515151;stroke-width:0.75px;"/></svg>