<?xml version="1.0" encoding="UTF-8" standalone="no"?><!DOCTYPE svg PUBLIC "-//W3C//DTD SVG 1.1//EN" "http://www.w3.org/Graphics/SVG/1.1/DTD/svg11.dtd"><svg width="100%" height="100%" viewBox="0 0 24 25" version="1.1" xmlns="http://www.w3.org/2000/svg" xmlns:xlink="http://www.w3.org/1999/xlink" xml:space="preserve" xmlns:serif="http://www.serif.com/" style="fill-rule:evenodd;clip-rule:evenodd;stroke-linecap:square;stroke-miterlimit:1.5;"><circle id="bandera-pakistan" cx="12" cy="12.554" r="11.25" style="fill:#fff;"/><path d="M12,1.304c4.202,0.03 7.836,2.308 9.738,5.718l-1.456,0.607l-1.571,-1.86l0.201,2.432l-2.286,0.953l2.442,0.609l0.192,2.5l1.275,-2.121l2.404,0.587l-1.633,-1.9l0.735,-1.249c0.689,1.293 1.099,2.758 1.141,4.299c-0.54,2.397 -2.656,4.174 -5.198,4.174c-2.951,0 -5.343,-2.392 -5.343,-5.343c0,-2.95 2.392,-5.342 5.343,-5.342c0.306,0 0.601,0.04 0.893,0.09c-0.897,-0.379 -1.882,-0.589 -2.917,-0.589c-4.145,0 -7.505,3.361 -7.505,7.505c0,4.145 3.36,7.505 7.505,7.505c3.107,0 5.772,-1.888 6.911,-4.577c-1.186,4.859 -5.561,8.459 -10.802,8.495l-0.138,0c-3.515,-0.022 -6.647,-1.654 -8.676,-4.249l0,-13.988c2,-2.582 5.139,-4.23 8.745,-4.256Z" style="fill:#00a650;"/><circle cx="12" cy="12.554" r="11.25" style="fill:none;stroke:#515151;stroke-width:0.75px;"/></svg>