<?xml version="1.0" encoding="UTF-8" standalone="no"?><!DOCTYPE svg PUBLIC "-//W3C//DTD SVG 1.1//EN" "http://www.w3.org/Graphics/SVG/1.1/DTD/svg11.dtd"><svg width="100%" height="100%" viewBox="0 0 24 25" version="1.1" xmlns="http://www.w3.org/2000/svg" xmlns:xlink="http://www.w3.org/1999/xlink" xml:space="preserve" xmlns:serif="http://www.serif.com/" style="fill-rule:evenodd;clip-rule:evenodd;stroke-linecap:square;stroke-miterlimit:1.5;"><path d="M12.233,1.247c6.095,0.096 11.017,5.091 11.017,11.226c0,6.135 -4.922,11.13 -11.017,11.226l0,-22.452Z" style="fill:#ed1b2d;"/><path d="M12.233,1.247l0,22.452l-0.233,0.024c-6.209,0 -11.25,-5.041 -11.25,-11.25c0,-6.209 5.041,-11.25 11.25,-11.25l0.233,0.024Z" style="fill:#22923c;"/><path d="M15.825,13.611c0.361,-0.103 0.72,-0.206 1.007,-0.289c-0.057,0.315 -0.144,0.618 -0.26,0.907c-0.237,-0.196 -0.503,-0.416 -0.747,-0.618m-3.583,2.84c-0.2,0 -0.396,-0.02 -0.586,-0.054l0,0.729c-0.908,-0.113 -1.735,-0.484 -2.404,-1.04l1.479,0c-0.441,-0.225 -0.825,-0.545 -1.126,-0.934l-0.599,0c0.156,-0.064 0.312,-0.128 0.46,-0.19c-0.157,-0.236 -0.284,-0.494 -0.377,-0.767c-0.329,0.136 -0.698,0.288 -1.015,0.419c-0.2,-0.39 -0.346,-0.812 -0.43,-1.256c0.405,0.191 0.935,0.441 1.39,0.656c-0.075,-0.271 -0.118,-0.554 -0.12,-0.848c-0.333,-0.157 -0.671,-0.317 -0.951,-0.449c0.326,-0.109 0.667,-0.223 0.949,-0.317l0,-2.651c-0.123,-0.045 -0.244,-0.09 -0.359,-0.132c0.111,-0.144 0.231,-0.281 0.359,-0.41l0,-0.359l0.399,0c0.659,-0.53 1.464,-0.884 2.345,-0.993l0,0.993l0.981,0l0,-1.011c0.95,0.081 1.819,0.446 2.522,1.011l0.394,0l0,1.056c0.228,0.057 0.463,0.116 0.682,0.171c0.013,0.021 0.024,0.043 0.036,0.063c-0.206,0.094 -0.455,0.207 -0.718,0.326l0,0.785c0.373,-0.168 0.746,-0.337 1.031,-0.466c0.132,0.336 0.226,0.69 0.277,1.059c-0.445,-0.148 -0.951,-0.317 -1.308,-0.436l0,0.992c0.262,0.088 0.575,0.192 0.881,0.294c-0.268,0.077 -0.576,0.165 -0.881,0.253l0,0.191c0,0.577 -0.148,1.12 -0.407,1.593c0.167,0.138 0.343,0.283 0.512,0.423l-0.791,0c-0.298,0.389 -0.679,0.709 -1.119,0.934l1.47,0c-0.713,0.592 -1.604,0.975 -2.581,1.059l0,-0.719c-0.13,0.015 -0.261,0.025 -0.395,0.025m-4.473,-5.337c0.172,0.14 0.378,0.308 0.587,0.479c-0.245,0.082 -0.505,0.169 -0.747,0.25c0.034,-0.25 0.088,-0.494 0.16,-0.729m10.052,1.049c-0.017,-0.006 -0.063,-0.022 -0.131,-0.044c-0.043,-0.637 -0.194,-1.244 -0.436,-1.802c0.131,-0.017 0.158,-0.173 0.007,-0.23c-0.061,-0.134 -0.162,-0.319 -0.235,-0.438c0.079,-0.053 0.07,-0.179 -0.08,-0.217c-0.037,-0.009 -0.113,-0.028 -0.215,-0.054c-0.916,-1.32 -2.397,-2.217 -4.094,-2.34l0,-0.021c0,-0.165 -0.164,-0.204 -0.237,-0.11c-0.147,-0.007 -0.351,-0.004 -0.506,0.005c-0.072,-0.097 -0.238,-0.068 -0.238,0.105l0,0.035c-1.602,0.169 -2.997,1.03 -3.883,2.278c-0.026,-0.009 -0.044,-0.016 -0.053,-0.019c-0.158,-0.059 -0.252,0.091 -0.178,0.192c-0.131,0.204 -0.292,0.496 -0.385,0.702c-0.153,-0.004 -0.212,0.199 -0.03,0.266c0.006,0.002 0.014,0.005 0.022,0.008c-0.203,0.513 -0.331,1.064 -0.369,1.64c-0.068,0.022 -0.114,0.038 -0.131,0.044c-0.177,0.059 -0.135,0.27 0.023,0.267c-0.002,0.131 0.002,0.285 0.011,0.436c-0.139,0.086 -0.066,0.29 0.118,0.237c0.072,0.646 0.257,1.259 0.534,1.817c-0.005,0.002 -0.01,0.004 -0.013,0.005c-0.172,0.071 -0.121,0.267 0.033,0.252c0.051,0.097 0.122,0.217 0.193,0.326c-0.084,0.1 0.003,0.251 0.171,0.182c0.014,-0.006 0.035,-0.015 0.06,-0.025c0.886,1.243 2.278,2.101 3.877,2.269l0,0.036c0,0.173 0.166,0.201 0.238,0.104c0.155,0.009 0.359,0.012 0.506,0.005c0.073,0.094 0.237,0.055 0.237,-0.109l0,-0.021c1.578,-0.115 2.969,-0.899 3.893,-2.07c0.007,0.006 0.014,0.012 0.019,0.016c0.15,0.124 0.296,-0.029 0.216,-0.159c0.131,-0.185 0.302,-0.47 0.412,-0.687c0.125,0.014 0.207,-0.143 0.077,-0.25c-0.007,-0.006 -0.022,-0.018 -0.043,-0.035c0.235,-0.515 0.393,-1.071 0.458,-1.656c0.184,0.053 0.257,-0.151 0.118,-0.237c0.009,-0.151 0.013,-0.305 0.011,-0.436c0.158,0.003 0.2,-0.208 0.023,-0.267" style="fill:#fff200;fill-rule:nonzero;"/><path d="M14.867,15.152c0.103,-0.134 0.198,-0.274 0.279,-0.423c0.259,-0.473 0.407,-1.016 0.407,-1.594l0,-0.19l0,-0.546l0,-0.993l0,-0.157l0,-0.785l0,-0.56l0,-1.057l-0.394,0l-2.522,0l-0.981,0l-2.345,0l-0.399,0l0,4.288c0,0.011 0.001,0.02 0.001,0.031c0.003,0.294 0.046,0.577 0.121,0.848c0.017,0.061 0.035,0.121 0.055,0.181c0.093,0.273 0.22,0.531 0.377,0.767c0.044,0.066 0.091,0.128 0.14,0.19c0.3,0.389 0.684,0.709 1.126,0.934c0.286,0.147 0.597,0.252 0.924,0.311c0.19,0.034 0.386,0.054 0.586,0.054c0.134,0 0.265,-0.01 0.395,-0.025c0.396,-0.047 0.771,-0.165 1.111,-0.34c0.44,-0.225 0.821,-0.545 1.119,-0.934" style="fill:#ed1b2d;fill-rule:nonzero;"/><path d="M12.238,14.901c0.983,0 1.777,-0.876 1.777,-1.957l0,-2.529l-3.565,0l0,2.529c0,1.081 0.805,1.957 1.788,1.957" style="fill:#fff;fill-rule:nonzero;"/><rect x="9.141" y="9.057" width="1.012" height="1.176" style="fill:#fff200;"/><rect x="9.141" y="12.01" width="1.012" height="1.176" style="fill:#fff200;"/><path d="M10.738,14.477l-0.652,0.773l0.899,0.759l0.652,-0.773l-0.899,-0.759Z" style="fill:#fff200;"/><path d="M13.388,16.009l-0.653,-0.773l0.899,-0.759l0.653,0.773l-0.899,0.759Z" style="fill:#fff200;"/><rect x="11.723" y="9.057" width="1.012" height="1.176" style="fill:#fff200;"/><rect x="14.242" y="9.057" width="1.012" height="1.176" style="fill:#fff200;"/><rect x="14.242" y="12.01" width="1.012" height="1.176" style="fill:#fff200;"/><rect x="11.807" y="10.667" width="0.857" height="1.176" style="fill:#007ac2;"/><rect x="11.807" y="13.441" width="0.857" height="1.176" style="fill:#007ac2;"/><rect x="10.656" y="12.047" width="0.857" height="1.176" style="fill:#007ac2;"/><rect x="11.807" y="12.047" width="0.857" height="1.176" style="fill:#007ac2;"/><rect x="12.932" y="12.047" width="0.857" height="1.176" style="fill:#007ac2;"/><circle cx="12" cy="12.473" r="11.25" style="fill:none;stroke:#515151;stroke-width:0.75px;"/></svg>