<?xml version="1.0" encoding="UTF-8" standalone="no"?><!DOCTYPE svg PUBLIC "-//W3C//DTD SVG 1.1//EN" "http://www.w3.org/Graphics/SVG/1.1/DTD/svg11.dtd"><svg width="100%" height="100%" viewBox="0 0 24 24" version="1.1" xmlns="http://www.w3.org/2000/svg" xmlns:xlink="http://www.w3.org/1999/xlink" xml:space="preserve" xmlns:serif="http://www.serif.com/" style="fill-rule:evenodd;clip-rule:evenodd;stroke-linecap:square;stroke-miterlimit:1.5;"><path d="M8.855,1.306c0.997,-0.346 2.053,-0.502 3.145,-0.502c6.209,0 11.25,5.041 11.25,11.25c0,6.181 -4.996,11.205 -11.25,11.25l-2.266,-0.229l-0.882,-0.274l2.291,-0.749l-3.828,-1.25l3.828,-1.25l-3.828,-1.25l3.828,-1.25l-3.828,-1.25l3.828,-1.25l-3.828,-1.25l3.828,-1.25l-3.828,-1.25l3.828,-1.25l-3.828,-1.25l3.828,-1.25l-3.828,-1.25l3.828,-1.25l-3.828,-1.25l3.828,-1.25l-2.288,-0.746Z" style="fill:#72103d;"/><path d="M11.143,2.052l-3.828,1.25l3.828,1.25l-3.828,1.25l3.828,1.25l-3.828,1.25l3.828,1.25l-3.828,1.25l3.828,1.25l-3.828,1.25l3.828,1.25l-3.828,1.25l3.828,1.25l-3.828,1.25l3.828,1.25l-3.828,1.25l3.828,1.25l-2.291,0.749c-4.679,-1.307 -8.102,-5.63 -8.102,-10.747c0,-5.117 3.423,-9.44 8.105,-10.748l2.288,0.746Z" style="fill:#fff;"/><circle cx="12" cy="12.054" r="11.25" style="fill:none;stroke:#515151;stroke-width:0.75px;"/></svg>