<?xml version="1.0" encoding="UTF-8" standalone="no"?><!DOCTYPE svg PUBLIC "-//W3C//DTD SVG 1.1//EN" "http://www.w3.org/Graphics/SVG/1.1/DTD/svg11.dtd"><svg width="100%" height="100%" viewBox="0 0 24 25" version="1.1" xmlns="http://www.w3.org/2000/svg" xmlns:xlink="http://www.w3.org/1999/xlink" xml:space="preserve" xmlns:serif="http://www.serif.com/" style="fill-rule:evenodd;clip-rule:evenodd;stroke-linecap:square;stroke-miterlimit:1.5;"><path d="M18.015,2.997c3.142,1.959 5.235,5.475 5.235,9.476c0,4.001 -2.093,7.517 -5.235,9.476l0,-18.952Z" style="fill:#ed1c24;"/><path d="M7.883,2.027c1.269,-0.527 2.661,-0.804 4.117,-0.804c2.208,0 4.268,0.637 6.015,1.774l0,18.952c-1.747,1.137 -3.807,1.774 -6.015,1.774c-1.456,0 -2.848,-0.277 -4.117,-0.804l0,-20.892Z" style="fill:#ffcb03;"/><path d="M7.883,2.027l0,20.892c-4.179,-1.625 -7.133,-5.693 -7.133,-10.446c0,-4.753 2.954,-8.821 7.133,-10.446Z" style="fill:#0071bc;"/><circle cx="12" cy="12.473" r="11.25" style="fill:none;stroke:#515151;stroke-width:0.75px;"/></svg>