<?xml version="1.0" encoding="UTF-8" standalone="no"?><!DOCTYPE svg PUBLIC "-//W3C//DTD SVG 1.1//EN" "http://www.w3.org/Graphics/SVG/1.1/DTD/svg11.dtd"><svg width="100%" height="100%" viewBox="0 0 24 24" version="1.1" xmlns="http://www.w3.org/2000/svg" xmlns:xlink="http://www.w3.org/1999/xlink" xml:space="preserve" xmlns:serif="http://www.serif.com/" style="fill-rule:evenodd;clip-rule:evenodd;stroke-linecap:square;stroke-miterlimit:1.5;"><path d="M12,23.304c-6.254,-0.045 -11.25,-5.069 -11.25,-11.25c0,-6.209 5.041,-11.25 11.25,-11.25c6.209,0 11.25,5.041 11.25,11.25c0,6.181 -4.996,11.205 -11.25,11.25Z" style="fill:#009a67;"/><path d="M5.713,15.937c2.72,4.407 11.131,1.539 10.525,0.037c-3.508,-0.013 -7.017,-0.024 -10.525,-0.037Zm12.065,0.72c0.062,-0.747 -2.897,0.051 0,0Zm0.319,-10.387c0.001,-0.141 -0.003,-0.302 -0.017,-0.496c0.585,0.11 1.45,0.436 1.809,3.314c0.086,-1.246 0.224,-2.595 0.353,-2.538c-0.116,1.537 -0.204,2.604 -0.271,3.325c0.001,0.016 0.003,0.029 0.004,0.046c-0.002,-0.006 -0.004,-0.009 -0.007,-0.015c-0.19,2.045 -0.196,1.149 -0.116,-0.233c-1.414,-2.889 -1.62,2.76 -3.584,1.764c-0.643,-1.722 -0.513,-2.011 0.39,-0.868c-0.117,0.233 2.026,-3.067 1.439,-4.298c-0.006,0.887 -0.292,0.739 -0.861,-0.456c0.463,0.005 0.729,0.179 0.861,0.455Zm-8.156,1.678l-0.004,-0.002c0.002,0.001 0.003,0.001 0.004,0.002c0.851,0.447 1.344,0.795 1.608,1.066c0.181,-0.067 0.395,-0.136 0.656,-0.208c0.009,-0.004 0.024,-0.008 0.046,-0.012c-0.015,0.004 -0.03,0.008 -0.046,0.012c-0.117,0.066 0.948,0.303 -0.088,2.619c0,0 0,0.001 -0.001,0.002l0.001,-0.002c0.269,-0.605 -1.057,-0.843 -2.445,-0.807c0.468,-0.885 0.694,-2.442 0.269,-2.67Zm-3.085,3.444c0.102,-0.435 0.615,-1.039 1.126,-1.628c-0.002,-0.007 -0.004,-0.01 -0.006,-0.019c0.006,-0.003 0.012,0.005 0.018,0.006c0.451,-0.519 0.899,-1.024 1.061,-1.387c0.23,-0.506 0.369,1.319 0.162,2.274c-1.168,0.08 -2.262,0.349 -2.361,0.754c-0.001,0.003 -0.001,0.005 -0.002,0.007c0.001,-0.002 0.001,-0.004 0.002,-0.007Zm1.833,-0.301c0.266,0.245 0.433,-0.013 0.528,-0.452c0.152,-0.011 0.303,-0.017 0.455,-0.021c-0.272,0.516 -0.626,0.804 -0.983,0.473c-0.012,-0.012 -0.024,-0.024 -0.037,-0.037c0.012,0.013 0.025,0.025 0.037,0.037Zm3.656,-4.585c0.2,1.386 1.992,3.99 2.586,3.976c0.052,1.257 0.247,1.248 0.45,-3.811c-0.295,-0.115 -0.427,1.263 -0.457,2.525c-0.627,-2.192 -1.954,-3.705 -2.372,-3.455c-0.169,0.101 -0.231,0.303 -0.226,0.561c0.032,0.035 0.059,0.061 0.093,0.101c-0.021,0.036 -0.05,0.069 -0.074,0.103Zm6.318,4.329c-0.2,0.231 0.326,0.475 0,0Zm-13.1,-0.168c-0.715,0.139 -0.507,-0.234 -0.083,-0.681c-1.143,0.698 -1.76,1.285 0.051,1.017c1.63,-0.233 2.408,-0.793 0.032,-0.336Zm1.147,-1.842c1.051,-0.466 0.912,-0.787 0.745,-0.924c0.166,0.07 0.507,0.189 1.18,0.371c0.059,0.016 -1.877,0.934 -3.155,1.714c0.517,-0.544 1.354,-1.196 1.23,-1.161c-0.013,0.006 -0.026,0.012 -0.039,0.017c0.018,-0.009 0.031,-0.014 0.039,-0.017Zm9.448,-2.097c-1.618,6.395 0.642,0.524 0,0Zm-11.263,-0.834c0.022,-0.024 0.045,-0.049 0.069,-0.075c-0.022,0.025 -0.045,0.05 -0.069,0.075c-1.242,1.39 0.892,1.096 1.205,0.681c0.515,0.968 -0.863,3.065 -0.993,1.617c-2.048,0.028 -0.932,-1.503 -0.212,-2.298Zm12.042,1.752c0.759,0.787 0.272,-1.127 0,0Zm-6.23,-0.911c-0.115,-0.388 -0.229,-0.914 -0.088,-0.908c0.115,0.014 0.168,0.703 0.14,0.905c0.537,-0.031 1.035,-0.032 1.219,0.158c-1.095,0.87 -3.281,1.043 -2.931,-0.396c-0.002,0.388 0.857,0.29 1.66,0.241Zm8.623,-0.589c0.145,0.015 0.259,1.332 0.153,1.03c-0.111,-0.431 -0.292,-0.996 -0.166,-1.029c0.004,0 0.009,-0.001 0.013,-0.001Zm-10.886,0.335c-1.198,-1.04 0.823,1.646 0,0Zm3.901,0.025c-0.011,-0.071 -0.017,-0.14 -0.019,-0.204c-0.546,-0.611 -0.655,-0.421 -0.326,0.57c0.137,-0.111 0.251,-0.234 0.345,-0.366Zm1.936,-0.678c0.19,0.017 0.303,1.568 0.099,0.699c-0.072,-0.304 -0.232,-0.7 -0.099,-0.699Zm-8.793,0.325c0.312,0.059 0.503,0.216 0.612,0.422c0.114,-0.15 -0.005,-0.315 -0.612,-0.422Z" style="fill:#fff;fill-rule:nonzero;"/><circle cx="12" cy="12.054" r="11.25" style="fill:none;stroke:#515151;stroke-width:0.75px;"/></svg>