<?xml version="1.0" encoding="UTF-8" standalone="no"?><!DOCTYPE svg PUBLIC "-//W3C//DTD SVG 1.1//EN" "http://www.w3.org/Graphics/SVG/1.1/DTD/svg11.dtd"><svg width="100%" height="100%" viewBox="0 0 24 25" version="1.1" xmlns="http://www.w3.org/2000/svg" xmlns:xlink="http://www.w3.org/1999/xlink" xml:space="preserve" xmlns:serif="http://www.serif.com/" style="fill-rule:evenodd;clip-rule:evenodd;stroke-linecap:square;stroke-miterlimit:1.5;"><path d="M23.229,12.341l0.021,0.213c0,6.181 -4.996,11.205 -11.25,11.25c-6.048,-0.043 -10.92,-4.744 -11.189,-10.646l0,-0.817l22.418,0Z" style="fill:#fff;"/><path d="M13.093,1.413c5.594,0.478 10.003,5.135 10.136,10.928l-22.418,0l0,-0.34c0.231,-5.585 4.571,-10.099 10.096,-10.588l2.186,0Z" style="fill:#ed1c24;"/><path d="M5.504,7.041c-0.055,-2.95 2.786,-4.262 2.786,-4.262c-6.229,-0.492 -6.327,8.835 0,8.251c-3.005,-1.476 -2.786,-3.989 -2.786,-3.989m4.917,-2.377l0.579,-0.453l-0.747,0l-0.247,-0.667l-0.26,0.667l-0.723,0l0.55,0.445l-0.278,0.713l0.7,-0.361l0.699,0.394l-0.273,-0.738Zm2.836,1.186l-0.748,0l-0.247,-0.667l-0.259,0.667l-0.724,0l0.551,0.445l-0.278,0.713l0.7,-0.36l0.699,0.393l-0.274,-0.738l0.58,-0.453Zm-5.272,-0.022l-0.247,-0.666l-0.259,0.666l-0.724,0l0.55,0.445l-0.277,0.713l0.699,-0.36l0.7,0.393l-0.274,-0.738l0.58,-0.453l-0.748,0Zm0.896,2.634l-0.247,-0.667l-0.259,0.667l-0.724,0l0.551,0.445l-0.278,0.713l0.7,-0.361l0.699,0.394l-0.274,-0.738l0.58,-0.453l-0.748,0Zm3.502,0.01l-0.58,0.454l0.274,0.738l-0.7,-0.394l-0.699,0.361l0.277,-0.713l-0.55,-0.446l0.724,0l0.259,-0.666l0.247,0.666l0.748,0Z" style="fill:#fff;fill-rule:nonzero;"/><circle cx="12" cy="12.554" r="11.25" style="fill:none;stroke:#515151;stroke-width:0.75px;"/></svg>