<?xml version="1.0" encoding="UTF-8" standalone="no"?><!DOCTYPE svg PUBLIC "-//W3C//DTD SVG 1.1//EN" "http://www.w3.org/Graphics/SVG/1.1/DTD/svg11.dtd"><svg width="100%" height="100%" viewBox="0 0 24 25" version="1.1" xmlns="http://www.w3.org/2000/svg" xmlns:xlink="http://www.w3.org/1999/xlink" xml:space="preserve" xmlns:serif="http://www.serif.com/" style="fill-rule:evenodd;clip-rule:evenodd;stroke-linecap:square;stroke-miterlimit:1.5;"><path d="M22.56,8.723c0.465,1.181 0.69,2.439 0.69,3.75c0,1.311 -0.225,2.569 -0.69,3.75l-7.524,0c0.618,-0.676 1.056,-1.469 1.383,-2.364c0.548,-1.503 0.321,-4.141 0.259,-5.136l5.882,0Z" style="fill:#0060a9;"/><path d="M1.44,8.723l5.581,0c-0.049,0.859 -0.303,3.594 0.259,5.136c0.316,0.865 0.736,1.635 1.383,2.364l-7.223,0c-0.465,-1.181 -0.69,-2.439 -0.69,-3.75c0,-1.311 0.225,-2.569 0.69,-3.75Z" style="fill:#0060a9;"/><path d="M1.44,16.223l7.223,0c0.753,0.963 1.812,1.706 3.187,2.22c1.375,-0.514 2.433,-1.257 3.186,-2.22l7.524,0c-1.49,4.362 -5.662,7.5 -10.56,7.5c-4.898,0 -9.07,-3.138 -10.56,-7.5Z" style="fill:#ed1b2d;"/><path d="M12,1.223c4.881,0.035 8.997,3.104 10.56,7.5l-21.12,0c1.521,-4.348 5.593,-7.426 10.56,-7.5Z" style="fill:#fff;"/><path d="M1.44,8.723l21.12,0l-5.882,0c0.073,1.126 0.275,3.67 -0.259,5.136l-0.638,1.34l-0.745,1.024l-6.373,0l-0.745,-1.024l-0.638,-1.34c-0.562,-1.542 -0.308,-4.277 -0.259,-5.136l-5.581,0Z" style="fill:#fff;"/><path d="M13.893,17.297l-0.315,0.255l-1.728,0.891l-1.729,-0.891l-0.315,-0.255l-1.143,-1.074l6.373,0l-1.143,1.074Z" style="fill:#fff;"/><path d="M16.251,6.843c0.081,1.652 0.223,4.187 0.162,5.445c-0.044,0.912 -0.649,4.239 -4.563,5.821c-3.915,-1.582 -4.519,-4.909 -4.564,-5.821c-0.06,-1.258 0.081,-3.793 0.163,-5.445l8.802,0Z" style="fill:#ed1b2d;fill-rule:nonzero;"/><path d="M11.85,7.319c0.152,0 0.507,0.005 0.638,-0.03c-0.121,0.395 -0.223,1.146 -0.223,1.703c0.457,0.122 1.562,-0.101 1.897,-0.253c-0.041,0.385 -0.071,1.095 0.06,1.409c-0.436,-0.162 -1.054,-0.263 -1.957,-0.263l0,1.156c0.751,0.091 2.059,-0.132 2.424,-0.254c-0.091,0.406 -0.091,1.065 -0.03,1.379c-0.548,-0.233 -1.633,-0.314 -2.394,-0.314l0,1.845c-0.106,-0.045 -0.263,-0.096 -0.415,-0.096c-0.153,0 -0.31,0.051 -0.416,0.096l0,-1.845c-0.761,0 -1.846,0.081 -2.393,0.314c0.06,-0.314 0.06,-0.973 -0.031,-1.379c0.365,0.122 1.674,0.345 2.424,0.254l0,-1.156c-0.903,0 -1.521,0.101 -1.957,0.263c0.132,-0.314 0.101,-1.024 0.061,-1.409c0.334,0.152 1.439,0.375 1.896,0.253c0,-0.557 -0.102,-1.308 -0.223,-1.703c0.132,0.035 0.486,0.03 0.639,0.03" style="fill:#fff;fill-rule:nonzero;"/><path d="M11.85,18.109c1.822,-0.737 2.927,-1.852 3.592,-2.925c-0.195,-0.488 -0.596,-0.883 -1.138,-0.883c-0.543,0 -0.857,0.4 -1.045,0.639c-0.258,-0.776 -0.811,-1.334 -1.409,-1.334c-0.599,0 -1.151,0.558 -1.41,1.334c-0.188,-0.239 -0.502,-0.639 -1.044,-0.639c-0.543,0 -0.944,0.395 -1.139,0.883c0.665,1.073 1.77,2.188 3.593,2.925" style="fill:#0060a9;fill-rule:nonzero;"/><circle cx="12" cy="12.473" r="11.25" style="fill:none;stroke:#515151;stroke-width:0.75px;"/></svg>