<?xml version="1.0" encoding="UTF-8" standalone="no"?><!DOCTYPE svg PUBLIC "-//W3C//DTD SVG 1.1//EN" "http://www.w3.org/Graphics/SVG/1.1/DTD/svg11.dtd"><svg width="100%" height="100%" viewBox="0 0 24 24" version="1.1" xmlns="http://www.w3.org/2000/svg" xmlns:xlink="http://www.w3.org/1999/xlink" xml:space="preserve" xmlns:serif="http://www.serif.com/" style="fill-rule:evenodd;clip-rule:evenodd;stroke-linecap:square;stroke-miterlimit:1.5;"><path d="M22.56,8.304c0.465,1.181 0.69,2.439 0.69,3.75c0,1.311 -0.225,2.569 -0.69,3.75l-21.12,0c-0.465,-1.181 -0.69,-2.439 -0.69,-3.75c0,-1.311 0.225,-2.569 0.69,-3.75l21.12,0Z" style="fill:#fff;"/><path d="M1.44,8.304c1.49,-4.362 5.662,-7.5 10.56,-7.5c4.898,0 9.07,3.138 10.56,7.5l-21.12,0Z" style="fill:#e1393e;"/><path d="M22.56,15.804c-1.49,4.362 -5.662,7.5 -10.56,7.5c-4.898,0 -9.07,-3.138 -10.56,-7.5l21.12,0Z" style="fill:#231f20;"/><path d="M6.75,9.331l-0.684,2.126l-2.249,0l1.826,1.322l-0.702,2.124l1.809,-1.32l1.808,1.32l-0.692,-2.142l1.817,-1.295l-2.24,0l-0.693,-2.135Z" style="fill:#00ab66;fill-rule:nonzero;"/><path d="M18.017,9.331l-0.684,2.126l-2.25,0l1.827,1.322l-0.702,2.124l1.809,-1.32l1.808,1.32l-0.692,-2.142l1.817,-1.295l-2.24,0l-0.693,-2.135Z" style="fill:#00ab66;fill-rule:nonzero;"/><circle cx="12" cy="12.054" r="11.25" style="fill:none;stroke:#515151;stroke-width:0.75px;"/></svg>