<?xml version="1.0" encoding="UTF-8" standalone="no"?><!DOCTYPE svg PUBLIC "-//W3C//DTD SVG 1.1//EN" "http://www.w3.org/Graphics/SVG/1.1/DTD/svg11.dtd"><svg width="100%" height="100%" viewBox="0 0 24 25" version="1.1" xmlns="http://www.w3.org/2000/svg" xmlns:xlink="http://www.w3.org/1999/xlink" xml:space="preserve" xmlns:serif="http://www.serif.com/" style="fill-rule:evenodd;clip-rule:evenodd;stroke-linecap:square;stroke-miterlimit:1.5;"><circle id="bandera-tailandia" cx="12" cy="12.223" r="11.25" style="fill:#fff;"/><path d="M20.474,19.545c-2.027,2.418 -5.075,3.928 -8.474,3.928c-3.399,0 -6.447,-1.51 -8.474,-3.928l16.948,0Z" style="fill:#ed1c24;"/><path d="M3.526,4.901c2.027,-2.418 5.075,-3.928 8.474,-3.928c3.399,0 6.447,1.51 8.474,3.928l-16.948,0Z" style="fill:#ed1c24;"/><path d="M22.622,8.672c0.428,1.121 0.628,2.313 0.628,3.551c0,1.197 -0.187,2.351 -0.579,3.393l-21.342,0c-0.392,-1.042 -0.579,-2.196 -0.579,-3.393c0,-1.238 0.2,-2.43 0.628,-3.551l21.244,0Z" style="fill:#2e3092;"/><circle cx="12" cy="12.223" r="11.25" style="fill:none;stroke:#515151;stroke-width:0.75px;"/></svg>