<?xml version="1.0" encoding="UTF-8" standalone="no"?><!DOCTYPE svg PUBLIC "-//W3C//DTD SVG 1.1//EN" "http://www.w3.org/Graphics/SVG/1.1/DTD/svg11.dtd"><svg width="100%" height="100%" viewBox="0 0 24 25" version="1.1" xmlns="http://www.w3.org/2000/svg" xmlns:xlink="http://www.w3.org/1999/xlink" xml:space="preserve" xmlns:serif="http://www.serif.com/" style="fill-rule:evenodd;clip-rule:evenodd;stroke-linecap:square;stroke-miterlimit:1.5;"><path d="M1.876,7.401c1.755,-3.792 5.634,-6.428 10.124,-6.428c4.49,0 8.369,2.636 10.124,6.428l-20.248,0Z" style="fill:#ee324e;"/><path d="M22.124,17.044c-1.744,3.77 -5.588,6.398 -10.114,6.428l-0.02,0c-4.488,-0.032 -8.331,-2.636 -10.114,-6.428l20.248,0Z" style="fill:#61bb46;"/><path d="M22.124,7.401c0.74,1.474 1.126,3.103 1.126,4.822c0,1.719 -0.386,3.348 -1.126,4.821l-20.248,0c-0.74,-1.473 -1.126,-3.102 -1.126,-4.821c0,-1.719 0.386,-3.348 1.126,-4.822l20.248,0Z" style="fill:#fff;"/><path d="M14.326,15.352c0.077,-0.014 0.095,-0.049 0.01,-0.09c-0.045,-0.022 -0.204,-0.055 -0.289,-0.043c0.019,-0.101 -0.05,-0.365 -0.103,-0.485c-0.085,0.099 -0.228,0.332 -0.239,0.434c-0.078,-0.036 -0.24,-0.051 -0.289,-0.043c-0.094,0.015 -0.087,0.054 -0.017,0.089c0.069,0.036 0.2,0.25 0.432,0.285c0.232,0.034 0.419,-0.134 0.495,-0.147m1.736,-2.411l-0.47,0l0.394,0.245l-0.166,0.443l0.367,-0.294l0.367,0.294l-0.167,-0.439l0.396,-0.249l-0.472,0l-0.124,-0.443l-0.125,0.443Zm-0.484,-2.187l-0.47,0l0.394,0.245l-0.166,0.443l0.367,-0.294l0.367,0.294l-0.167,-0.439l0.396,-0.249l-0.473,0l-0.123,-0.443l-0.125,0.443Zm-1.542,-1.624l-0.47,0l0.394,0.245l-0.166,0.443l0.367,-0.295l0.367,0.295l-0.167,-0.44l0.395,-0.248l-0.472,0l-0.123,-0.443l-0.125,0.443Zm-4.987,6.883l0.082,0.353c0.623,-0.184 1.999,-0.394 2.871,-0.394c0.873,0 2.249,0.21 2.872,0.394l0.082,-0.353c-0.576,-0.189 -2.04,-0.42 -2.954,-0.42c-0.913,0 -2.377,0.231 -2.953,0.42m2.953,-2.666c0.223,1.086 1.193,1.835 2.057,0.634c0.231,1.283 1.448,1.267 1.827,0.469c-0.658,0.362 -1.423,0.181 -1.81,-0.601c-0.527,0.576 -1.457,0.272 -1.769,-0.263c-0.313,-0.535 -0.247,-1.572 -0.107,-1.81c0.14,-0.239 0.493,-0.231 0.666,-0.017c0.083,-0.617 -0.321,-1.02 -0.864,-1.02c-0.543,0 -0.946,0.403 -0.864,1.02c0.173,-0.214 0.527,-0.222 0.667,0.017c0.14,0.238 0.205,1.275 -0.107,1.81c-0.313,0.535 -1.242,0.839 -1.769,0.263c-0.387,0.782 -1.152,0.963 -1.81,0.601c0.378,0.798 1.596,0.814 1.826,-0.469c0.864,1.201 1.835,0.452 2.057,-0.634m-1.828,2.152c0.232,-0.035 0.362,-0.249 0.432,-0.285c0.07,-0.035 0.076,-0.074 -0.017,-0.089c-0.049,-0.008 -0.211,0.007 -0.289,0.043c-0.011,-0.102 -0.154,-0.335 -0.239,-0.434c-0.053,0.12 -0.122,0.384 -0.103,0.485c-0.085,-0.012 -0.244,0.021 -0.289,0.043c-0.085,0.041 -0.068,0.076 0.009,0.09c0.077,0.013 0.264,0.181 0.496,0.147m1.828,-0.222c0.235,0 0.395,-0.194 0.469,-0.218c0.074,-0.025 0.087,-0.062 -0.004,-0.091c-0.047,-0.015 -0.21,-0.025 -0.292,0c0.004,-0.103 -0.103,-0.354 -0.173,-0.465c-0.07,0.111 -0.176,0.362 -0.172,0.465c-0.083,-0.025 -0.245,-0.015 -0.293,0c-0.09,0.029 -0.078,0.066 -0.004,0.091c0.074,0.024 0.235,0.218 0.469,0.218m-4.185,-2.779l-0.123,0.443l-0.472,0l0.396,0.249l-0.168,0.439l0.367,-0.294l0.368,0.294l-0.166,-0.443l0.394,-0.245l-0.471,0l-0.125,-0.443Zm0.485,-2.187l-0.124,0.443l-0.472,0l0.396,0.249l-0.167,0.439l0.367,-0.294l0.367,0.294l-0.166,-0.443l0.394,-0.245l-0.47,0l-0.125,-0.443Zm1.542,-1.624l-0.124,0.443l-0.472,0l0.396,0.248l-0.167,0.44l0.367,-0.295l0.367,0.295l-0.166,-0.443l0.394,-0.245l-0.47,0l-0.125,-0.443Zm2.283,-0.155l0.471,0l-0.394,0.245l0.166,0.442l-0.368,-0.294l-0.367,0.294l0.168,-0.439l-0.396,-0.248l0.472,0l0.123,-0.444l0.125,0.444Z" style="fill:#f3cf1e;fill-rule:nonzero;"/><circle cx="12" cy="12.223" r="11.25" style="fill:none;stroke:#515151;stroke-width:0.75px;"/></svg>