<?xml version="1.0" encoding="UTF-8" standalone="no"?><!DOCTYPE svg PUBLIC "-//W3C//DTD SVG 1.1//EN" "http://www.w3.org/Graphics/SVG/1.1/DTD/svg11.dtd"><svg width="100%" height="100%" viewBox="0 0 24 25" version="1.1" xmlns="http://www.w3.org/2000/svg" xmlns:xlink="http://www.w3.org/1999/xlink" xml:space="preserve" xmlns:serif="http://www.serif.com/" style="fill-rule:evenodd;clip-rule:evenodd;stroke-linecap:square;stroke-miterlimit:1.5;"><circle cx="12" cy="12.223" r="11.25" style="fill:#009b67;"/><path d="M7,2.196l0,20.054c-3.707,-1.795 -6.25,-5.617 -6.25,-10.027c0,-4.41 2.543,-8.232 6.25,-10.027Z" style="fill:#8b105e;"/><path d="M5.335,21.239c0.234,-0.408 0.608,-0.599 0.676,-0.726l0.063,0.022c-0.024,0.35 -0.275,0.696 -0.58,0.836l-0.159,-0.132Z" style="fill:#f8991c;"/><path d="M5.099,21.045c0.023,-0.273 0.103,-0.526 0.259,-0.746c0.024,-0.033 0.064,-0.056 0.066,0.038l-0.16,0.844l-0.165,-0.136Z" style="fill:#f8991c;"/><path d="M6.203,19.7c-0.014,0.036 -0.108,0.16 -0.188,0.234c-0.08,0.072 -0.21,0.255 -0.233,0.368c-0.024,0.113 -0.099,0.179 -0.151,0.187c0.146,-0.174 0.059,-0.513 -0.028,-0.902c-0.009,-0.037 -0.025,-0.043 -0.045,-0.004c-0.106,0.209 -0.129,0.513 -0.063,0.784c0.025,0.106 0.061,0.207 0.035,0.414c-0.002,0.019 0.021,0.019 0.042,0.009c0.365,-0.162 0.725,-0.692 0.678,-1.052l-0.047,-0.038Z" style="fill:#f8991c;"/><path d="M6.029,19.529c-0.071,0.096 -0.125,0.2 -0.141,0.31c-0.005,0.031 -0.026,0.066 -0.05,0.052c-0.023,-0.014 -0.01,-0.05 0.01,-0.085c0.059,-0.101 0.044,-0.541 -0.04,-0.774c-0.02,-0.054 -0.062,-0.059 -0.057,-0.017c0.005,0.043 0.003,0.113 -0.028,0.226c-0.031,0.113 -0.047,0.283 -0.017,0.426c0.031,0.144 0.057,0.337 0.04,0.429c-0.011,0.063 0.05,0.045 0.071,0.009c0.021,-0.035 0.076,-0.124 0.115,-0.157c0.161,-0.137 0.372,-0.389 0.377,-0.836c0.001,-0.04 -0.017,-0.088 -0.04,-0.05c-0.021,0.036 -0.088,0.109 -0.106,0.175l-0.134,0.292Z" style="fill:#f8991c;"/><path d="M4.8,17.22l0.735,0.736l0,1.339l-0.735,0.735l-0.874,0l-1.254,-1.519l-0.701,-1.291l2.829,0Z" style="fill:#f8991c;"/><path d="M6.073,18.535c-0.16,0.268 -0.138,0.607 -0.127,0.952c0.001,0.036 0.029,0.042 0.06,-0.008c0.17,-0.277 0.176,-0.623 0.124,-0.934l-0.057,-0.01Z" style="fill:#f8991c;"/><path d="M6.176,18.232l-0.49,-0.356l0.326,0l0,-0.095l-0.603,-0.383l0.292,-0.218l-0.174,-0.11l-0.29,0.218l-0.754,-0.479l0.754,-0.48l0.29,0.218l0.174,-0.109l-0.292,-0.218l0.603,-0.384l0,-0.095l-0.326,0l0.49,-0.355l0,2.846Z" style="fill:#f8991c;"/><path d="M1.008,14.583l0.2,0c0,0 0.001,-0.242 0,-0.241l0.1,-0.1l-0.125,-0.126l0.13,-0.059l0,-0.174l0.174,0l0.059,-0.131l0.126,0.126l0.041,-0.042l0.938,0l0,-0.333l0.206,0.109l0,-0.234l0.207,0.11l0.184,-0.214l0.184,0.214l0.207,-0.11l0,0.234l0.207,-0.109l0,0.333l0.937,0l0.041,0.042l0.126,-0.126l0.059,0.131l0.174,0l0,0.174l0.131,0.059l-0.126,0.126l0.1,0.1l0,0.241l0.229,0l-0.096,0.104l0.281,0l-0.114,0.122l0.222,0.18c-0.001,0.001 -0.222,0.181 -0.222,0.181l0.114,0.122l-0.281,0l0.096,0.103l-0.229,0l0,0.244l-0.1,0.1l0.126,0.126l-0.131,0.059l0,0.174l-0.174,0l-0.059,0.131l-0.126,-0.126l-0.041,0.041l-0.937,0l0,0.334l-0.207,-0.11l0,0.234l-0.207,-0.109l-0.184,0.213l-0.184,-0.213l-0.207,0.109l0,-0.234l-0.206,0.11l0,-0.334l-0.938,0l-0.041,-0.041l-0.126,0.126l-0.059,-0.131l-0.008,0l-0.439,-1.411l0.035,0l-0.052,-0.057l-0.015,-0.047Z" style="fill:#f8991c;"/><path d="M5.686,12.107l0.49,-0.355l0,2.846l-0.49,-0.356l0.326,0l0,-0.095l-0.603,-0.384l0.292,-0.217l-0.174,-0.11l-0.29,0.218l-0.754,-0.479l0.754,-0.48l0.29,0.218l0.174,-0.11l-0.292,-0.217l0.603,-0.384l0,-0.095l-0.326,0Z" style="fill:#f8991c;"/><path d="M0.809,12.811l0.161,0.102l0.29,-0.218l0.755,0.48l-0.755,0.479l-0.29,-0.218l-0.092,0.058l-0.069,-0.683Z" style="fill:#f8991c;"/><path d="M3.837,9.967l0.702,0.334l0,0.09l0.552,0l0,0.414l0.444,0l0,1.103l-0.444,0l0,0.414l-0.552,0l0,0.09l-0.702,0.334l-1.178,0l-0.702,-0.334l0,-0.09l-0.552,0l0,-0.414l-0.443,0l0,-1.103l0.443,0l0,-0.414l0.552,0l0,-0.09l0.702,-0.334l1.178,0Z" style="fill:#f8991c;"/><path d="M5.686,8.471l0.49,-0.356l0,2.846l-0.49,-0.355l0.326,0l0,-0.095l-0.603,-0.384l0.292,-0.217l-0.174,-0.11l-0.29,0.218l-0.754,-0.48l0.754,-0.479l0.29,0.218l0.174,-0.11l-0.292,-0.218l0.603,-0.383l0,-0.095l-0.326,0Z" style="fill:#f8991c;"/><path d="M1.257,9.061l0.003,-0.002l0.755,0.479l-0.755,0.48l-0.243,-0.183l0.24,-0.774Z" style="fill:#f8991c;"/><path d="M2.311,6.6l0.455,0l0,0.358l0.072,0l0,-0.83l0.238,0.118l0.173,-0.179l0.173,0.179l0.237,-0.118l0,0.83l0.072,0l0,-0.358l0.551,0l0,0.538l0.049,0.048l0,-0.332l0.583,0l0,0.499l0.049,0l0,-0.223l0.636,0l0,0.322l0.21,0l-0.151,0.269l0.151,0.268l-0.21,0l0,0.323l-0.636,0l0,-0.223l-0.049,0l0,0.499l-0.583,0l0,-0.332l-0.049,0.048l0,0.537l-0.551,0l0,-0.357l-0.072,0l0,0.83l-0.237,-0.118l-0.173,0.179l-0.173,-0.179l-0.238,0.118l0,-0.83l-0.072,0l0,0.357l-0.55,0l0,-0.537l-0.049,-0.048l0,0.332l-0.584,0l0,-0.499l-0.024,0l0.076,-0.243l0.532,-0.98l0,0.32l0.049,-0.048l0,-0.363l0.095,-0.175Z" style="fill:#f8991c;"/><path d="M6.176,7.326l-0.49,-0.355l0.326,0l0,-0.095l-0.603,-0.384l0.292,-0.218l-0.174,-0.11l-0.29,0.219l-0.754,-0.48l0.754,-0.479l0.29,0.218l0.174,-0.11l-0.292,-0.218l0.603,-0.383l0,-0.096l-0.326,0l0.49,-0.355l0,2.846Z" style="fill:#f8991c;"/><path d="M5.187,3.329l0,0.052l0.348,0.229l0,0.95l-0.348,0.229l0,0.166l-0.58,0.382l-0.155,-0.063l-0.347,0.229l-1.076,0l1.018,-1.233l1.14,-0.941Z" style="fill:#f8991c;"/><path d="M6.176,3.709l-0.49,-0.355l0.327,0l0,-0.096l-0.419,-0.266l0.118,-0.097l0.464,-0.252l0,1.066Z" style="fill:#f8991c;"/><path d="M12.664,7.39l0.48,0.345l-0.19,-0.558l0.479,-0.352l-0.591,0.004l-0.185,-0.562l-0.177,0.564l-0.595,0.002l0.482,0.347l-0.181,0.561l0.478,-0.351Zm-0.635,-2.8l-0.179,0.562l-0.595,0.001l0.483,0.348l-0.184,0.561l0.478,-0.35l0.479,0.347l-0.186,-0.561l0.479,-0.348l-0.591,0.002l-0.184,-0.562Zm-1.487,2.116l0.481,0.346l-0.19,-0.558l0.479,-0.353l-0.592,0.004l-0.184,-0.561l-0.177,0.563l-0.595,0.002l0.482,0.347l-0.181,0.561l0.477,-0.351Zm2.98,-3.111l-0.181,0.562l-0.594,0l0.483,0.349l-0.186,0.561l0.478,-0.349l0.477,0.349l-0.182,-0.566l0.48,-0.342l-0.592,0l-0.183,-0.564Zm-2.121,-0.683l-0.181,0.561l-0.594,0l0.482,0.349l-0.185,0.561l0.478,-0.348l0.477,0.348l-0.183,-0.565l0.48,-0.343l-0.591,0l-0.183,-0.563Zm5.087,3.93c0.411,-1.275 -0.258,-3.489 -2.635,-3.495c2.609,-0.86 4.772,1.615 4.023,3.942c-0.75,2.326 -3.951,3.073 -5.567,0.851c1.934,1.383 3.768,-0.024 4.179,-1.298" style="fill:#fff;fill-rule:nonzero;"/><circle cx="12" cy="12.223" r="11.25" style="fill:none;stroke:#515151;stroke-width:0.75px;"/></svg>