<?xml version="1.0" encoding="UTF-8" standalone="no"?><!DOCTYPE svg PUBLIC "-//W3C//DTD SVG 1.1//EN" "http://www.w3.org/Graphics/SVG/1.1/DTD/svg11.dtd"><svg width="100%" height="100%" viewBox="0 0 24 25" version="1.1" xmlns="http://www.w3.org/2000/svg" xmlns:xlink="http://www.w3.org/1999/xlink" xml:space="preserve" xmlns:serif="http://www.serif.com/" style="fill-rule:evenodd;clip-rule:evenodd;stroke-linecap:square;stroke-miterlimit:1.5;"><circle cx="12" cy="12.473" r="11.25" style="fill:#e41e25;"/><path d="M17.596,15.109c0.011,0.003 0.022,0.006 0.032,0.009c0.026,-0.033 0.053,-0.064 0.077,-0.097c0.342,-0.47 0.685,-0.938 1.022,-1.411c0.059,-0.083 0.109,-0.102 0.207,-0.069c0.541,0.182 1.084,0.356 1.626,0.533c0.049,0.015 0.099,0.027 0.179,0.049c-0.029,-0.051 -0.036,-0.067 -0.046,-0.082c-0.353,-0.485 -0.702,-0.971 -1.06,-1.452c-0.067,-0.089 -0.061,-0.144 0.001,-0.228c0.34,-0.459 0.674,-0.923 1.009,-1.385c0.028,-0.039 0.053,-0.08 0.098,-0.148c-0.082,0.023 -0.127,0.033 -0.17,0.047c-0.538,0.175 -1.076,0.348 -1.612,0.529c-0.111,0.037 -0.175,0.021 -0.244,-0.077c-0.272,-0.387 -0.553,-0.767 -0.831,-1.15c-0.085,-0.117 -0.171,-0.235 -0.257,-0.352c-0.01,0.004 -0.02,0.009 -0.031,0.014l0,0.15c0,0.568 -0.002,1.135 0.003,1.702c0,0.108 -0.023,0.162 -0.137,0.197c-0.492,0.151 -0.979,0.314 -1.468,0.474c-0.099,0.033 -0.197,0.068 -0.33,0.114c0.08,0.028 0.122,0.044 0.165,0.058c0.547,0.178 1.093,0.358 1.642,0.532c0.097,0.031 0.129,0.075 0.128,0.176c-0.005,0.511 -0.003,1.022 -0.003,1.533l0,0.334Zm-1.706,0.463c-1.868,1.911 -4.7,1.769 -6.382,0.152c-1.547,-1.488 -1.895,-3.902 -0.601,-5.784c0.794,-1.156 1.911,-1.812 3.315,-1.938c1.407,-0.126 2.601,0.359 3.619,1.319c-1.068,-1.672 -3.347,-2.914 -5.897,-2.333c-2.444,0.557 -4.271,2.716 -4.365,5.272c-0.1,2.734 1.752,5.023 4.193,5.659c2.49,0.649 4.899,-0.455 6.118,-2.347" style="fill:#fff;"/><circle cx="12" cy="12.473" r="11.25" style="fill:none;stroke:#515151;stroke-width:0.75px;"/></svg>