<?xml version="1.0" encoding="UTF-8" standalone="no"?><!DOCTYPE svg PUBLIC "-//W3C//DTD SVG 1.1//EN" "http://www.w3.org/Graphics/SVG/1.1/DTD/svg11.dtd"><svg width="100%" height="100%" viewBox="0 0 24 25" version="1.1" xmlns="http://www.w3.org/2000/svg" xmlns:xlink="http://www.w3.org/1999/xlink" xml:space="preserve" xmlns:serif="http://www.serif.com/" style="fill-rule:evenodd;clip-rule:evenodd;stroke-linecap:square;stroke-miterlimit:1.5;"><path id="bandera-usa" d="M12,23.804c-6.209,0 -11.25,-5.041 -11.25,-11.25c0,-6.209 5.041,-11.25 11.25,-11.25c6.209,0 11.25,5.041 11.25,11.25c0,6.209 -5.041,11.25 -11.25,11.25l0,0Z" style="fill:#d31145;"/><path id="bandera-usa1" serif:id="bandera-usa" d="M0.784,13.428c-0.023,-0.288 -0.034,-0.58 -0.034,-0.874c0,-6.209 5.041,-11.25 11.25,-11.25c0.712,0 1.408,0.066 2.083,0.193l0,11.931l-13.299,0Z" style="fill:#004990;"/><path id="bandera-usa2" serif:id="bandera-usa" d="M20.112,20.346c-0.625,0.65 -1.326,1.225 -2.09,1.71l-12.044,0c-0.764,-0.485 -1.465,-1.06 -2.09,-1.71l16.224,0Zm2.272,-3.459c-0.25,0.598 -0.55,1.17 -0.895,1.71l-18.978,0c-0.345,-0.54 -0.645,-1.112 -0.895,-1.71l20.768,0Zm0.832,-3.458c-0.045,0.584 -0.134,1.155 -0.265,1.71l-21.902,0c-0.131,-0.555 -0.22,-1.126 -0.265,-1.71l22.432,0Zm-0.265,-3.459c0.131,0.555 0.221,1.126 0.265,1.71l-9.172,0l0,-1.71l8.907,0Zm-1.462,-3.459c0.345,0.54 0.645,1.112 0.895,1.71l-8.34,0l0,-1.71l7.445,0Zm-3.467,-3.459c0.764,0.485 1.465,1.06 2.09,1.71l-6.068,0l0,-1.71l3.978,0Z" style="fill:#fff;"/><path d="M8.176,2.236l-0.505,0l-0.311,0l-0.116,0.312l-0.195,0.544l0.467,-0.35l0.427,0.31l-0.155,-0.504l0.388,-0.312Z" style="fill:#fff;fill-rule:nonzero;"/><path d="M10.78,2.236l-0.544,0l-0.156,-0.466l-0.155,0.466l-0.544,0l0.428,0.312l-0.156,0.544l0.427,-0.35l0.428,0.31l-0.156,-0.504l0.428,-0.312Z" style="fill:#fff;fill-rule:nonzero;"/><path d="M13.345,2.236l-0.505,0l-0.195,-0.466l-0.155,0.466l-0.505,0l0.427,0.312l-0.194,0.544l0.427,-0.35l0.428,0.31l-0.156,-0.504l0.428,-0.312Z" style="fill:#fff;fill-rule:nonzero;"/><path d="M5.612,4.763l-0.506,0l-0.155,-0.506l-0.195,0.506l-0.505,0l0.428,0.31l-0.195,0.506l0.467,-0.311l0.427,0.311l-0.194,-0.506l0.428,-0.31Z" style="fill:#fff;fill-rule:nonzero;"/><path d="M8.176,4.763l-0.505,0l-0.155,-0.506l-0.156,0.506l-0.544,0l0.428,0.31l-0.195,0.506l0.467,-0.311l0.427,0.311l-0.155,-0.506l0.388,-0.31Z" style="fill:#fff;fill-rule:nonzero;"/><path d="M10.78,4.763l-0.544,0l-0.156,-0.506l-0.155,0.506l-0.544,0l0.428,0.31l-0.156,0.506l0.427,-0.311l0.428,0.311l-0.156,-0.506l0.428,-0.31Z" style="fill:#fff;fill-rule:nonzero;"/><path d="M13.345,4.763l-0.505,0l-0.195,-0.506l-0.155,0.506l-0.505,0l0.427,0.31l-0.194,0.506l0.427,-0.311l0.428,0.311l-0.156,-0.506l0.428,-0.31Z" style="fill:#fff;fill-rule:nonzero;"/><path d="M3.047,7.25l-0.506,0l-0.194,-0.506l-0.155,0.506l-0.078,0.311l-0.194,0.505l0.427,-0.311l0.428,0.311l-0.156,-0.505l0.428,-0.311Z" style="fill:#fff;fill-rule:nonzero;"/><path d="M5.612,7.25l-0.506,0l-0.155,-0.506l-0.195,0.506l-0.505,0l0.428,0.311l-0.195,0.505l0.467,-0.311l0.427,0.311l-0.194,-0.505l0.428,-0.311Z" style="fill:#fff;fill-rule:nonzero;"/><path d="M8.176,7.25l-0.505,0l-0.155,-0.506l-0.156,0.506l-0.544,0l0.428,0.311l-0.195,0.505l0.467,-0.311l0.427,0.311l-0.155,-0.505l0.388,-0.311Z" style="fill:#fff;fill-rule:nonzero;"/><path d="M10.78,7.25l-0.544,0l-0.156,-0.506l-0.155,0.506l-0.544,0l0.428,0.311l-0.156,0.505l0.427,-0.311l0.428,0.311l-0.156,-0.505l0.428,-0.311Z" style="fill:#fff;fill-rule:nonzero;"/><path d="M13.345,7.25l-0.505,0l-0.195,-0.506l-0.155,0.506l-0.505,0l0.427,0.311l-0.194,0.505l0.427,-0.311l0.428,0.311l-0.156,-0.505l0.428,-0.311Z" style="fill:#fff;fill-rule:nonzero;"/><path d="M3.047,9.737l-0.506,0l-0.194,-0.467l-0.155,0.467l-0.505,0l0.427,0.311l-0.194,0.505l0.427,-0.311l0.428,0.311l-0.156,-0.505l0.428,-0.311Z" style="fill:#fff;fill-rule:nonzero;"/><path d="M5.612,9.737l-0.506,0l-0.155,-0.467l-0.195,0.467l-0.505,0l0.428,0.311l-0.195,0.505l0.467,-0.311l0.427,0.311l-0.194,-0.505l0.428,-0.311Z" style="fill:#fff;fill-rule:nonzero;"/><path d="M8.176,9.737l-0.505,0l-0.155,-0.467l-0.156,0.467l-0.544,0l0.428,0.311l-0.195,0.505l0.467,-0.311l0.427,0.311l-0.155,-0.505l0.388,-0.311Z" style="fill:#fff;fill-rule:nonzero;"/><path d="M10.78,9.737l-0.544,0l-0.156,-0.467l-0.155,0.467l-0.544,0l0.428,0.311l-0.156,0.505l0.427,-0.311l0.428,0.311l-0.156,-0.505l0.428,-0.311Z" style="fill:#fff;fill-rule:nonzero;"/><path d="M13.345,9.737l-0.505,0l-0.195,-0.467l-0.155,0.467l-0.505,0l0.427,0.311l-0.194,0.505l0.427,-0.311l0.428,0.311l-0.156,-0.505l0.428,-0.311Z" style="fill:#fff;fill-rule:nonzero;"/><path d="M6.855,3.48l-0.544,0l-0.156,-0.466l-0.155,0.466l-0.544,0l0.428,0.311l-0.156,0.544l0.427,-0.35l0.428,0.35l-0.156,-0.544l0.428,-0.311Z" style="fill:#fff;fill-rule:nonzero;"/><path d="M9.42,3.48l-0.505,0l-0.195,-0.466l-0.155,0.466l-0.505,0l0.427,0.311l-0.194,0.544l0.427,-0.35l0.428,0.35l-0.156,-0.544l0.428,-0.311Z" style="fill:#fff;fill-rule:nonzero;"/><path d="M11.985,3.48l-0.505,0l-0.156,-0.466l-0.155,0.466l-0.545,0l0.428,0.311l-0.194,0.544l0.466,-0.35l0.428,0.35l-0.195,-0.544l0.428,-0.311Z" style="fill:#fff;fill-rule:nonzero;"/><path d="M4.29,6.006l-0.544,0l-0.155,-0.505l-0.156,0.505l-0.544,0l0.428,0.311l-0.156,0.505l0.428,-0.311l0.427,0.311l-0.155,-0.505l0.427,-0.311Z" style="fill:#fff;fill-rule:nonzero;"/><path d="M6.855,6.006l-0.544,0l-0.156,-0.505l-0.155,0.505l-0.544,0l0.428,0.311l-0.156,0.505l0.427,-0.311l0.428,0.311l-0.156,-0.505l0.428,-0.311Z" style="fill:#fff;fill-rule:nonzero;"/><path d="M9.42,6.006l-0.505,0l-0.195,-0.505l-0.155,0.505l-0.505,0l0.427,0.311l-0.194,0.505l0.427,-0.311l0.428,0.311l-0.156,-0.505l0.428,-0.311Z" style="fill:#fff;fill-rule:nonzero;"/><path d="M11.985,6.006l-0.505,0l-0.156,-0.505l-0.155,0.505l-0.545,0l0.428,0.311l-0.194,0.505l0.466,-0.311l0.428,0.311l-0.195,-0.505l0.428,-0.311Z" style="fill:#fff;fill-rule:nonzero;"/><path d="M4.29,8.493l-0.544,0l-0.155,-0.466l-0.156,0.466l-0.544,0l0.428,0.311l-0.156,0.505l0.428,-0.311l0.427,0.311l-0.155,-0.505l0.427,-0.311Z" style="fill:#fff;fill-rule:nonzero;"/><path d="M6.855,8.493l-0.544,0l-0.156,-0.466l-0.155,0.466l-0.544,0l0.428,0.311l-0.156,0.505l0.427,-0.311l0.428,0.311l-0.156,-0.505l0.428,-0.311Z" style="fill:#fff;fill-rule:nonzero;"/><path d="M9.42,8.493l-0.505,0l-0.195,-0.466l-0.155,0.466l-0.505,0l0.427,0.311l-0.194,0.505l0.427,-0.311l0.428,0.311l-0.156,-0.505l0.428,-0.311Z" style="fill:#fff;fill-rule:nonzero;"/><path d="M11.985,8.493l-0.505,0l-0.156,-0.466l-0.155,0.466l-0.545,0l0.428,0.311l-0.194,0.505l0.466,-0.311l0.428,0.311l-0.195,-0.505l0.428,-0.311Z" style="fill:#fff;fill-rule:nonzero;"/><path d="M1.687,10.98l-0.506,0l-0.155,-0.466l-0.156,0.466l-0.116,0.311l-0.195,0.544l0.467,-0.35l0.427,0.311l-0.194,-0.505l0.428,-0.311Z" style="fill:#fff;fill-rule:nonzero;"/><path d="M4.29,10.98l-0.544,0l-0.155,-0.466l-0.156,0.466l-0.544,0l0.428,0.311l-0.156,0.544l0.428,-0.35l0.427,0.311l-0.155,-0.505l0.427,-0.311Z" style="fill:#fff;fill-rule:nonzero;"/><path d="M6.855,10.98l-0.544,0l-0.156,-0.466l-0.155,0.466l-0.544,0l0.428,0.311l-0.156,0.544l0.427,-0.35l0.428,0.311l-0.156,-0.505l0.428,-0.311Z" style="fill:#fff;fill-rule:nonzero;"/><path d="M9.42,10.98l-0.505,0l-0.195,-0.466l-0.155,0.466l-0.505,0l0.427,0.311l-0.194,0.544l0.427,-0.35l0.428,0.311l-0.156,-0.505l0.428,-0.311Z" style="fill:#fff;fill-rule:nonzero;"/><path d="M11.985,10.98l-0.505,0l-0.156,-0.466l-0.155,0.466l-0.545,0l0.428,0.311l-0.194,0.544l0.466,-0.35l0.428,0.311l-0.195,-0.505l0.428,-0.311Z" style="fill:#fff;fill-rule:nonzero;"/><path d="M3.047,12.224l-0.506,0l-0.194,-0.467l-0.155,0.467l-0.505,0l0.427,0.311l-0.194,0.544l0.427,-0.35l0.428,0.35l-0.156,-0.544l0.428,-0.311Z" style="fill:#fff;fill-rule:nonzero;"/><path d="M5.612,12.224l-0.506,0l-0.155,-0.467l-0.195,0.467l-0.505,0l0.428,0.311l-0.195,0.544l0.467,-0.35l0.427,0.35l-0.194,-0.544l0.428,-0.311Z" style="fill:#fff;fill-rule:nonzero;"/><path d="M8.176,12.224l-0.505,0l-0.155,-0.467l-0.156,0.467l-0.544,0l0.428,0.311l-0.195,0.544l0.467,-0.35l0.427,0.35l-0.155,-0.544l0.388,-0.311Z" style="fill:#fff;fill-rule:nonzero;"/><path d="M10.78,12.224l-0.544,0l-0.156,-0.467l-0.155,0.467l-0.544,0l0.428,0.311l-0.156,0.544l0.427,-0.35l0.428,0.35l-0.156,-0.544l0.428,-0.311Z" style="fill:#fff;fill-rule:nonzero;"/><path d="M13.345,12.224l-0.505,0l-0.195,-0.467l-0.155,0.467l-0.505,0l0.427,0.311l-0.194,0.544l0.427,-0.35l0.428,0.35l-0.156,-0.544l0.428,-0.311Z" style="fill:#fff;fill-rule:nonzero;"/><circle cx="12" cy="12.554" r="11.25" style="fill:none;stroke:#515151;stroke-width:0.75px;"/></svg>