<?xml version="1.0" encoding="UTF-8" standalone="no"?><!DOCTYPE svg PUBLIC "-//W3C//DTD SVG 1.1//EN" "http://www.w3.org/Graphics/SVG/1.1/DTD/svg11.dtd"><svg width="100%" height="100%" viewBox="0 0 24 25" version="1.1" xmlns="http://www.w3.org/2000/svg" xmlns:xlink="http://www.w3.org/1999/xlink" xml:space="preserve" xmlns:serif="http://www.serif.com/" style="fill-rule:evenodd;clip-rule:evenodd;stroke-linecap:square;stroke-miterlimit:1.5;"><circle id="bandera-uruguay" cx="12" cy="12.554" r="11.25" style="fill:#fff;"/><path d="M19.953,20.507l-1.171,0.967l-13.564,0l-1.171,-0.967l-1.281,-1.552l18.468,0l-1.281,1.552Z" style="fill:#005aaa;"/><path d="M23.021,14.82l-0.493,1.587l-21.056,0l-0.493,-1.587l-0.094,-0.932l22.23,0l-0.094,0.932Z" style="fill:#005aaa;"/><path d="M23.021,10.288l0.106,1.052l-9.867,0l0,-2.519l9.306,0l0.455,1.467Z" style="fill:#005aaa;"/><path d="M18.929,3.755c0.926,0.705 1.735,1.558 2.403,2.519l-8.132,0l0,-2.519l5.729,0Z" style="fill:#005aaa;"/><path id="bandera-uruguay1" serif:id="bandera-uruguay" d="M6.938,2.506l0.233,2.38l1.542,-1.756l-0.072,2.055l1.788,-1.252l-1.417,1.908l2.061,-0.217l-1.358,1.299l2.266,0.637l-2.647,0.304l2.139,1.457l-2.181,-0.06l1.078,1.772l-1.971,-1.742l0.554,2.346l-1.356,-1.199l-0.514,2.116l-0.439,-2.474l-1.064,2.056l-0.08,-2.056l-1.688,0.883l1.323,-1.812l-2.511,0.348l1.558,-1.418l-2.325,-0.397l0,0l2.585,-0.381l-1.86,-0.901c0.129,-0.197 0.264,-0.39 0.405,-0.578l1.45,0.018l-0.652,-0.971c0.078,-0.083 0.158,-0.166 0.239,-0.247l1.285,0.966l-0.545,-1.648c0.118,-0.099 0.238,-0.196 0.36,-0.29l1.387,0.917l0.367,-2.032l0.002,-0.001l0.058,-0.03Z" style="fill:#ffd047;"/><circle cx="12" cy="12.554" r="11.25" style="fill:none;stroke:#515151;stroke-width:0.75px;"/></svg>