<?xml version="1.0" encoding="UTF-8" standalone="no"?><!DOCTYPE svg PUBLIC "-//W3C//DTD SVG 1.1//EN" "http://www.w3.org/Graphics/SVG/1.1/DTD/svg11.dtd"><svg width="100%" height="100%" viewBox="0 0 24 25" version="1.1" xmlns="http://www.w3.org/2000/svg" xmlns:xlink="http://www.w3.org/1999/xlink" xml:space="preserve" xmlns:serif="http://www.serif.com/" style="fill-rule:evenodd;clip-rule:evenodd;stroke-linecap:square;stroke-miterlimit:1.5;"><path d="M22.56,8.804c0.465,1.181 0.69,2.439 0.69,3.75c0,1.311 -0.225,2.569 -0.69,3.75l-21.12,0c-0.465,-1.181 -0.69,-2.439 -0.69,-3.75c0,-1.311 0.225,-2.569 0.69,-3.75l21.12,0Z" style="fill:#007ac2;"/><path d="M1.44,8.804c1.49,-4.362 5.662,-7.5 10.56,-7.5c4.898,0 9.07,3.138 10.56,7.5l-21.12,0Z" style="fill:#fff200;"/><path d="M22.56,16.304c-1.481,4.337 -5.612,7.463 -10.56,7.5c-4.911,-0.035 -9.046,-3.14 -10.56,-7.5l21.12,0Z" style="fill:#ed1b2d;"/><path d="M17.984,14.068l-0.572,0l0.464,0.331l-0.177,0.547l0.462,-0.337l0.462,0.337l-0.179,-0.543l0.466,-0.337l-0.574,0l-0.175,-0.543l-0.177,0.545Zm-1.494,-1.777l-0.572,0l0.464,0.331l-0.177,0.546l0.462,-0.337l0.462,0.337l-0.18,-0.542l0.467,-0.338l-0.574,0l-0.175,-0.542l-0.177,0.545Zm-2.007,-1.157l-0.572,0l0.464,0.33l-0.177,0.547l0.462,-0.337l0.462,0.337l-0.179,-0.542l0.466,-0.338l-0.574,0l-0.175,-0.542l-0.177,0.545Zm-7.894,2.389l-0.175,0.543l-0.574,0l0.466,0.337l-0.179,0.543l0.462,-0.337l0.461,0.337l-0.176,-0.547l0.464,-0.331l-0.572,0l-0.177,-0.545Zm1.494,-1.777l-0.175,0.542l-0.574,0l0.466,0.338l-0.179,0.542l0.462,-0.337l0.462,0.337l-0.177,-0.546l0.464,-0.331l-0.572,0l-0.177,-0.545Zm2.007,-1.157l-0.175,0.542l-0.574,0l0.466,0.338l-0.179,0.542l0.462,-0.337l0.462,0.337l-0.177,-0.547l0.464,-0.33l-0.572,0l-0.177,-0.545Zm2.467,0.144l0.572,0l-0.464,0.331l0.177,0.547l-0.462,-0.337l-0.462,0.337l0.179,-0.542l-0.466,-0.338l0.574,0l0.175,-0.543l0.177,0.545Z" style="fill:#fff;fill-rule:nonzero;"/><circle cx="12" cy="12.554" r="11.25" style="fill:none;stroke:#515151;stroke-width:0.75px;"/></svg>